<svg viewBox="0 0 64 64" xmlns="http://www.w3.org/2000/svg"><defs><style>.icon-discount-2{fill:currentColor}.icon-discount-3{fill:none}</style></defs><path d="M57 44l-1.36.18a4.63 4.63 0 00-3.94 5.43l.3 1.32a4.62 4.62 0 01-6.74 4.91l-1.44-.78a4.61 4.61 0 00-6.26 1.84L36 59.59a4.61 4.61 0 01-8.09 0l-1.43-2.69a4.61 4.61 0 00-6.26-1.84l-1.44.78A4.62 4.62 0 0112 50.93l.25-1.35a4.63 4.63 0 00-3.94-5.43L7 44a4.63 4.63 0 01-2.58-8l1-.94a4.64 4.64 0 000-6.72l-1-.94a4.63 4.63 0 012.57-8l1.36-.17a4.63 4.63 0 003.94-5.43L12 12.51a4.62 4.62 0 016.78-4.91l1.59.87a4.61 4.61 0 006.17-1.7L28 4.26a4.61 4.61 0 017.93 0l1.49 2.51a4.61 4.61 0 006.17 1.7l1.59-.87A4.62 4.62 0 0152 12.51l-.25 1.36a4.63 4.63 0 003.94 5.43l1.36.17a4.63 4.63 0 012.57 8l-1 .94a4.64 4.64 0 000 6.72l1 .94A4.63 4.63 0 0157 44z" fill="none"/><path class="icon-discount-2" d="M26.19 60.55l-1.47-2.69a2.61 2.61 0 00-3.54-1l-1.44.79a6.62 6.62 0 01-9.67-7c.25-1.35.59-2.29-.21-3.39s-1.78-1-3.13-1.23A6.63 6.63 0 013 34.57c1-.94 1.81-1.5 1.81-2.85S4 29.81 3 28.87a6.63 6.63 0 013.73-11.38c1.35-.18 2.34-.14 3.13-1.23s.46-2 .21-3.39a6.62 6.62 0 019.67-7l1.59.87a2.6 2.6 0 003.49-1l1.49-2.51a6.61 6.61 0 0111.37 0l1.49 2.51a2.6 2.6 0 003.49 1l1.59-.87a6.62 6.62 0 019.67 7c-.25 1.35-.59 2.3.21 3.39s1.77 1 3.13 1.23A6.63 6.63 0 0161 28.87c-1 .94-1.81 1.5-1.81 2.85S60 33.63 61 34.57A6.63 6.63 0 0157.26 46c.1 0-1.26.17-1.36.18a2.61 2.61 0 00-2.23 3.08l.25 1.36a6.62 6.62 0 01-9.67 7l-1.44-.79a2.61 2.61 0 00-3.54 1l-1.47 2.72a6.61 6.61 0 01-11.61 0zm-3.77-8a6.61 6.61 0 015.81 3.44l1.47 2.69a2.61 2.61 0 004.59 0l1.47-2.69a6.62 6.62 0 019-2.64c1.45.79 2.68 1.73 4.22.61s1-2.63.79-4a6.63 6.63 0 015.65-7.78c1.52-.2 2.93-.2 3.5-2s-.75-2.78-1.68-3.67a6.63 6.63 0 010-9.62c1.11-1.05 2.26-1.9 1.68-3.66s-2.17-1.8-3.5-2a6.63 6.63 0 01-5.65-7.78c.28-1.48.72-2.87-.79-4s-2.82-.15-4.36.69a6.6 6.6 0 01-8.89-2.34l-1.49-2.51a2.61 2.61 0 00-4.49 0L28.26 7.8a6.59 6.59 0 01-8.85 2.42c-1.54-.84-2.79-1.83-4.37-.69s-1 2.64-.78 4a6.63 6.63 0 01-5.65 7.78c-1.47.19-2.93.2-3.5 2s.75 2.69 1.68 3.6a6.63 6.63 0 010 9.62c-1.11 1.06-2.26 1.9-1.68 3.67s2.17 1.79 3.5 2a6.63 6.63 0 015.65 7.78c-.28 1.48-.73 2.87.78 4 2.42 1.68 3.6-1.48 7.38-1.48zM57 44z"/><path class="icon-discount-2" d="M22 44a2 2 0 01-1.41-3.41l20-20a2 2 0 012.82 2.82C21.7 45.13 23.18 44 22 44z"/><circle class="icon-discount-3" cx="40" cy="40" r="5"/><path class="icon-discount-2" d="M40 47a7 7 0 117-7 7 7 0 01-7 7zm0-10a3 3 0 103 3 3 3 0 00-3-3z"/><circle class="icon-discount-3" cx="24" cy="24" r="5"/><path class="icon-discount-2" d="M24 31a7 7 0 117-7 7 7 0 01-7 7zm0-10a3 3 0 103 3 3 3 0 00-3-3z"/></svg>