<svg xmlns="http://www.w3.org/2000/svg" viewBox="0 0 43 43"><path d="M23.21 2a.79.79 0 01.79.79v4.36l1.45.41a14.22 14.22 0 013.11 1.28l1.32.74L31 8.51l2-2a.8.8 0 011.12 0l2.38 2.41a.79.79 0 010 1.12l-2 2-1.07 1.07.74 1.32a14.22 14.22 0 011.28 3.11l.4 1.46h4.36a.79.79 0 01.79.79v3.42a.79.79 0 01-.79.79h-4.36l-.41 1.45a14.22 14.22 0 01-1.28 3.11l-.74 1.32L34.49 31l2 2a.79.79 0 010 1.12l-2.41 2.38a.8.8 0 01-1.12 0l-2-2-1.07-1.07-1.32.74a14.35 14.35 0 01-3.1 1.28l-1.47.4v4.36a.79.79 0 01-.79.79h-3.42a.79.79 0 01-.79-.79v-4.36l-1.46-.41a14.35 14.35 0 01-3.1-1.28l-1.32-.74-1.07 1.07-2 2a.8.8 0 01-1.12 0L6.5 34.08a.79.79 0 010-1.08l2-2 1.07-1.07-.74-1.32a14.22 14.22 0 01-1.28-3.11l-.4-1.5H2.79a.79.79 0 01-.79-.79v-3.42a.79.79 0 01.79-.79h4.36l.41-1.45a14.22 14.22 0 011.28-3.11l.74-1.32-1.07-1.07-2-2a.79.79 0 010-1.12L8.92 6.5a.8.8 0 011.08 0l2 2 1.07 1.07 1.32-.74a14.22 14.22 0 013.11-1.28l1.5-.4V2.79a.79.79 0 01.79-.79h3.42m0-2h-3.42A2.79 2.79 0 0017 2.79v2.85a16.19 16.19 0 00-3.54 1.46l-2-2a2.78 2.78 0 00-3.94 0L5.09 7.51a2.78 2.78 0 000 3.94l2 2A16.19 16.19 0 005.64 17H2.79A2.79 2.79 0 000 19.79v3.42A2.79 2.79 0 002.79 26h2.85a16.19 16.19 0 001.46 3.54l-2 2a2.78 2.78 0 000 3.94l2.42 2.42a2.78 2.78 0 003.94 0l2-2A16.19 16.19 0 0017 37.36v2.85A2.79 2.79 0 0019.79 43h3.42A2.79 2.79 0 0026 40.21v-2.85a16.19 16.19 0 003.54-1.46l2 2a2.78 2.78 0 003.94 0l2.42-2.42a2.78 2.78 0 000-3.94l-2-2A16.19 16.19 0 0037.36 26h2.85A2.79 2.79 0 0043 23.21v-3.42A2.79 2.79 0 0040.21 17h-2.85a16.19 16.19 0 00-1.46-3.54l2-2a2.78 2.78 0 000-3.94l-2.41-2.43a2.78 2.78 0 00-3.94 0l-2 2A16.19 16.19 0 0026 5.64V2.79A2.79 2.79 0 0023.21 0z" fill="currentColor"/><path d="M21.5 15a6.5 6.5 0 11-6.5 6.5 6.51 6.51 0 016.5-6.5m0-2a8.5 8.5 0 108.5 8.5 8.51 8.51 0 00-8.5-8.5z" fill="currentColor"/></svg>