<svg viewBox="0 0 512 512" xmlns="http://www.w3.org/2000/svg"><linearGradient id="SVGID_1_" gradientUnits="userSpaceOnUse" x1="18.551" x2="493.45" y1="493.449" y2="18.551"><stop offset="0" stop-color="#545aff"/><stop offset="1" stop-color="#03bdff"/></linearGradient><path d="M496.484 131.712a6.094 6.094 0 006.095-6.095V42.871c0-20.273-16.514-36.765-36.813-36.765H46.236c-20.299 0-36.815 16.492-36.815 36.765V469.13c0 20.273 16.516 36.765 36.815 36.765h419.53c20.299 0 36.813-16.492 36.813-36.765V180.18c0-3.367-2.728-6.095-6.095-6.095s-6.095 2.728-6.095 6.095v69.726H262.096V18.295h203.67c13.578 0 24.623 11.023 24.623 24.575v82.747a6.095 6.095 0 006.095 6.095zM21.611 469.129V262.095h228.295v231.61H46.236c-13.578 0-24.625-11.024-24.625-24.576zm468.778-207.034v207.034c0 13.552-11.045 24.575-24.623 24.575h-203.67v-231.61h228.293zm-240.483-12.19H21.611V42.871c0-13.552 11.047-24.575 24.625-24.575h203.67zM54.698 165.689a6.093 6.093 0 010-8.619l103.15-103.15c2.381-2.381 6.238-2.381 8.619 0s2.381 6.238 0 8.619L63.316 165.689a6.092 6.092 0 01-8.618 0zm56.278 3.815l59.302-59.305a6.093 6.093 0 018.619 0 6.093 6.093 0 010 8.619l-59.302 59.305a6.093 6.093 0 01-8.619 0 6.093 6.093 0 010-8.619z" fill="url(#SVGID_1_)" id="_x33_1_Window"/></svg>