<svg xmlns="http://www.w3.org/2000/svg" viewBox="0 0 42.89 41"><path d="M6.69 6.87a5.85 5.85 0 014.79 2.94l.84 1.83 1.82-.86a17.56 17.56 0 017.36-1.6c8.55 0 15.5 6 15.5 13.37a12.64 12.64 0 01-5.22 10l-.78.6v5.16a.68.68 0 01-.65.71h-2.7a.68.68 0 01-.65-.71v-3.08l-2.35.42a18.35 18.35 0 01-3.15.27 17.9 17.9 0 01-3.15-.28L16 35.22v3.07a.68.68 0 01-.65.71h-2.7a.68.68 0 01-.65-.71v-5.15l-.78-.6a13.91 13.91 0 01-4-4.73L6.7 26.7H4.21A2.27 2.27 0 012 24.39v-2.65a2.26 2.26 0 012.21-2.31h2l.52-1.22a7.92 7.92 0 011.69-2.46l.58-.59v-.81a11.07 11.07 0 00-2.67-7.46h.36m0-2A5.94 5.94 0 003 6.15c3 3.08 4 5.13 4 8.2a10 10 0 00-2.1 3.08h-.69A4.26 4.26 0 000 21.74v2.65a4.26 4.26 0 004.21 4.31h1.26A15.81 15.81 0 0010 34.13v4.16A2.67 2.67 0 0012.65 41h2.7A2.67 2.67 0 0018 38.29v-.68a20.23 20.23 0 007 0v.67A2.67 2.67 0 0027.65 41h2.7A2.67 2.67 0 0033 38.29v-4.17a14.62 14.62 0 006-11.57c0-8.49-7.84-15.37-17.5-15.37A19.39 19.39 0 0013.3 9a7.81 7.81 0 00-6.61-4.1z" fill="currentColor"/><path d="M21.5 2A4.59 4.59 0 0126 6.66a4.7 4.7 0 01-.09.92 21.92 21.92 0 00-8.78.2A5.2 5.2 0 0117 6.66 4.59 4.59 0 0121.5 2m0-2A6.58 6.58 0 0015 6.66a6.75 6.75 0 001 3.52 18.93 18.93 0 016-.95 19.51 19.51 0 015.17.69A6.72 6.72 0 0028 6.66 6.58 6.58 0 0021.5 0z" fill="currentColor"/><path d="M38 23.58c6-4.1 4-11.28 1-14.36m-28 8.2h2" fill="none" stroke="currentColor" stroke-miterlimit="10" stroke-width="2"/></svg>