<svg xmlns="http://www.w3.org/2000/svg" viewBox="0 0 33.77 43.31"><path d="M28.87 6.14a3.74 3.74 0 01-1-.17 22.52 22.52 0 01-2.54-.65 28.75 28.75 0 01-8.45-4.1 28.91 28.91 0 01-8.41 4.1A22.09 22.09 0 011 6.35v20.52l1.68 3.06a26.2 26.2 0 005.32 7c.36.34.72.65 1.08 1A25.5 25.5 0 0015 41.42l1.85.8 2-.88a23.69 23.69 0 005.65-3.44 27.16 27.16 0 003.65-3.55 24.23 24.23 0 002.7-4l1.9-3.45V16.57M9.93 20.34l7.44 7.43M33 9.42L16.88 28.58" fill="none" stroke="currentColor" stroke-miterlimit="10" stroke-width="2"/></svg>