<svg id="Layer_2" data-name="Layer 2" xmlns="http://www.w3.org/2000/svg" xmlns:xlink="http://www.w3.org/1999/xlink" viewBox="0 0 288 288.04"><defs><linearGradient id="linear-gradient" x1="-121.79" y1="200.7" x2="380.7" y2="-28.8" gradientUnits="userSpaceOnUse"><stop offset="0" stop-color="#b46d13"/><stop offset=".12" stop-color="#f3ad3b"/><stop offset=".31" stop-color="#f7dd80"/><stop offset=".45" stop-color="#fbdb62"/><stop offset=".55" stop-color="#f3ad3b"/><stop offset=".68" stop-color="#cc8f36"/><stop offset=".76" stop-color="#f3ad3b"/><stop offset=".83" stop-color="#f4d175"/><stop offset=".99" stop-color="#b9721a"/></linearGradient><linearGradient id="linear-gradient-2" x1="-68.3" y1="317.79" x2="434.16" y2="88.3" xlink:href="#linear-gradient"/><linearGradient id="linear-gradient-3" x1="-110.52" y1="225.37" x2="391.96" y2="-4.11" xlink:href="#linear-gradient"/><linearGradient id="linear-gradient-4" x1="-37.37" y1="385.53" x2="465.1" y2="156.05" xlink:href="#linear-gradient"/><linearGradient id="linear-gradient-5" x1="-26.09" y1="410.21" x2="476.37" y2="180.73" xlink:href="#linear-gradient"/><linearGradient id="linear-gradient-6" x1="-79.58" y1="293.12" x2="422.91" y2="63.63" xlink:href="#linear-gradient"/><linearGradient id="linear-gradient-7" x1="-58.51" y1="339.27" x2="443.98" y2="109.78" xlink:href="#linear-gradient"/><linearGradient id="linear-gradient-8" x1="-47.21" y1="364" x2="455.27" y2="134.51" xlink:href="#linear-gradient"/><linearGradient id="linear-gradient-9" x1="-100.71" y1="246.85" x2="401.76" y2="17.36" xlink:href="#linear-gradient"/><linearGradient id="linear-gradient-10" x1="-89.42" y1="271.57" x2="413.06" y2="42.09" xlink:href="#linear-gradient"/><linearGradient id="linear-gradient-11" x1="-137.15" y1="167.07" x2="365.33" y2="-62.42" xlink:href="#linear-gradient"/><linearGradient id="linear-gradient-12" x1="-170.59" y1="93.84" x2="331.88" y2="-135.65" xlink:href="#linear-gradient"/><linearGradient id="linear-gradient-13" x1="-153.86" y1="130.45" x2="348.6" y2="-99.03" xlink:href="#linear-gradient"/><linearGradient id="linear-gradient-14" x1="-146.57" y1="146.44" x2="355.9" y2="-83.05" xlink:href="#linear-gradient"/><linearGradient id="linear-gradient-15" x1="-104.35" y1="238.86" x2="398.1" y2="9.39" xlink:href="#linear-gradient"/><linearGradient id="linear-gradient-16" x1="-118.42" y1="208.06" x2="384.06" y2="-21.43" xlink:href="#linear-gradient"/><linearGradient id="linear-gradient-17" x1="-76.21" y1="300.49" x2="426.27" y2="71" xlink:href="#linear-gradient"/><linearGradient id="linear-gradient-18" x1="-160.63" y1="115.64" x2="341.84" y2="-113.85" xlink:href="#linear-gradient"/><linearGradient id="linear-gradient-19" x1="-83.21" y1="285.17" x2="419.27" y2="55.68" xlink:href="#linear-gradient"/><linearGradient id="linear-gradient-20" x1="-139.57" y1="161.76" x2="362.9" y2="-67.72" xlink:href="#linear-gradient"/><linearGradient id="linear-gradient-21" x1="-167.6" y1="100.37" x2="334.85" y2="-129.11" xlink:href="#linear-gradient"/><linearGradient id="linear-gradient-22" x1="-97.35" y1="254.19" x2="405.09" y2="24.72" xlink:href="#linear-gradient"/><linearGradient id="linear-gradient-23" x1="-125.4" y1="192.77" x2="377.06" y2="-36.71" xlink:href="#linear-gradient"/><linearGradient id="linear-gradient-24" x1="-136.7" y1="168.04" x2="365.77" y2="-61.45" xlink:href="#linear-gradient"/><linearGradient id="linear-gradient-25" x1="-119.99" y1="204.64" x2="382.49" y2="-24.85" xlink:href="#linear-gradient"/><linearGradient id="linear-gradient-26" x1="-69.01" y1="316.26" x2="433.48" y2="86.77" xlink:href="#linear-gradient"/><linearGradient id="linear-gradient-27" x1="-35.56" y1="389.47" x2="466.9" y2="159.99" xlink:href="#linear-gradient"/><linearGradient id="linear-gradient-28" x1="-153.43" y1="131.41" x2="349.04" y2="-98.08" xlink:href="#linear-gradient"/><linearGradient id="linear-gradient-29" x1="-77.78" y1="297.05" x2="424.7" y2="67.56" xlink:href="#linear-gradient"/><linearGradient id="linear-gradient-30" x1="-52.3" y1="352.86" x2="450.19" y2="123.36" xlink:href="#linear-gradient"/><linearGradient id="linear-gradient-31" x1="-75.59" y1="301.87" x2="426.9" y2="72.38" xlink:href="#linear-gradient"/><linearGradient id="linear-gradient-32" x1="-94.52" y1="260.43" x2="407.97" y2="30.93" xlink:href="#linear-gradient"/><linearGradient id="linear-gradient-33" x1="-151.25" y1="136.19" x2="351.23" y2="-93.29" xlink:href="#linear-gradient"/><linearGradient id="linear-gradient-34" x1="-134.53" y1="172.82" x2="367.97" y2="-56.67" xlink:href="#linear-gradient"/><linearGradient id="linear-gradient-35" x1="-117.8" y1="209.44" x2="384.68" y2="-20.05" xlink:href="#linear-gradient"/><linearGradient id="linear-gradient-36" x1="-72.27" y1="309.12" x2="430.2" y2="79.63" xlink:href="#linear-gradient"/><linearGradient id="linear-gradient-37" x1="-114.49" y1="216.69" x2="388" y2="-12.8" xlink:href="#linear-gradient"/><linearGradient id="linear-gradient-38" x1="-111.23" y1="223.83" x2="391.26" y2="-5.67" xlink:href="#linear-gradient"/><linearGradient id="linear-gradient-39" x1="-55.55" y1="345.72" x2="446.92" y2="116.23" xlink:href="#linear-gradient"/><linearGradient id="linear-gradient-40" x1="-89" y1="272.48" x2="413.47" y2="42.99" xlink:href="#linear-gradient"/><linearGradient id="linear-gradient-41" x1="-109.03" y1="228.62" x2="393.44" y2="-.87" xlink:href="#linear-gradient"/><linearGradient id="linear-gradient-42" x1="-92.3" y1="265.25" x2="410.17" y2="35.77" xlink:href="#linear-gradient"/><linearGradient id="linear-gradient-43" x1="-70.12" y1="313.82" x2="432.35" y2="84.34" xlink:href="#linear-gradient"/><linearGradient id="linear-gradient-44" x1="-162.9" y1="110.68" x2="339.58" y2="-118.81" xlink:href="#linear-gradient"/><linearGradient id="linear-gradient-45" x1="-154.55" y1="128.96" x2="347.92" y2="-100.53" xlink:href="#linear-gradient"/><linearGradient id="linear-gradient-46" x1="-137.8" y1="165.64" x2="364.68" y2="-63.85" xlink:href="#linear-gradient"/><linearGradient id="linear-gradient-47" x1="-78.48" y1="295.51" x2="423.99" y2="66.03" xlink:href="#linear-gradient"/><linearGradient id="linear-gradient-48" x1="-106.13" y1="234.96" x2="396.33" y2="5.47" xlink:href="#linear-gradient"/><linearGradient id="linear-gradient-49" x1="-45.03" y1="368.76" x2="457.44" y2="139.27" xlink:href="#linear-gradient"/><linearGradient id="linear-gradient-50" x1="-97.78" y1="253.27" x2="404.7" y2="23.78" xlink:href="#linear-gradient"/><linearGradient id="linear-gradient-51" x1="-87.25" y1="276.32" x2="415.23" y2="46.84" xlink:href="#linear-gradient"/><linearGradient id="linear-gradient-52" x1="-95.6" y1="258.04" x2="406.88" y2="28.55" xlink:href="#linear-gradient"/><linearGradient id="linear-gradient-53" x1="-112.3" y1="221.46" x2="390.16" y2="-8.02" xlink:href="#linear-gradient"/><linearGradient id="linear-gradient-54" x1="-53.41" y1="350.41" x2="449.06" y2="120.92" xlink:href="#linear-gradient"/><linearGradient id="linear-gradient-55" x1="-120.69" y1="203.11" x2="381.79" y2="-26.38" xlink:href="#linear-gradient"/><linearGradient id="linear-gradient-56" x1="-122.86" y1="198.35" x2="379.61" y2="-31.14" xlink:href="#linear-gradient"/><linearGradient id="linear-gradient-57" x1="-80.67" y1="290.79" x2="421.8" y2="61.3" xlink:href="#linear-gradient"/><linearGradient id="linear-gradient-58" x1="-61.75" y1="332.14" x2="440.72" y2="102.66" xlink:href="#linear-gradient"/><linearGradient id="linear-gradient-59" x1="-63.93" y1="327.38" x2="438.54" y2="97.89" xlink:href="#linear-gradient"/><linearGradient id="linear-gradient-60" x1="-132.32" y1="177.64" x2="370.16" y2="-51.85" xlink:href="#linear-gradient"/><linearGradient id="linear-gradient-61" x1="-146.17" y1="147.3" x2="356.3" y2="-82.19" xlink:href="#linear-gradient"/><linearGradient id="linear-gradient-62" x1="-129.46" y1="183.92" x2="373.03" y2="-45.57" xlink:href="#linear-gradient"/><linearGradient id="linear-gradient-63" x1="-133.44" y1="175.18" x2="369.04" y2="-54.31" xlink:href="#linear-gradient"/><linearGradient id="linear-gradient-64" x1="-141.8" y1="156.89" x2="360.68" y2="-72.6" xlink:href="#linear-gradient"/><linearGradient id="linear-gradient-65" x1="-118.88" y1="207.07" x2="383.6" y2="-22.42" xlink:href="#linear-gradient"/><linearGradient id="linear-gradient-66" x1="-110.12" y1="226.25" x2="392.36" y2="-3.24" xlink:href="#linear-gradient"/><linearGradient id="linear-gradient-67" x1="-93.39" y1="262.87" x2="409.08" y2="33.38" xlink:href="#linear-gradient"/><linearGradient id="linear-gradient-68" x1="-85.03" y1="281.16" x2="417.44" y2="51.68" xlink:href="#linear-gradient"/><linearGradient id="linear-gradient-69" x1="-76.67" y1="299.5" x2="425.82" y2="70.01" xlink:href="#linear-gradient"/><linearGradient id="linear-gradient-70" x1="-59.54" y1="336.98" x2="442.94" y2="107.49" xlink:href="#linear-gradient"/><linearGradient id="linear-gradient-71" x1="-51.17" y1="355.31" x2="451.3" y2="125.82" xlink:href="#linear-gradient"/><linearGradient id="linear-gradient-72" x1="-103.97" y1="239.7" x2="398.5" y2="10.22" xlink:href="#linear-gradient"/><linearGradient id="linear-gradient-73" x1="-34.47" y1="391.88" x2="468" y2="162.4" xlink:href="#linear-gradient"/><linearGradient id="linear-gradient-74" x1="-135.62" y1="170.42" x2="366.86" y2="-59.07" xlink:href="#linear-gradient"/><linearGradient id="linear-gradient-75" x1="-143.96" y1="152.14" x2="358.51" y2="-77.35" xlink:href="#linear-gradient"/><linearGradient id="linear-gradient-76" x1="-152.32" y1="133.84" x2="350.15" y2="-95.65" xlink:href="#linear-gradient"/><linearGradient id="linear-gradient-77" x1="-99.58" y1="249.33" x2="402.9" y2="19.84" xlink:href="#linear-gradient"/><linearGradient id="linear-gradient-78" x1="-66.14" y1="322.54" x2="436.33" y2="93.05" xlink:href="#linear-gradient"/><linearGradient id="linear-gradient-79" x1="-90.11" y1="270.06" x2="412.37" y2="40.57" xlink:href="#linear-gradient"/><linearGradient id="linear-gradient-80" x1="-73.39" y1="306.66" x2="429.09" y2="77.17" xlink:href="#linear-gradient"/><linearGradient id="linear-gradient-81" x1="-131.2" y1="180.08" x2="371.27" y2="-49.41" xlink:href="#linear-gradient"/><linearGradient id="linear-gradient-82" x1="-42.83" y1="373.59" x2="459.65" y2="144.1" xlink:href="#linear-gradient"/><linearGradient id="linear-gradient-83" x1="-108.35" y1="230.13" x2="394.13" y2=".64" xlink:href="#linear-gradient"/><linearGradient id="linear-gradient-84" x1="-67.91" y1="318.67" x2="434.57" y2="89.17" xlink:href="#linear-gradient"/><linearGradient id="linear-gradient-85" x1="-56.67" y1="343.28" x2="445.81" y2="113.79" xlink:href="#linear-gradient"/><linearGradient id="linear-gradient-86" x1="-82.85" y1="285.95" x2="419.63" y2="56.46" xlink:href="#linear-gradient"/><linearGradient id="linear-gradient-87" x1="-127.24" y1="188.75" x2="375.23" y2="-40.73" xlink:href="#linear-gradient"/><linearGradient id="linear-gradient-88" x1="-116.72" y1="211.81" x2="385.76" y2="-17.68" xlink:href="#linear-gradient"/><linearGradient id="linear-gradient-89" x1="-91.22" y1="267.62" x2="411.25" y2="38.13" xlink:href="#linear-gradient"/><linearGradient id="linear-gradient-90" x1="-125.07" y1="193.53" x2="377.41" y2="-35.96" xlink:href="#linear-gradient"/><linearGradient id="linear-gradient-91" x1="-101.72" y1="244.63" x2="400.75" y2="15.14" xlink:href="#linear-gradient"/><linearGradient id="linear-gradient-92" x1="-115.6" y1="214.24" x2="386.87" y2="-15.25" xlink:href="#linear-gradient"/><linearGradient id="linear-gradient-93" x1="-98.88" y1="250.85" x2="403.59" y2="21.37" xlink:href="#linear-gradient"/><linearGradient id="linear-gradient-94" x1="-74.5" y1="304.25" x2="427.98" y2="74.76" xlink:href="#linear-gradient"/><linearGradient id="linear-gradient-95" x1="-113.41" y1="219.05" x2="389.07" y2="-10.44" xlink:href="#linear-gradient"/><linearGradient id="linear-gradient-96" x1="-96.69" y1="255.63" x2="405.77" y2="26.14" xlink:href="#linear-gradient"/><linearGradient id="linear-gradient-97" x1="-130.16" y1="182.36" x2="372.32" y2="-47.13" xlink:href="#linear-gradient"/><linearGradient id="linear-gradient-98" x1="-54.48" y1="348.08" x2="448" y2="118.59" xlink:href="#linear-gradient"/><linearGradient id="linear-gradient-99" x1="-71.19" y1="311.48" x2="431.28" y2="81.99" xlink:href="#linear-gradient"/><linearGradient id="linear-gradient-100" x1="-87.92" y1="274.85" x2="414.55" y2="45.36" xlink:href="#linear-gradient"/><linearGradient id="linear-gradient-101" x1="-68.61" y1="317.14" x2="433.87" y2="87.65" xlink:href="#linear-gradient"/><linearGradient id="linear-gradient-102" x1="-51.88" y1="353.75" x2="450.58" y2="124.27" xlink:href="#linear-gradient"/><linearGradient id="linear-gradient-103" x1="-35.18" y1="390.35" x2="467.31" y2="160.85" xlink:href="#linear-gradient"/></defs><g stroke-width="0" id="Layer_1-2" data-name="Layer 1"><path fill="#fff" d="M0 0h288v288H0z"/><g fill-rule="evenodd"><path d="M288 14.81c-.67-1.06-1.36-2.12-2.01-3.2-.22-.36-.47-.52-.9-.53-5.48-.13-10.97-.29-16.45-.43-.1 0-.2.03-.39.06.09.23.13.45.24.63 2.79 4.56 5.6 9.11 8.39 13.67.28.46.61.66 1.15.67 3.32.06 6.65.16 9.97.24v.82c-.4-.05-.81-.12-1.21-.14-3.04-.09-6.09-.18-9.13-.24-.53-.01-.88-.14-1.17-.62-3.14-5.14-6.3-10.26-9.45-15.4-.05-.09-.08-.19-.16-.36.2-.04.38-.11.56-.1 5.95.15 11.9.32 17.86.47.59.01.93.24 1.22.74.46.78.99 1.53 1.49 2.29v1.44z" fill="url(#linear-gradient)"/><path d="M288 150.38c-.44.05-.88.13-1.32.14-2.84.09-5.68.18-8.53.23-.6.01-.99.16-1.33.71-2.74 4.51-5.51 9-8.27 13.49-.14.22-.24.46-.43.83h1.01c5.21-.14 10.41-.29 15.62-.41.66-.02 1.07-.22 1.39-.81.58-1.05 1.23-2.05 1.86-3.07v1.44c-.51.81-1.04 1.6-1.51 2.43-.29.52-.67.67-1.24.69-5.34.13-10.69.28-16.03.42-.75.02-1.5 0-2.34 0 .1-.23.17-.44.28-.62 3.08-5.02 6.18-10.04 9.24-15.07.32-.53.69-.75 1.31-.76 3.43-.07 6.85-.17 10.28-.25v.62z" fill="url(#linear-gradient-2)"/><path d="M288 38.67c-.44.05-.88.13-1.32.14-2.84.09-5.68.18-8.53.23-.6.01-.99.17-1.33.71-2.74 4.51-5.51 9-8.27 13.49-.14.22-.24.47-.43.83h1.01c5.21-.14 10.41-.3 15.62-.42.66-.01 1.07-.22 1.39-.81.58-1.05 1.23-2.05 1.86-3.07v1.44c-.51.81-1.04 1.6-1.51 2.43-.29.52-.67.67-1.24.69-5.14.12-10.28.27-15.41.41-.95.03-1.91 0-2.96 0 .12-.24.2-.48.34-.7 3.05-4.96 6.11-9.92 9.13-14.89.37-.6.78-.84 1.47-.85 3.39-.06 6.78-.16 10.17-.25v.62z" fill="url(#linear-gradient-3)"/><path d="M288 238.22c-.67-1.06-1.36-2.12-2.01-3.2-.22-.36-.47-.52-.9-.53-5.48-.13-10.97-.29-16.45-.43-.1 0-.2.03-.39.07.08.23.13.45.24.63 2.79 4.56 5.6 9.11 8.39 13.67.28.46.61.66 1.15.67 3.32.06 6.65.16 9.97.24v.82c-.4-.05-.81-.12-1.21-.14-3.04-.09-6.09-.18-9.13-.24-.53-.01-.88-.14-1.17-.62-3.14-5.14-6.3-10.26-9.45-15.4-.05-.09-.08-.19-.17-.38.28-.03.53-.09.77-.08 5.85.15 11.7.32 17.55.46.67.02 1.06.26 1.38.83.43.76.95 1.47 1.43 2.2v1.44z" fill="url(#linear-gradient-4)"/><path d="M288 262.08c-.44.05-.88.13-1.32.14-2.84.09-5.68.18-8.53.23-.6.01-.99.16-1.33.71-2.74 4.51-5.51 9-8.27 13.49-.14.22-.24.47-.43.82h1.21c5.1-.14 10.21-.29 15.31-.41.73-.02 1.2-.24 1.55-.9.55-1.02 1.2-1.99 1.8-2.98v1.44c-.51.81-1.04 1.6-1.51 2.43-.29.52-.67.67-1.24.69-5.14.12-10.28.27-15.41.41-.96.02-1.91 0-2.95 0 .09-.21.16-.42.27-.61 3.08-5.02 6.18-10.04 9.24-15.07.33-.53.69-.75 1.31-.76 3.43-.07 6.85-.17 10.28-.25v.62z" fill="url(#linear-gradient-5)"/><path d="M288 126.51c-.67-1.06-1.36-2.12-2.01-3.2-.22-.36-.47-.52-.9-.53-5.48-.14-10.97-.29-16.45-.43-.1 0-.2.03-.39.06.08.23.13.45.24.63 2.8 4.56 5.6 9.11 8.39 13.67.28.46.61.66 1.15.67 3.32.06 6.65.16 9.97.24v.82c-.44-.05-.88-.13-1.32-.14-3.01-.09-6.02-.18-9.03-.24-.53-.01-.88-.14-1.17-.62-3.14-5.14-6.3-10.27-9.45-15.4-.05-.09-.08-.19-.16-.36.2-.04.38-.11.56-.1 5.95.16 11.9.32 17.86.47.59.01.93.24 1.22.74.46.78.99 1.53 1.49 2.29v1.44z" fill="url(#linear-gradient-6)"/><path d="M288 182.47c-.62-1.02-1.28-2.02-1.86-3.07-.32-.59-.74-.79-1.39-.8-3.12-.05-6.23-.15-9.35-.23-2.16-.06-4.31-.13-6.47-.18-.22 0-.45.02-.8.04.21.39.36.69.53.97 2.71 4.41 5.42 8.81 8.11 13.22.34.56.71.8 1.38.81 2.64.03 5.27.12 7.91.21.65.02 1.29.1 1.94.15v.62c-3.43-.09-6.85-.18-10.28-.26-.55-.01-.94-.14-1.26-.67-3.12-5.12-6.27-10.22-9.41-15.33-.07-.11-.12-.23-.23-.44.27-.03.46-.08.65-.07 5.93.16 11.85.34 17.78.48.63.02 1 .25 1.29.77.45.8.96 1.56 1.45 2.34v1.44z" fill="url(#linear-gradient-7)"/><path d="M288 206.33c-3.29.08-6.58.17-9.87.24-.56.01-.94.14-1.26.67-2.78 4.57-5.59 9.12-8.39 13.67-.1.17-.18.35-.31.62.29.04.48.08.67.08 5.38-.14 10.76-.3 16.14-.43.51-.01.81-.19 1.06-.62.62-1.05 1.3-2.08 1.95-3.12v1.44c-.46.7-.99 1.37-1.37 2.12-.37.71-.88.92-1.64.93-2.98.04-5.95.15-8.93.23-2.7.07-5.41.15-8.11.21h-1.13c.2-.38.32-.65.48-.9 3.03-4.93 6.07-9.85 9.07-14.79.34-.56.71-.79 1.38-.8 3.01-.04 6.02-.14 9.03-.23.4-.01.81-.09 1.21-.14v.82z" fill="url(#linear-gradient-8)"/><path d="M288 70.77c-.62-1.02-1.28-2.02-1.86-3.07-.32-.59-.74-.79-1.39-.8-3.15-.05-6.3-.15-9.45-.23l-6.37-.18c-.23 0-.45.02-.79.04.19.36.31.63.47.88 2.72 4.44 5.46 8.86 8.16 13.31.34.56.71.8 1.38.81 2.64.03 5.27.12 7.91.2.65.02 1.29.1 1.94.15v.62c-3.43-.09-6.85-.18-10.28-.26-.55-.01-.94-.14-1.26-.67-3.12-5.12-6.27-10.22-9.41-15.33-.07-.11-.12-.23-.21-.44.29-.03.52-.07.74-.06 5.86.16 11.71.34 17.57.47.72.02 1.12.27 1.45.87.42.77.93 1.5 1.4 2.25v1.44z" fill="url(#linear-gradient-9)"/><path d="M288 94.63c-3.29.08-6.58.17-9.87.24-.56.01-.94.15-1.26.67-2.78 4.57-5.59 9.12-8.39 13.67-.1.17-.18.35-.31.62.29.04.48.08.67.08 5.38-.14 10.76-.3 16.14-.43.51-.01.81-.19 1.06-.62.62-1.05 1.3-2.08 1.95-3.11v1.44c-.46.7-.99 1.37-1.37 2.12-.37.71-.88.92-1.64.93-2.98.05-5.95.15-8.93.23-2.7.07-5.41.15-8.11.22h-1.13c.2-.38.33-.65.48-.9 3.03-4.93 6.06-9.85 9.07-14.79.34-.57.71-.79 1.38-.8 3.01-.04 6.02-.14 9.03-.23.4-.01.81-.09 1.21-.14v.82z" fill="url(#linear-gradient-10)"/><path d="M202.83 0l-2.37 4.5c2.73 5.05 5.48 10.12 8.33 15.39 2.85-5.27 5.6-10.34 8.33-15.39-.81-1.53-1.59-3.02-2.37-4.5h.82c.78 1.48 1.55 2.97 2.35 4.5-3 5.54-6.01 11.1-9.03 16.69-.59-.58-8.29-14.6-9.22-16.75.77-1.48 1.55-2.96 2.32-4.45h.82z" fill="url(#linear-gradient-11)"/><path d="M9.05 0L6.68 4.5c2.73 5.05 5.48 10.12 8.33 15.39 2.85-5.27 5.6-10.34 8.33-15.39-.81-1.53-1.59-3.02-2.37-4.5h.82c.77 1.48 1.55 2.97 2.35 4.5-3 5.54-6.01 11.1-9.03 16.69-.59-.58-8.29-14.6-9.22-16.75.77-1.48 1.55-2.96 2.32-4.45h.82z" fill="url(#linear-gradient-12)"/><path d="M105.94 0l-2.37 4.5c2.73 5.05 5.48 10.12 8.33 15.39 2.85-5.27 5.6-10.34 8.33-15.39L117.86 0h.82c.77 1.48 1.55 2.97 2.35 4.5-3 5.54-6.01 11.1-9.03 16.69-.59-.58-8.29-14.61-9.22-16.75.77-1.48 1.55-2.96 2.32-4.45h.82z" fill="url(#linear-gradient-13)"/><path d="M0 81.87h4.04c-.08-.2-.12-.39-.21-.55-1.08-1.77-2.16-3.54-3.26-5.3-.13-.21-.37-.35-.57-.53v-1.44c.17.16.38.3.49.5 1.58 2.56 3.15 5.12 4.72 7.68.05.08.08.18.11.28-.7.25-3.63.24-5.33-.02v-.62z" fill="url(#linear-gradient-14)"/><path d="M0 193.58h4.04c-.08-.2-.12-.39-.21-.55-1.08-1.77-2.16-3.54-3.26-5.3-.13-.21-.37-.35-.57-.53v-1.44c.17.16.38.3.49.5 1.58 2.56 3.15 5.12 4.72 7.68.05.08.08.18.11.28-.7.25-3.64.24-5.33-.02v-.62z" fill="url(#linear-gradient-15)"/><path d="M0 156.75c.17-.14.4-.25.51-.44 1.15-1.85 2.28-3.7 3.42-5.56.05-.08.06-.18.13-.38H0v-.62c1.76-.09 3.52-.17 5.44-.26-.18.39-.25.6-.37.79-1.48 2.42-2.96 4.83-4.46 7.24-.16.25-.4.44-.6.67v-1.44z" fill="url(#linear-gradient-16)"/><path d="M0 268.46c.17-.14.4-.25.51-.44 1.15-1.85 2.28-3.71 3.42-5.56.05-.08.06-.18.13-.38H0v-.62c1.76-.09 3.52-.17 5.43-.26-.16.36-.21.55-.31.71-1.52 2.47-3.04 4.95-4.57 7.41-.14.22-.37.39-.55.58v-1.44z" fill="url(#linear-gradient-17)"/><path d="M0 45.05c.17-.14.4-.26.51-.44 1.15-1.85 2.28-3.71 3.42-5.56.05-.08.06-.18.13-.38H0v-.62c1.76-.08 3.52-.17 5.46-.27-.23.45-.35.72-.5.97-1.43 2.33-2.86 4.66-4.3 6.98-.17.28-.44.5-.66.75v-1.44z" fill="url(#linear-gradient-18)"/><path d="M0 249.33c1.32.08 2.64.17 4.07.26-.07-.26-.08-.43-.16-.55-1.13-1.86-2.27-3.72-3.42-5.57-.12-.2-.32-.34-.49-.51v-1.23c.14.08.33.13.4.26 1.67 2.69 3.33 5.38 5.04 8.17-1 .25-1.9.02-2.79.04-.89.02-1.77-.02-2.66-.03v-.82z" fill="url(#linear-gradient-19)"/><path d="M0 101.01c.16-.17.37-.31.49-.5 1.15-1.85 2.29-3.71 3.42-5.57.07-.11.1-.24.19-.46-1.43-.04-2.77-.04-4.11.15v-.82h5.37c-.1.22-.18.43-.29.62-1.46 2.38-2.92 4.76-4.4 7.13-.17.26-.45.46-.68.68v-1.23z" fill="url(#linear-gradient-20)"/><path d="M0 25.92c1.32.08 2.64.17 4.07.25-.07-.26-.08-.43-.16-.55-1.13-1.86-2.27-3.72-3.42-5.57-.12-.19-.32-.34-.49-.51v-1.23c.14.08.33.13.4.25 1.67 2.69 3.33 5.38 5.1 8.26-1.95.04-3.73-.11-5.5-.08v-.82z" fill="url(#linear-gradient-21)"/><path d="M0 212.71c.16-.17.37-.31.49-.5 1.15-1.85 2.29-3.71 3.42-5.57.07-.11.1-.24.19-.46-1.43-.04-2.77-.04-4.1.15v-.82h5.37c-.09.19-.15.37-.24.53-1.48 2.41-2.95 4.82-4.45 7.22-.17.26-.45.46-.68.68v-1.23z" fill="url(#linear-gradient-22)"/><path d="M0 137.62c1.32.08 2.64.17 4.07.26-.07-.26-.08-.43-.16-.55-1.13-1.86-2.27-3.72-3.42-5.57-.12-.2-.32-.34-.49-.51v-1.23c.17.14.4.25.52.43 1.6 2.58 3.18 5.16 4.77 7.75.03.05.04.13.09.34-1.81.05-3.59-.11-5.37-.08v-.82z" fill="url(#linear-gradient-23)"/><path d="M160.35 49.28c-.23-.39-.4-.65-.54-.92-2.76-5.09-5.5-10.18-8.27-15.26-.26-.49-.35-.87-.05-1.41 2.86-5.23 5.69-10.47 8.52-15.71.08-.15.18-.29.32-.51.18.27.34.47.46.69 2.79 5.15 5.57 10.3 8.36 15.45.26.48.37.86.07 1.41-2.86 5.23-5.69 10.47-8.53 15.71-.08.15-.18.28-.36.56zm.04-32.37c-.18.27-.31.43-.4.61-2.56 4.73-5.12 9.47-7.7 14.19-.27.49-.23.85.02 1.32 2.56 4.69 5.1 9.4 7.64 14.1.1.19.25.36.41.59.12-.18.21-.28.28-.4 2.6-4.79 5.18-9.59 7.79-14.37.28-.5.17-.87-.08-1.32-1.76-3.22-3.5-6.45-5.24-9.67-.88-1.63-1.76-3.25-2.73-5.04z" fill="url(#linear-gradient-24)"/><path d="M257.26 15.43c.22.38.38.64.52.91 2.74 5.06 5.47 10.12 8.23 15.17.34.62.34 1.07 0 1.69-2.76 5.05-5.49 10.11-8.23 15.17-.14.27-.31.52-.52.88-.19-.29-.36-.49-.48-.71-2.79-5.15-5.57-10.3-8.36-15.45-.24-.44-.37-.81-.09-1.32 2.89-5.29 5.75-10.59 8.62-15.89.06-.12.15-.22.31-.44zm-.01 32.36c.23-.4.4-.65.54-.92 2.46-4.55 4.91-9.11 7.41-13.64.36-.66.33-1.14-.02-1.78-2.49-4.54-4.94-9.09-7.41-13.65-.14-.27-.31-.52-.52-.86-.2.34-.37.59-.51.86-2.48 4.58-4.94 9.17-7.45 13.74-.35.63-.3 1.09.03 1.69 2.48 4.54 4.94 9.1 7.4 13.65.15.27.31.53.54.93z" fill="url(#linear-gradient-25)"/><path d="M63.48 238.87c.18.3.33.53.46.76 2.77 5.12 5.53 10.24 8.32 15.35.29.54.33.95.03 1.5-2.82 5.17-5.62 10.35-8.42 15.53-.1.18-.21.35-.37.61-.17-.23-.33-.39-.43-.58-2.82-5.21-5.64-10.42-8.47-15.62-.23-.42-.32-.76-.06-1.23 2.9-5.32 5.78-10.66 8.67-15.98.05-.09.12-.16.27-.34zm-.02 32.3c.2-.33.37-.58.51-.84 2.48-4.58 4.95-9.17 7.45-13.74.34-.62.32-1.08-.01-1.69-2.5-4.57-4.97-9.16-7.45-13.74-.14-.26-.31-.5-.51-.82-.21.36-.37.62-.52.88-2.47 4.55-4.91 9.11-7.41 13.65-.36.65-.34 1.14 0 1.78 2.49 4.54 4.94 9.1 7.41 13.65.14.27.31.52.52.87z" fill="url(#linear-gradient-26)"/><path d="M257.25 238.83c.21.35.36.57.49.81l8.31 15.36c.26.48.38.86.08 1.41-2.86 5.22-5.69 10.47-8.53 15.71-.08.15-.18.28-.33.52-.19-.27-.35-.47-.47-.69-2.79-5.15-5.57-10.3-8.37-15.45-.26-.48-.35-.87-.06-1.41 2.86-5.23 5.69-10.47 8.53-15.71.08-.15.18-.29.34-.55zm0 1.49c-.22.38-.39.63-.53.9-2.47 4.55-4.92 9.11-7.41 13.65-.36.65-.35 1.13 0 1.78 2.49 4.54 4.94 9.09 7.41 13.65.14.27.31.52.52.87.21-.33.37-.58.51-.84 2.48-4.58 4.95-9.17 7.45-13.74.34-.62.33-1.08 0-1.69-2.52-4.6-5-9.22-7.5-13.83-.11-.21-.24-.41-.45-.76z" fill="url(#linear-gradient-27)"/><path d="M63.45 49.28c-.25-.45-.43-.74-.59-1.03-2.71-5-5.4-10-8.13-14.99-.35-.64-.38-1.13-.02-1.78 2.75-5.01 5.46-10.05 8.18-15.08.16-.3.34-.59.55-.96.19.29.35.5.47.73 2.79 5.15 5.57 10.3 8.37 15.45.27.49.33.88.04 1.41-2.84 5.2-5.65 10.41-8.47 15.62-.1.18-.21.34-.4.63zm0-1.52c.21-.33.37-.58.51-.84 2.48-4.58 4.95-9.17 7.45-13.74.34-.62.33-1.08 0-1.69-2.52-4.6-5-9.22-7.5-13.83-.12-.23-.28-.44-.47-.72-.2.34-.37.6-.51.87-2.46 4.55-4.91 9.11-7.41 13.65-.35.65-.35 1.13 0 1.78 2.49 4.54 4.94 9.09 7.41 13.65.14.27.31.52.52.88z" fill="url(#linear-gradient-28)"/><path d="M257.25 127.12c.22.39.38.65.53.92 2.74 5.06 5.47 10.12 8.23 15.17.33.61.35 1.07 0 1.69-2.76 5.05-5.49 10.11-8.23 15.17-.14.27-.31.52-.52.88-.19-.28-.36-.48-.48-.7-2.79-5.15-5.57-10.3-8.37-15.45-.26-.49-.34-.88-.05-1.41 2.86-5.23 5.69-10.47 8.52-15.71.08-.15.18-.29.35-.55zm0 1.5c-.22.38-.39.64-.53.91-2.47 4.55-4.92 9.11-7.41 13.64-.35.65-.35 1.13 0 1.78 2.48 4.5 4.91 9.03 7.36 13.55.16.3.34.59.56.98.21-.34.38-.59.52-.85 2.48-4.58 4.95-9.17 7.45-13.74.34-.62.33-1.08 0-1.69-2.5-4.57-4.97-9.16-7.45-13.74-.13-.24-.28-.47-.5-.85z" fill="url(#linear-gradient-29)"/><path d="M160.35 238.81c.22.38.4.67.56.96 2.74 5.06 5.47 10.12 8.22 15.17.28.51.4.92.08 1.5-2.84 5.2-5.65 10.41-8.48 15.62-.1.18-.22.34-.4.61-.21-.37-.39-.64-.54-.93-2.72-5.03-5.43-10.06-8.18-15.08-.36-.65-.36-1.13 0-1.78 2.75-5.01 5.46-10.05 8.18-15.08.16-.3.34-.59.57-.99zm0 1.51c-.22.38-.37.61-.5.85-2.48 4.58-4.95 9.17-7.45 13.74-.34.61-.34 1.07 0 1.69 2.5 4.57 4.97 9.16 7.45 13.74.14.26.31.5.51.84.21-.35.37-.61.52-.88 2.46-4.55 4.91-9.11 7.41-13.65.36-.65.36-1.14 0-1.78-2.49-4.54-4.94-9.09-7.41-13.65-.14-.27-.31-.52-.53-.9z" fill="url(#linear-gradient-30)"/><path d="M208.8 188.85c-.24-.41-.42-.69-.58-.98-2.71-5-5.4-10.01-8.13-15-.35-.65-.36-1.13 0-1.78 2.73-4.99 5.42-10 8.13-15 .16-.29.34-.58.57-.97.18.27.32.45.43.65l8.37 15.45c.26.49.36.88.06 1.42-2.86 5.23-5.69 10.48-8.52 15.72-.06.12-.15.23-.32.49zm-.01-1.51c.21-.33.35-.53.46-.73 2.51-4.64 5.02-9.29 7.55-13.91.31-.56.25-.99-.04-1.51-2.51-4.6-5-9.22-7.5-13.82-.12-.22-.29-.42-.48-.71-.17.26-.29.42-.38.59-2.53 4.67-5.05 9.35-7.6 14-.31.56-.25.98.04 1.51 2.49 4.57 4.97 9.16 7.45 13.74.13.24.28.46.51.84z" fill="url(#linear-gradient-31)"/><path d="M160.35 127.13c.2.34.36.57.48.8l8.31 15.36c.26.47.39.85.09 1.41-2.88 5.25-5.72 10.53-8.57 15.8-.06.12-.15.22-.28.41-.16-.22-.32-.38-.42-.57-2.82-5.21-5.64-10.42-8.47-15.62-.26-.48-.27-.84 0-1.32 2.85-5.23 5.68-10.47 8.52-15.71.08-.15.18-.29.35-.56zm0 32.36c.22-.38.39-.63.53-.9 2.46-4.55 4.91-9.11 7.41-13.64.36-.65.35-1.14 0-1.78-2.49-4.54-4.94-9.09-7.41-13.64-.14-.27-.31-.52-.52-.87-.2.33-.37.58-.51.84-2.48 4.58-4.95 9.17-7.45 13.74-.34.62-.33 1.08 0 1.69 2.5 4.57 4.97 9.16 7.45 13.74.13.24.28.47.5.85z" fill="url(#linear-gradient-32)"/><path d="M15.01 43.39c.23.37.37.6.5.83 2.76 5.09 5.5 10.19 8.28 15.27.32.59.31 1.02 0 1.6-2.76 5.05-5.49 10.12-8.23 15.18-.14.26-.31.51-.53.86-.21-.34-.38-.58-.52-.84-2.74-5.06-5.47-10.13-8.23-15.18-.31-.57-.37-1-.04-1.6 2.8-5.11 5.56-10.24 8.33-15.36.11-.21.24-.41.45-.77zm0 32.23c.17-.25.26-.35.33-.47 2.58-4.76 5.15-9.53 7.74-14.28.25-.45.22-.8-.02-1.23-2.57-4.72-5.12-9.46-7.69-14.19-.09-.16-.24-.29-.4-.48-.19.31-.34.54-.46.78-2.46 4.55-4.91 9.11-7.4 13.64-.36.65-.34 1.14.02 1.78 2.47 4.51 4.9 9.03 7.35 13.55.14.26.31.51.54.89z" fill="url(#linear-gradient-33)"/><path d="M111.91 43.4c.24.41.42.69.58.98 2.71 5 5.4 10.01 8.13 15 .35.64.36 1.13 0 1.78-2.73 4.99-5.42 10-8.13 15-.16.29-.34.58-.57.97-.18-.27-.32-.45-.43-.65l-8.37-15.45c-.26-.48-.36-.88-.06-1.42 2.86-5.23 5.69-10.48 8.52-15.72.06-.12.15-.23.32-.49zm-.01 32.21c.16-.22.23-.3.28-.39 2.59-4.79 5.18-9.59 7.79-14.37.25-.46.19-.81-.04-1.23-2.55-4.7-5.09-9.4-7.64-14.1-.1-.19-.27-.33-.43-.54-.13.2-.22.31-.28.43-2.56 4.73-5.11 9.47-7.7 14.19-.32.59-.18 1 .09 1.51 2.47 4.54 4.93 9.1 7.4 13.65.14.26.31.5.53.86z" fill="url(#linear-gradient-34)"/><path d="M208.78 77.14c-.21-.36-.36-.58-.48-.82-2.76-5.09-5.51-10.19-8.28-15.27-.29-.53-.33-.96-.02-1.51 2.81-5.14 5.59-10.3 8.38-15.45.11-.2.24-.38.43-.67.21.35.38.59.52.85l8.22 15.18c.25.46.44.84.13 1.42-2.88 5.26-5.72 10.54-8.57 15.81-.06.12-.15.22-.32.45zm.02-32.2c-.2.31-.35.52-.48.75-2.5 4.61-4.98 9.23-7.5 13.82-.33.6-.26 1.04.04 1.6 2.48 4.54 4.93 9.09 7.4 13.64.14.26.31.5.53.85.2-.31.36-.52.48-.75 2.5-4.61 4.98-9.23 7.51-13.82.33-.6.26-1.04-.05-1.6-2.48-4.54-4.93-9.1-7.4-13.64-.14-.26-.31-.5-.53-.85z" fill="url(#linear-gradient-35)"/><path d="M150.73 222.37h-1.13c-5.68-.15-11.37-.32-17.05-.45-.73-.02-1.17-.26-1.55-.89-2.97-4.89-5.98-9.75-8.97-14.62-.16-.26-.31-.53-.52-.89.28-.05.49-.12.71-.11 5.92.16 11.85.33 17.77.49.48.01.83.11 1.1.56 3.16 5.17 6.34 10.33 9.5 15.5.05.08.06.18.14.41zm-27.94-16.22c.12.27.18.42.26.56 2.85 4.64 5.71 9.27 8.54 13.92.25.41.55.53 1 .54 5.34.14 10.68.29 16.03.43.23 0 .46-.03.78-.06-.13-.29-.21-.5-.33-.7-2.78-4.52-5.57-9.04-8.33-13.57-.34-.56-.75-.69-1.34-.71-5.17-.13-10.34-.28-15.51-.42h-1.1z" fill="url(#linear-gradient-36)"/><path d="M150.8 110.67h-1.05c-5.75-.15-11.5-.32-17.26-.46-.63-.01-1.06-.17-1.42-.76-3.06-5.03-6.16-10.04-9.24-15.06-.1-.17-.18-.35-.32-.63.28-.03.47-.07.66-.07 5.92.16 11.85.34 17.77.49.58.01.92.2 1.23.7 3.08 5.06 6.19 10.1 9.29 15.15.09.14.16.3.34.63zm-1.37-.84c-.15-.3-.24-.51-.36-.7-2.78-4.52-5.57-9.04-8.33-13.57-.31-.52-.68-.67-1.24-.69-5.27-.13-10.55-.28-15.82-.42h-.86c.1.25.14.38.21.49 2.87 4.67 5.74 9.33 8.6 14.01.25.42.57.51 1.01.52 5.34.14 10.68.29 16.03.43.22 0 .45-.04.78-.07z" fill="url(#linear-gradient-37)"/><path d="M63.45 127.13c.2.31.35.52.48.76 2.79 5.15 5.57 10.3 8.37 15.44.28.5.3.89.02 1.41-2.82 5.17-5.62 10.36-8.42 15.53-.11.21-.25.39-.45.69-.21-.37-.39-.65-.55-.94-2.72-5.03-5.43-10.06-8.18-15.08-.36-.65-.35-1.13 0-1.78 2.75-5.01 5.46-10.05 8.18-15.08.16-.3.34-.59.55-.96zm.02 32.31c.14-.2.24-.34.32-.48 2.58-4.76 5.15-9.53 7.75-14.28.27-.5.2-.86-.05-1.32-2.56-4.7-5.1-9.4-7.65-14.1-.1-.19-.25-.35-.41-.58-.14.23-.24.37-.32.52-2.56 4.73-5.11 9.47-7.7 14.19-.29.54-.22.92.05 1.41 2.52 4.64 5.03 9.28 7.54 13.92.12.23.29.44.46.72z" fill="url(#linear-gradient-38)"/><path d="M247.69 222.36c-.67 0-1.17.01-1.68 0-5.48-.15-10.96-.32-16.44-.43-.87-.02-1.34-.32-1.78-1.05-2.93-4.83-5.9-9.64-8.86-14.45-.17-.28-.33-.58-.55-.97.34-.02.56-.06.79-.05 5.85.16 11.71.34 17.57.48.6.01.99.16 1.33.71 3.06 5.03 6.16 10.04 9.24 15.06.11.17.2.35.39.7zm-28.08-16.19c3.13 5.09 6.16 10.01 9.16 14.9 2.5.33 16.6.62 17.5.35-.15-.27-.28-.54-.44-.8-2.69-4.38-5.39-8.74-8.05-13.14-.41-.67-.86-.91-1.64-.93-4.83-.1-9.66-.25-14.48-.38-.61-.02-1.22 0-2.04 0z" fill="url(#linear-gradient-39)"/><path d="M53.9 222.35c-.87 0-1.58.02-2.29 0-5.27-.14-10.54-.31-15.82-.42-.87-.02-1.34-.33-1.78-1.05-2.93-4.83-5.9-9.64-8.86-14.45-.17-.28-.32-.58-.54-.97.34-.02.57-.06.79-.05 5.89.16 11.78.34 17.67.48.6.01.92.23 1.22.72 3.05 5 6.12 9.98 9.19 14.97.12.2.23.41.43.77zm-28.07-16.18c3.14 5.1 6.16 10.03 9.17 14.91 3.11.36 16.64.62 17.49.32-.13-.24-.25-.48-.39-.71-2.71-4.41-5.43-8.8-8.11-13.23-.41-.68-.88-.9-1.64-.91-4.83-.1-9.66-.25-14.48-.38-.61-.02-1.21 0-2.03 0z" fill="url(#linear-gradient-40)"/><path d="M15.02 155.09c.24.41.41.67.55.93 2.72 5.03 5.44 10.07 8.18 15.09.33.6.38 1.06.03 1.69-2.77 5.05-5.49 10.12-8.23 15.18-.14.26-.31.5-.53.85-.22-.35-.38-.59-.53-.85-2.74-5.06-5.47-10.13-8.23-15.18-.31-.57-.35-1.01-.03-1.6 2.8-5.11 5.56-10.24 8.33-15.36.11-.21.24-.4.45-.75zm.01 1.52c-.21.33-.35.52-.46.72-2.51 4.64-5.02 9.29-7.55 13.91-.3.56-.26.98.03 1.51 2.51 4.6 5 9.22 7.5 13.82.12.23.28.43.48.73.19-.3.32-.48.43-.69 2.51-4.64 5.02-9.29 7.55-13.91.3-.56.26-.98-.03-1.51-2.48-4.54-4.93-9.1-7.4-13.65-.15-.27-.31-.53-.55-.95z" fill="url(#linear-gradient-41)"/><path d="M111.92 155.13c.23.38.41.66.57.95 2.71 5 5.4 10.01 8.13 15 .35.64.38 1.13.02 1.78-2.73 4.99-5.43 10-8.13 15-.16.29-.34.58-.57.97-.2-.3-.36-.5-.48-.72-2.78-5.12-5.54-10.24-8.33-15.36-.26-.48-.37-.87-.07-1.42 2.84-5.2 5.65-10.42 8.47-15.63.09-.17.22-.32.39-.57zm-.01 1.52c-.17.26-.29.41-.39.58-2.55 4.7-5.08 9.41-7.65 14.09-.3.54-.2.94.06 1.42 2.51 4.61 5 9.22 7.5 13.83.12.23.28.44.48.75.17-.25.29-.41.39-.58 2.55-4.7 5.08-9.41 7.65-14.09.3-.54.2-.94-.06-1.42-2.51-4.61-5-9.22-7.5-13.83-.12-.23-.28-.44-.47-.75z" fill="url(#linear-gradient-42)"/><path d="M73.05 233.3c.65 0 1.16-.01 1.66 0 5.44.15 10.89.31 16.33.43.87.02 1.41.27 1.88 1.06 2.92 4.84 5.9 9.64 8.85 14.45.17.28.32.58.53.96-.35.02-.57.06-.8.05-5.86-.16-11.71-.33-17.56-.49-.54-.01-.94-.09-1.27-.63-3.12-5.12-6.26-10.22-9.4-15.32-.07-.11-.11-.24-.24-.51zm1.35.82c.18.34.3.61.45.86 2.72 4.44 5.46 8.86 8.16 13.31.35.57.73.79 1.39.8 5.17.12 10.34.27 15.51.41h1.11c-.12-.26-.18-.42-.26-.55-2.85-4.64-5.71-9.28-8.55-13.92-.25-.41-.54-.54-1-.55-5.37-.13-10.75-.29-16.13-.43-.19 0-.39.03-.7.06z" fill="url(#linear-gradient-43)"/><path d="M24.55 26.8c1.09-1.77 2.07-3.38 3.06-4.98 2.19-3.56 4.38-7.11 6.55-10.68.32-.52.67-.78 1.29-.79 5.92-.14 11.85-.31 17.77-.47.17 0 .34.02.61.03-.14.29-.22.53-.36.75-3.06 4.99-6.14 9.97-9.19 14.97-.33.54-.7.72-1.32.74-5.86.15-11.71.32-17.56.49-.23 0-.45-.03-.86-.05zm28.01-16.11c-.38-.02-.59-.04-.79-.04-5.34.14-10.68.3-16.03.42-.57.01-.85.25-1.12.69-2.77 4.53-5.55 9.05-8.33 13.57-.13.21-.22.46-.36.77h.63c5.38-.15 10.75-.3 16.13-.42.61-.01.91-.3 1.2-.77 2.73-4.47 5.48-8.93 8.22-13.39.14-.22.25-.46.45-.83z" fill="url(#linear-gradient-44)"/><path d="M73.02 9.89h1.13c5.68.15 11.37.32 17.05.45.76.02 1.23.24 1.64.93 2.98 4.92 6.01 9.81 9.02 14.71.14.23.26.46.45.8-.31.04-.53.09-.75.08-5.85-.16-11.71-.34-17.56-.48-.65-.02-1.05-.2-1.4-.77-3.02-4.97-6.08-9.93-9.13-14.89-.14-.22-.25-.46-.45-.82zm1.37.83c.15.3.24.51.35.7 2.78 4.52 5.57 9.04 8.33 13.57.31.51.67.68 1.24.69 5.31.13 10.61.28 15.92.42h.77c-.1-.25-.14-.38-.2-.49-2.87-4.67-5.74-9.33-8.6-14.01-.25-.41-.56-.52-1.01-.53-5.34-.14-10.68-.29-16.02-.43-.22 0-.45.04-.78.07z" fill="url(#linear-gradient-45)"/><path d="M199.2 26.82c-.31.02-.48.04-.65.04-5.92-.17-11.85-.34-17.77-.49-.58-.01-.93-.19-1.23-.69-3.1-5.09-6.23-10.16-9.35-15.23-.07-.12-.12-.24-.23-.45.25-.04.47-.11.68-.1 5.89.15 11.78.32 17.67.47.54.01.94.13 1.27.66 3.12 5.12 6.26 10.22 9.4 15.32.07.11.11.24.22.49zm-1.2-.72c-3.15-5.13-6.18-10.05-9.18-14.93-3.28-.37-16.65-.62-17.47-.32.06.12.1.25.17.36 2.83 4.61 5.68 9.21 8.49 13.84.33.54.74.62 1.28.63 5.2.13 10.41.28 15.61.42h1.11z" fill="url(#linear-gradient-46)"/><path d="M53.95 233.29c-.61 1-1.1 1.82-1.6 2.63-2.65 4.32-5.32 8.63-7.95 12.96-.38.63-.8.88-1.54.89-5.82.13-11.64.32-17.46.48h-.71c.08-.25.1-.44.2-.59 3.12-5.08 6.25-10.15 9.34-15.24.35-.57.78-.67 1.36-.68 4.14-.1 8.29-.2 12.43-.31 1.58-.04 3.15-.1 4.72-.15h1.21zM25.9 249.46c.25.03.35.06.45.05 5.48-.15 10.96-.3 16.44-.43.52-.01.79-.25 1.04-.67 2.79-4.56 5.59-9.1 8.39-13.66.11-.19.17-.41.28-.7h-1.03c-5.2.14-10.41.3-15.61.41-.64.01-.98.26-1.29.78-2.71 4.44-5.44 8.87-8.17 13.31-.16.26-.29.53-.5.9z" fill="url(#linear-gradient-47)"/><path d="M169.89 110.62c1.31-2.14 2.53-4.12 3.75-6.1 1.96-3.18 3.91-6.36 5.86-9.54.28-.45.54-.78 1.18-.79 5.99-.14 11.98-.32 17.98-.49.13 0 .27.02.5.04-.1.25-.16.47-.27.65-3.08 5.02-6.17 10.03-9.24 15.06-.29.48-.61.74-1.21.75-5.96.14-11.91.31-17.87.47-.16 0-.32-.02-.65-.05zm28.03-16.13c-.25-.03-.35-.05-.45-.05-5.48.15-10.96.3-16.44.43-.53.01-.79.26-1.04.67-2.79 4.55-5.59 9.1-8.39 13.66-.11.18-.16.41-.27.7h.93c5.24-.14 10.48-.3 15.72-.42.64-.01.97-.27 1.29-.78 2.73-4.47 5.48-8.93 8.22-13.4.14-.23.25-.47.44-.81z" fill="url(#linear-gradient-48)"/><path d="M218.4 250.21c.15-.3.24-.5.36-.7 3.06-4.99 6.14-9.97 9.19-14.97.32-.52.67-.77 1.3-.79 5.92-.14 11.85-.31 17.77-.47.17 0 .34.02.59.03-.11.26-.18.47-.3.66-3.08 5.02-6.17 10.03-9.24 15.06-.33.54-.71.71-1.32.73-5.86.15-11.71.32-17.56.49-.23 0-.45-.03-.79-.05zm1.23-.75c.33.03.46.05.59.05 5.44-.15 10.89-.3 16.33-.43.58-.01.84-.31 1.11-.74 2.75-4.5 5.52-8.99 8.28-13.48.13-.22.22-.46.39-.84-5.93.16-11.71.32-17.5.48-3.06 4.97-6.08 9.89-9.2 14.96z" fill="url(#linear-gradient-49)"/><path d="M218.4 93.76c.3-.03.5-.06.69-.06 5.92.16 11.85.34 17.77.49.54.01.87.17 1.16.64 3.1 5.09 6.23 10.16 9.35 15.23.09.14.15.29.28.54-.33.03-.58.07-.84.06-5.82-.15-11.64-.32-17.46-.46-.64-.02-1.05-.21-1.41-.79-3.02-4.97-6.08-9.93-9.13-14.89-.14-.22-.25-.46-.42-.78zm27.89 16.08c-.13-.28-.2-.5-.32-.69-2.78-4.52-5.57-9.04-8.33-13.57-.34-.56-.75-.69-1.34-.71-5.17-.13-10.34-.28-15.51-.41h-1.11c.12.26.17.42.26.55 2.85 4.64 5.71 9.27 8.55 13.92.25.41.54.54 1 .55 5.38.14 10.75.29 16.13.43.19 0 .39-.04.68-.06z" fill="url(#linear-gradient-50)"/><path d="M247.67 121.62c-.21.38-.35.65-.5.9-3.01 4.9-6.03 9.8-9.02 14.71-.36.59-.76.83-1.46.84-5.82.14-11.64.32-17.46.48-.23 0-.46-.02-.8-.04.13-.28.21-.5.33-.69 3.06-4.99 6.14-9.97 9.19-14.97.31-.51.65-.79 1.29-.81 5.96-.14 11.91-.31 17.87-.47.13 0 .27.02.58.04zm-18.85 1.18c-3.06 4.97-6.09 9.92-9.2 14.97.35.02.51.05.67.04 5.41-.15 10.82-.3 16.23-.43.57-.01.85-.28 1.12-.72 2.77-4.53 5.56-9.05 8.33-13.57.12-.19.18-.41.34-.77-5.91.16-11.69.32-17.49.48z" fill="url(#linear-gradient-51)"/><path d="M199.2 138.5c-.34.02-.56.06-.79.05-5.85-.16-11.71-.34-17.56-.49-.54-.01-.94-.09-1.27-.63-3.12-5.12-6.26-10.22-9.4-15.32-.07-.11-.11-.24-.21-.46.31-.03.57-.07.82-.07 5.82.15 11.64.32 17.46.46.64.02 1.05.21 1.41.79 3.04 5 6.12 9.98 9.19 14.97.12.19.21.4.36.7zm-1.33-.71c-.07-.21-.08-.32-.13-.4-2.88-4.7-5.77-9.39-8.65-14.1-.26-.42-.58-.5-1.02-.51-5.34-.14-10.68-.29-16.02-.43-.22 0-.44.04-.77.07.22.4.37.7.54.98 2.67 4.35 5.36 8.69 8 13.05.4.67.84.93 1.63.95 4.9.1 9.79.25 14.69.39.55.02 1.09 0 1.74 0z" fill="url(#linear-gradient-52)"/><path d="M102.33 138.56c-2.54-.06-4.9-.1-7.26-.17-3.7-.1-7.4-.23-11.09-.32-.6-.01-.99-.15-1.33-.71-3.08-5.06-6.19-10.1-9.29-15.15-.09-.14-.16-.3-.28-.54.27-.04.49-.1.7-.09 5.89.15 11.78.32 17.67.47.55.01.94.15 1.26.67 3.1 5.09 6.23 10.16 9.35 15.24.08.14.14.29.29.59zm-1.33-.75c-.1-.24-.13-.37-.19-.48-2.87-4.67-5.74-9.33-8.59-14.01-.25-.41-.56-.52-1-.53-5.34-.14-10.68-.29-16.03-.43-.22 0-.45.04-.78.06.14.29.23.51.34.7 2.78 4.52 5.57 9.04 8.32 13.58.35.57.76.68 1.35.69 5.17.13 10.34.28 15.51.42H101z" fill="url(#linear-gradient-53)"/><path d="M169.95 233.29h.96c5.75.16 11.5.32 17.26.45.73.02 1.17.26 1.55.9 3.01 4.95 6.05 9.87 9.08 14.8.12.2.24.41.4.71-.28.05-.49.12-.71.11-5.92-.16-11.85-.34-17.77-.5-.48-.01-.83-.11-1.1-.56-3.14-5.14-6.3-10.27-9.46-15.41-.07-.11-.11-.24-.22-.5zm27.96 16.2c-.12-.26-.16-.39-.23-.5-2.85-4.64-5.71-9.27-8.54-13.92-.27-.44-.59-.57-1.08-.58-5.31-.13-10.62-.28-15.92-.42-.25 0-.5.04-.86.08.22.4.38.7.55.98 2.67 4.35 5.36 8.68 8 13.05.41.67.86.92 1.64.93 4.86.1 9.72.25 14.59.38.58.02 1.15 0 1.87 0z" fill="url(#linear-gradient-54)"/><path d="M53.96 121.59c-1.32 2.16-2.52 4.11-3.72 6.06-1.97 3.21-3.95 6.41-5.91 9.63-.31.51-.64.77-1.29.79-5.92.14-11.85.32-17.77.49-.17 0-.34-.02-.6-.04.11-.26.16-.48.28-.66 3.08-5.02 6.17-10.03 9.24-15.06.33-.54.71-.74 1.32-.75 2.4-.04 4.79-.12 7.19-.19l10.07-.27h1.2zm-28.1 16.25c1.9-.06 3.61-.13 5.32-.18 3.8-.1 7.6-.2 11.4-.28.55-.01.94-.14 1.26-.67 2.78-4.56 5.58-9.11 8.38-13.66.11-.18.17-.41.28-.7h-.92c-5.24.14-10.48.3-15.72.41-.64.01-.98.26-1.29.78-2.71 4.44-5.44 8.87-8.17 13.31-.16.26-.29.53-.54.98z" fill="url(#linear-gradient-55)"/><path d="M102.37 93.75c-1.46 2.38-2.82 4.6-4.18 6.81-1.81 2.95-3.63 5.89-5.42 8.84-.31.52-.66.78-1.29.8-5.92.14-11.85.31-17.77.47-.17 0-.34-.02-.61-.03.14-.28.22-.53.36-.74 3.06-4.99 6.13-9.98 9.19-14.97.29-.48.6-.73 1.21-.74 5.92-.14 11.85-.32 17.77-.48.19 0 .39.03.77.05zm-10.49 15.7c3.07-4.98 6.12-9.92 9.19-14.96-.31-.03-.44-.06-.57-.05-5.44.15-10.89.3-16.33.43-.58.01-.84.3-1.11.74-2.75 4.5-5.52 8.99-8.28 13.48-.13.22-.22.46-.4.85 5.93-.16 11.71-.32 17.5-.48z" fill="url(#linear-gradient-56)"/><path d="M102.37 205.46c-1.44 2.35-2.79 4.54-4.13 6.73-1.83 2.98-3.67 5.94-5.48 8.93-.31.52-.66.78-1.29.8-5.92.14-11.85.31-17.77.47-.17 0-.34-.02-.61-.03.14-.28.22-.53.36-.74 3.06-4.99 6.14-9.97 9.18-14.97.33-.53.7-.73 1.31-.74 5.86-.14 11.71-.32 17.56-.48.23 0 .46.02.87.05zm-1.3.66c-1.87.06-3.54.13-5.22.18-3.8.1-7.6.2-11.4.28-.58.01-1.01.09-1.36.67-2.77 4.57-5.58 9.11-8.38 13.66-.11.18-.16.4-.27.7h.93c5.24-.14 10.48-.3 15.72-.42.64-.01.97-.27 1.29-.78 2.73-4.47 5.48-8.93 8.22-13.4.14-.23.25-.47.48-.89z" fill="url(#linear-gradient-57)"/><path d="M121.44 250.21c.84-1.36 1.57-2.56 2.3-3.75 2.44-3.97 4.89-7.93 7.31-11.91.31-.52.66-.79 1.29-.8 5.96-.14 11.92-.31 17.87-.47.13 0 .27.02.51.04-.13.28-.22.52-.35.74-3.06 4.99-6.14 9.97-9.19 14.97-.32.53-.69.73-1.31.74-5.86.15-11.71.32-17.56.49-.23 0-.46-.02-.88-.05zm1.3-.75c.32.03.45.06.58.06 5.44-.15 10.89-.3 16.33-.43.57-.01.84-.3 1.11-.73 2.75-4.5 5.52-8.99 8.28-13.48.13-.22.22-.46.4-.85-5.93.16-11.71.32-17.51.48-3.05 4.96-6.08 9.89-9.19 14.96z" fill="url(#linear-gradient-58)"/><path d="M199.25 205.47c-.36.6-.64 1.06-.93 1.53-2.89 4.7-5.78 9.39-8.66 14.09-.31.51-.64.8-1.28.81-5.96.14-11.92.31-17.87.47-.14 0-.27-.01-.5-.03.1-.24.15-.46.26-.64 3.1-5.05 6.2-10.09 9.3-15.15.25-.41.5-.66 1.04-.67 6.03-.15 12.05-.33 18.08-.49.13 0 .26.03.57.07zm-1.27.72c-.35-.02-.52-.05-.68-.04-5.41.15-10.82.3-16.23.43-.57.01-.84.28-1.12.73-2.77 4.53-5.56 9.04-8.33 13.57-.12.19-.18.41-.34.77 5.91-.16 11.68-.32 17.49-.48 3.05-4.96 6.08-9.88 9.2-14.97z" fill="url(#linear-gradient-59)"/><path d="M63.47 71.28c.22.37.39.66.55.95 2.72 5.03 5.43 10.06 8.18 15.08.35.65.36 1.13 0 1.78-2.75 5.01-5.46 10.05-8.18 15.08-.16.3-.34.59-.56.99-.22-.39-.4-.67-.56-.96-2.74-5.06-5.47-10.12-8.23-15.17-.31-.57-.35-1-.02-1.59 2.8-5.11 5.55-10.23 8.33-15.35.13-.24.28-.46.49-.79zm-.01 1.54c-.15.23-.28.39-.37.57-2.56 4.73-5.12 9.47-7.7 14.19-.27.49-.21.86.04 1.32 2.56 4.69 5.1 9.4 7.65 14.1.1.19.25.35.42.58.14-.23.24-.36.32-.51 2.56-4.73 5.12-9.47 7.7-14.19.29-.53.23-.92-.04-1.41-2.53-4.63-5.03-9.28-7.54-13.92-.13-.23-.29-.45-.46-.73z" fill="url(#linear-gradient-60)"/><path d="M121.45 26.8c1.16-1.88 2.21-3.61 3.27-5.32 2.12-3.44 4.24-6.88 6.34-10.33.31-.52.66-.78 1.29-.8 5.96-.14 11.91-.31 17.87-.47.13 0 .27.02.51.04-.13.28-.22.52-.35.74-3.06 4.99-6.13 9.97-9.19 14.97-.29.48-.6.73-1.21.74-5.92.14-11.85.32-17.77.49-.19 0-.39-.03-.77-.05zm10.48-15.7c-3.05 4.97-6.09 9.91-9.23 15.01h.89c5.31-.14 10.61-.3 15.92-.42.58-.01.92-.21 1.23-.72 2.76-4.53 5.55-9.05 8.33-13.57.12-.19.19-.41.36-.78-5.91.16-11.69.32-17.5.48z" fill="url(#linear-gradient-61)"/><path d="M218.34 26.79c.9-1.47 1.7-2.78 2.51-4.09 2.37-3.85 4.74-7.7 7.09-11.56.31-.51.65-.79 1.29-.81 5.96-.14 11.92-.31 17.87-.47.13 0 .27.02.52.03-.13.28-.21.52-.34.73-3.06 4.99-6.13 9.98-9.19 14.97-.29.47-.59.74-1.2.75-5.96.14-11.91.32-17.87.49-.16 0-.32-.03-.67-.06zm27.98-16.07c-.33-.03-.56-.07-.78-.07-5.34.14-10.68.3-16.02.43-.51.01-.8.19-1.06.62-2.8 4.59-5.62 9.16-8.44 13.75-.11.18-.16.4-.27.67h.72c5.31-.14 10.61-.3 15.92-.42.63-.01.98-.26 1.29-.78 2.73-4.47 5.48-8.93 8.22-13.4.14-.22.24-.46.41-.79z" fill="url(#linear-gradient-62)"/><path d="M73.03 65.71c6.5.18 12.86.35 19.26.53 3.34 5.44 6.67 10.85 10.08 16.41-.44.02-.69.05-.95.05-5.82-.15-11.64-.31-17.46-.46-.54-.01-.95-.12-1.27-.65-3.13-5.15-6.3-10.28-9.46-15.41-.05-.08-.08-.18-.2-.46zm1.37.87c.08.17.13.33.22.47 2.83 4.61 5.67 9.22 8.49 13.84.29.48.65.6 1.17.61 5.27.13 10.55.28 15.82.42.26 0 .52-.03.89-.05-.19-.35-.31-.62-.47-.88-2.69-4.38-5.4-8.74-8.06-13.14-.43-.71-.91-.97-1.71-.98-4.15-.07-8.29-.2-12.43-.29-1.26-.03-2.53 0-3.92 0z" fill="url(#linear-gradient-63)"/><path d="M53.92 65.77c-.21.36-.34.58-.48.81-3.03 4.93-6.07 9.86-9.08 14.8-.33.54-.67.85-1.36.87-5.86.13-11.71.3-17.57.45-.23 0-.46-.02-.8-.04.18-.35.3-.62.45-.87 3.03-4.93 6.06-9.86 9.08-14.8.28-.45.54-.77 1.18-.78 5.99-.13 11.99-.32 17.98-.48.13 0 .27.02.59.04zM25.87 81.93h.98c5.24-.14 10.48-.3 15.72-.42.69-.01 1.04-.28 1.37-.83 2.69-4.42 5.41-8.82 8.11-13.23.17-.28.31-.58.54-.99h-.94c-5.24.14-10.48.3-15.72.42-.67.02-1.04.27-1.38.83-2.72 4.48-5.48 8.93-8.22 13.4-.12.2-.23.41-.46.81z" fill="url(#linear-gradient-64)"/><path d="M247.7 54.82c-2.38-.05-4.57-.09-6.76-.15-3.9-.11-7.81-.24-11.71-.34-.57-.01-.93-.18-1.24-.69-3.07-5.03-6.16-10.04-9.24-15.06-.12-.19-.2-.41-.35-.73h1.12c5.72.15 11.44.31 17.16.45.64.01 1.06.19 1.41.77 3.06 5.03 6.16 10.04 9.24 15.06.1.17.19.34.37.68zm-1.35-.74c-.11-.27-.15-.4-.21-.51-2.85-4.64-5.71-9.28-8.54-13.93-.27-.44-.59-.58-1.08-.59-5.38-.13-10.75-.29-16.13-.43-.19 0-.38.04-.68.08.17.3.28.5.4.7 2.76 4.5 5.53 8.98 8.27 13.49.35.58.76.76 1.41.78 5.21.12 10.41.27 15.62.42h.96z" fill="url(#linear-gradient-65)"/><path d="M53.88 166.46c-.25.04-.38.07-.5.07-6.03-.17-12.05-.35-18.08-.49-.67-.01-.88-.39-1.15-.83-2.33-3.79-4.66-7.59-6.99-11.38-.66-1.08-1.33-2.16-1.99-3.24-.17-.28-.33-.58-.55-.99.4-.02.69-.06.98-.05 5.79.15 11.57.31 17.36.46.6.01 1 .18 1.33.73 3.1 5.09 6.23 10.16 9.35 15.24.07.11.12.24.25.48zm-1.33-.71c-.1-.23-.14-.39-.22-.52-2.85-4.64-5.7-9.28-8.54-13.93-.25-.4-.55-.53-1-.55-5.38-.14-10.76-.29-16.13-.43-.21 0-.42.06-.72.1.21.36.35.63.51.89 2.6 4.23 5.2 8.47 7.81 12.69.94 1.52.44 1.3 2.41 1.36 4.66.14 9.32.26 13.97.39.61.02 1.21 0 1.92 0z" fill="url(#linear-gradient-66)"/><path d="M150.8 166.54c-6.53-.18-12.89-.36-19.27-.54-3.35-5.45-6.67-10.86-10.11-16.44h1.3c5.68.15 11.37.31 17.05.46.57.01 1.01.07 1.37.66 3.11 5.12 6.26 10.22 9.4 15.32.07.11.11.24.26.54zm-27.96-16.09c.13.23.21.41.32.58 2.78 4.52 5.57 9.04 8.33 13.58.32.53.7.74 1.31.76 5.28.13 10.55.28 15.83.42.25 0 .5-.04.83-.06-.13-.25-.19-.41-.28-.55-2.81-4.58-5.64-9.16-8.43-13.76-.32-.52-.69-.65-1.25-.67-3.42-.08-6.85-.22-10.28-.29-2.08-.04-4.17 0-6.38 0z" fill="url(#linear-gradient-67)"/><path d="M169.89 166.47c1.55-2.51 3-4.88 4.45-7.24 1.74-2.83 3.49-5.65 5.21-8.49.27-.45.56-.71 1.12-.72 6.03-.14 12.05-.31 18.08-.46.1 0 .2.03.4.06-.12.27-.2.51-.33.73-3.06 4.99-6.14 9.98-9.19 14.97-.29.48-.61.71-1.21.73-5.92.14-11.85.32-17.77.48-.2 0-.39-.03-.76-.05zm1.34-.69h1.01c5.21-.14 10.41-.3 15.62-.42.66-.01 1.05-.24 1.39-.81 2.71-4.45 5.44-8.88 8.17-13.31.15-.25.28-.52.46-.87-.37-.02-.64-.05-.9-.04-5.27.14-10.55.3-15.82.42-.59.01-.92.22-1.22.71-2.75 4.5-5.52 8.99-8.28 13.49-.14.22-.24.47-.43.83z" fill="url(#linear-gradient-68)"/><path d="M247.66 166.47c-.29.03-.49.06-.68.06-5.92-.16-11.85-.34-17.77-.49-.52-.01-.87-.13-1.17-.62-3.12-5.12-6.27-10.22-9.4-15.32-.07-.11-.11-.24-.21-.45.28-.03.5-.09.71-.08 5.89.15 11.78.31 17.67.46.51.01.89.12 1.18.61 3.14 5.14 6.3 10.27 9.46 15.41.06.11.11.22.21.42zm-27.97-16.14c.14.3.18.42.25.54 2.83 4.61 5.68 9.22 8.49 13.84.32.53.72.64 1.27.65 5.28.14 10.55.29 15.83.43.25 0 .5-.04.82-.07-.13-.25-.2-.41-.28-.55-2.81-4.58-5.64-9.16-8.43-13.75-.32-.53-.71-.64-1.26-.65-5.24-.13-10.48-.28-15.72-.42h-.96z" fill="url(#linear-gradient-69)"/><path d="M73.03 278.17c.18-.33.3-.56.44-.78 3.03-4.93 6.07-9.85 9.08-14.8.35-.58.73-.87 1.45-.89 5.75-.12 11.51-.29 17.26-.45h1.03c-.16.34-.25.58-.38.8-3.04 4.96-6.1 9.92-9.13 14.89-.34.56-.72.78-1.39.8-5.86.14-11.71.31-17.56.48-.23 0-.45-.03-.8-.05zm28.02-16.1c-.4-.02-.64-.05-.87-.05-5.31.14-10.62.3-15.93.42-.6.01-.92.25-1.21.73-2.75 4.5-5.52 8.99-8.28 13.49-.14.22-.23.47-.39.78.3.02.5.04.69.04 5.34-.14 10.69-.3 16.03-.42.66-.01.97-.33 1.27-.83 2.59-4.24 5.2-8.47 7.8-12.7.27-.43.52-.87.88-1.46z" fill="url(#linear-gradient-70)"/><path d="M150.77 278.18c-.3.02-.49.06-.68.05-5.92-.16-11.85-.34-17.77-.49-.53-.01-.87-.14-1.17-.62-3.1-5.09-6.23-10.16-9.35-15.23-.09-.14-.15-.3-.27-.54.29-.03.51-.08.73-.08 5.89.15 11.78.31 17.67.46.51.01.88.13 1.18.62 3.14 5.14 6.3 10.27 9.46 15.41.07.11.11.22.2.42zm-27.96-16.09c.14.26.22.44.32.61 2.8 4.55 5.6 9.1 8.38 13.67.31.51.67.68 1.25.7 5.34.13 10.69.28 16.03.43.19 0 .38-.03.6-.04-.05-.18-.05-.29-.1-.37-2.88-4.7-5.77-9.4-8.65-14.11-.26-.42-.58-.5-1.02-.51-5.34-.14-10.69-.29-16.03-.43-.22 0-.45.04-.78.07z" fill="url(#linear-gradient-71)"/><path d="M150.79 121.62c-.25.43-.41.72-.58 1.01-2.97 4.84-5.97 9.68-8.91 14.54-.41.68-.87.89-1.64.91-5.75.13-11.5.31-17.25.47-.26 0-.52-.02-.9-.04.19-.36.32-.62.47-.87 3.03-4.93 6.07-9.86 9.08-14.8.32-.52.67-.78 1.3-.79 5.92-.14 11.85-.31 17.77-.47.17 0 .33.02.67.04zm-1.38.81c-.26-.04-.42-.08-.57-.08-5.44.15-10.89.3-16.33.43-.5.01-.73.26-.95.63-2.81 4.58-5.63 9.16-8.44 13.74-.11.18-.16.4-.26.66h.72c5.31-.14 10.61-.3 15.92-.42.64-.01.97-.27 1.29-.79 2.73-4.47 5.48-8.93 8.22-13.4.13-.22.24-.46.4-.78z" fill="url(#linear-gradient-72)"/><path d="M218.4 261.26h1.12c5.72.15 11.44.31 17.16.46.57.01 1.01.09 1.36.68 3.11 5.12 6.26 10.22 9.4 15.33.07.11.11.23.21.44-.29.03-.52.07-.74.06-5.85-.16-11.71-.34-17.56-.48-.59-.01-1-.12-1.34-.68-3.06-5.03-6.16-10.04-9.24-15.06-.12-.19-.2-.41-.35-.74zm1.3.77c.13.29.17.41.24.52 2.83 4.61 5.68 9.22 8.49 13.84.32.53.71.65 1.26.66 5.27.13 10.55.29 15.83.43.25 0 .5-.04.83-.07-.13-.25-.19-.41-.28-.55-2.81-4.58-5.64-9.16-8.43-13.75-.32-.52-.7-.65-1.25-.66-5.21-.13-10.41-.28-15.62-.42h-1.06z" fill="url(#linear-gradient-73)"/><path d="M121.53 37.88c.89 0 1.64-.02 2.39 0 5.24.14 10.48.3 15.72.41.82.02 1.28.31 1.7 1 2.99 4.92 6.01 9.81 9.03 14.71.12.2.24.41.4.71-.27.04-.49.11-.7.1-5.92-.16-11.85-.33-17.77-.49-.47-.01-.82-.09-1.1-.55-3.14-5.14-6.3-10.27-9.46-15.41-.07-.11-.1-.24-.21-.49zm1.27.75c.14.3.19.43.26.54 2.83 4.61 5.68 9.22 8.5 13.84.29.48.64.63 1.17.65 5.34.13 10.69.29 16.03.43.21 0 .42-.05.69-.09-.1-.21-.15-.34-.22-.46-2.83-4.61-5.68-9.22-8.49-13.84-.32-.53-.72-.63-1.26-.64-5.21-.13-10.41-.28-15.62-.42h-1.05z" fill="url(#linear-gradient-74)"/><path d="M73 54.83c.23-.4.35-.63.49-.86 3.01-4.9 6.04-9.79 9.02-14.71.4-.67.84-.94 1.63-.96 5.65-.12 11.3-.29 16.95-.44h1.23c-.2.39-.32.66-.47.91-3.01 4.9-6.03 9.8-9.03 14.71-.35.58-.73.85-1.45.87-5.86.13-11.71.31-17.56.48h-.8zm1.32-.75h.7c5.34-.15 10.69-.3 16.03-.43.63-.02.98-.26 1.3-.78 2.71-4.45 5.45-8.88 8.17-13.31.16-.25.29-.52.51-.89-.42-.02-.71-.05-1.01-.04-5.24.14-10.48.3-15.72.42-.64.01-.97.27-1.29.78-2.71 4.45-5.44 8.88-8.17 13.32-.16.25-.29.52-.52.94z" fill="url(#linear-gradient-75)"/><path d="M53.92 54.82c-2.41-.05-4.64-.09-6.86-.15-3.87-.11-7.74-.24-11.61-.33-.57-.01-.93-.18-1.24-.68-3.07-5.03-6.16-10.04-9.24-15.06-.12-.19-.2-.41-.35-.73h1.12c5.72.15 11.44.31 17.16.45.64.01 1.05.19 1.41.77 3.06 5.03 6.16 10.04 9.24 15.06.1.17.19.34.38.68zM25.91 38.63c.14.3.19.43.26.54 2.83 4.61 5.68 9.22 8.5 13.84.29.47.64.63 1.17.65 5.34.13 10.69.29 16.03.43.21 0 .42-.05.69-.09-.1-.22-.15-.34-.22-.46-2.83-4.61-5.68-9.22-8.49-13.84-.32-.53-.72-.63-1.26-.64-5.21-.13-10.41-.28-15.62-.42h-1.05z" fill="url(#linear-gradient-76)"/><path d="M24.58 194.36c.26-.46.42-.75.6-1.04 2.98-4.84 5.96-9.68 8.92-14.53.35-.58.72-.86 1.44-.88 5.82-.13 11.64-.31 17.46-.46.26 0 .52.03.88.05-.15.27-.24.45-.35.61-3.09 5.02-6.18 10.03-9.25 15.06-.32.53-.68.76-1.3.78-5.86.14-11.71.3-17.57.46-.23 0-.46-.02-.86-.04zm1.36-.78c.34.02.57.06.8.05 5.31-.14 10.62-.3 15.93-.42.59-.01.92-.24 1.22-.72 2.75-4.5 5.52-8.99 8.28-13.49.14-.22.24-.47.4-.79-.3-.02-.49-.05-.69-.04-5.34.14-10.69.3-16.03.42-.65.01-.97.31-1.28.82-2.71 4.44-5.45 8.87-8.18 13.31-.15.25-.27.52-.45.86z" fill="url(#linear-gradient-77)"/><path d="M247.71 177.49c-1.94 3.15-3.78 6.16-5.62 9.16-1.31 2.13-2.64 4.25-3.92 6.4-.37.63-.8.9-1.54.91-3.29.05-6.58.16-9.86.25-2.4.06-4.79.13-7.19.2h-1.17c.18-.35.29-.62.44-.86 3.04-4.96 6.1-9.92 9.13-14.89.29-.48.61-.72 1.21-.73 5.92-.14 11.85-.32 17.77-.48.2 0 .39.02.75.05zm-1.32.68h-.7c-5.34.15-10.69.3-16.03.43-.63.01-.98.26-1.3.78-2.75 4.5-5.52 8.99-8.28 13.49-.12.2-.22.4-.4.72.42.02.71.05 1 .04 5.21-.14 10.41-.3 15.62-.41.73-.01 1.1-.3 1.45-.88 2.67-4.39 5.37-8.76 8.06-13.14.17-.28.32-.58.57-1.04z" fill="url(#linear-gradient-78)"/><path d="M63.48 216.83c-.2-.31-.35-.53-.48-.77-2.79-5.15-5.57-10.3-8.37-15.44-.28-.51-.29-.9 0-1.41 2.82-5.17 5.62-10.36 8.42-15.53.11-.21.26-.39.45-.68.21.37.39.65.55.95 2.72 5.03 5.43 10.06 8.18 15.08.36.65.35 1.14 0 1.78-2.75 5.01-5.46 10.05-8.18 15.08-.16.3-.34.58-.55.95zm-.03-1.51c.16-.23.25-.33.31-.45 2.6-4.79 5.18-9.59 7.79-14.37.28-.51.16-.87-.08-1.32-2.52-4.64-5.03-9.28-7.54-13.92-.13-.24-.29-.46-.48-.77-.21.37-.39.66-.55.95-2.45 4.52-4.88 9.05-7.36 13.55-.39.7-.34 1.21.03 1.88 2.48 4.51 4.91 9.03 7.36 13.55.15.27.31.53.53.9z" fill="url(#linear-gradient-79)"/><path d="M160.35 216.86c-.22-.39-.4-.68-.56-.97-2.72-5.03-5.43-10.06-8.18-15.08-.35-.64-.37-1.13 0-1.78 2.75-5.01 5.46-10.05 8.18-15.08.16-.29.33-.58.57-.99.23.4.41.69.57.98 2.72 5.03 5.43 10.06 8.18 15.08.36.65.35 1.13 0 1.78-2.75 5.01-5.46 10.05-8.18 15.08-.16.3-.34.58-.56.98zm.01-32.38c-.17.26-.27.39-.35.54-2.58 4.76-5.15 9.53-7.75 14.28-.27.5-.18.87.07 1.32 2.54 4.67 5.06 9.34 7.59 14.01.11.21.25.4.43.68.2-.32.36-.57.51-.83 2.48-4.58 4.94-9.17 7.45-13.74.34-.62.32-1.08-.02-1.69-2.49-4.54-4.94-9.1-7.4-13.65-.15-.27-.31-.53-.54-.93z" fill="url(#linear-gradient-80)"/><path d="M53.91 110.67h-1.12c-5.72-.15-11.44-.31-17.15-.46-.62-.02-1.07-.13-1.44-.73-3.08-5.06-6.19-10.1-9.29-15.15-.09-.14-.15-.29-.28-.54.33-.03.58-.08.83-.08 5.82.16 11.64.34 17.46.48.65.02 1.05.18 1.4.77 3 4.95 6.05 9.87 9.08 14.8.16.25.29.52.51.92zm-28.08-16.2l9.16 14.9c2.67.34 16.62.62 17.49.34-.15-.27-.29-.54-.44-.8-2.69-4.38-5.39-8.74-8.05-13.14-.41-.67-.86-.91-1.64-.92-4.83-.1-9.66-.25-14.48-.38-.61-.02-1.22 0-2.04 0z" fill="url(#linear-gradient-81)"/><path d="M199.18 261.3c-.16.32-.25.56-.39.78-3.04 4.96-6.1 9.92-9.13 14.89-.31.51-.66.76-1.29.78-5.92.14-11.85.32-17.77.49-.17 0-.34-.01-.61-.03.11-.26.18-.47.29-.65 3.08-5.02 6.17-10.03 9.24-15.06.29-.47.59-.76 1.2-.77 5.92-.14 11.85-.31 17.77-.46.19 0 .39.02.69.04zm-27.95 16.18h1.01c5.21-.14 10.41-.3 15.62-.41.66-.02 1.05-.24 1.39-.81 2.71-4.45 5.44-8.88 8.17-13.31.15-.25.28-.52.46-.87-.37-.02-.63-.05-.9-.04-5.28.14-10.55.3-15.83.42-.59.01-.92.22-1.22.72-2.75 4.5-5.52 8.99-8.28 13.49-.14.22-.24.47-.43.83z" fill="url(#linear-gradient-82)"/><path d="M218.41 82.66c.19-.36.31-.62.46-.88 3.03-4.93 6.06-9.86 9.08-14.8.28-.46.56-.76 1.19-.77 5.99-.13 11.99-.31 17.98-.48.13 0 .27.02.5.04-.12.25-.19.46-.3.64-3.08 5.02-6.17 10.04-9.25 15.06-.29.48-.6.75-1.2.76-5.92.14-11.85.31-17.77.46-.19 0-.38-.02-.69-.04zm1.28-.78c.3.04.44.07.57.06 5.45-.15 10.89-.31 16.34-.44.53-.01.79-.26 1.04-.67 2.79-4.56 5.59-9.11 8.39-13.66.12-.19.18-.41.29-.69H245c-5.03.14-10.07.29-15.1.4-.78.02-1.22.28-1.63.95-2.66 4.39-5.37 8.76-8.06 13.14-.16.25-.3.52-.52.9z" fill="url(#linear-gradient-83)"/><path d="M24.52 261.26h1.2c5.72.15 11.44.31 17.15.46.56.01 1.01.07 1.37.66 3.11 5.12 6.26 10.22 9.4 15.33.07.11.11.24.25.51-6.48-.12-12.86-.33-19.27-.52-3.34-5.44-6.67-10.85-10.1-16.43zm28.04 16.22c-.11-.26-.15-.39-.21-.5-2.85-4.64-5.71-9.28-8.54-13.93-.27-.44-.59-.58-1.08-.59-5.34-.13-10.69-.29-16.03-.43-.22 0-.44.04-.78.07.17.3.28.5.4.7 2.76 4.5 5.53 8.98 8.27 13.49.35.58.77.76 1.41.77 5.1.12 10.21.27 15.31.41.38.01.75 0 1.26 0z" fill="url(#linear-gradient-84)"/><path d="M257.23 216.82c-.22-.38-.38-.64-.52-.91-2.74-5.06-5.46-10.12-8.23-15.17-.34-.62-.33-1.08 0-1.69 2.78-5.08 5.52-10.17 8.28-15.26.13-.24.28-.46.47-.78.19.28.35.48.47.71 2.79 5.15 5.57 10.3 8.36 15.45.24.44.37.81.09 1.32-2.89 5.29-5.75 10.59-8.62 15.89-.06.12-.16.22-.31.44zm.02-32.29c-.12.17-.22.26-.28.38-2.61 4.82-5.21 9.65-7.84 14.46-.27.49-.12.83.1 1.23 2.55 4.7 5.09 9.4 7.64 14.1.1.19.25.35.41.56.13-.19.21-.3.28-.42 2.58-4.76 5.15-9.53 7.74-14.28.26-.48.27-.84 0-1.33-2.54-4.66-5.07-9.34-7.6-14.01-.12-.23-.28-.44-.46-.7z" fill="url(#linear-gradient-85)"/><path d="M121.47 194.36c.28-.48.46-.8.65-1.12 2.96-4.81 5.93-9.62 8.86-14.45.38-.63.8-.87 1.54-.89 5.79-.13 11.57-.3 17.36-.46.26 0 .52.02.92.04-.18.3-.29.5-.41.69-3.07 4.99-6.14 9.97-9.19 14.97-.32.52-.66.78-1.29.79-5.86.14-11.71.3-17.57.46-.23 0-.46-.02-.88-.04zm1.27-.73h1c5.24-.14 10.48-.3 15.72-.41.68-.01 1.04-.27 1.37-.82 2.69-4.42 5.41-8.82 8.11-13.23.17-.28.31-.58.52-.96-.32-.02-.52-.04-.71-.04-5.34.14-10.69.3-16.03.42-.66.01-.97.32-1.27.83-2.59 4.24-5.2 8.46-7.8 12.7-.27.43-.53.87-.92 1.51z" fill="url(#linear-gradient-86)"/><path d="M169.92 54.78c.16-.29.25-.47.35-.63 3.08-5.02 6.18-10.03 9.24-15.06.32-.53.68-.76 1.3-.78 5.86-.14 11.71-.3 17.57-.46.23 0 .46.02.8.04-.15.32-.25.57-.38.78-3.04 4.96-6.1 9.92-9.14 14.88-.28.45-.54.77-1.18.79-5.99.13-11.98.32-17.97.49-.13 0-.27-.02-.58-.04zm1.29-.7h.7c5.34-.15 10.69-.3 16.03-.43.63-.01.98-.27 1.3-.79 2.73-4.47 5.48-8.93 8.22-13.4.14-.22.25-.46.43-.79-.37-.02-.63-.06-.89-.05-5.28.14-10.55.3-15.83.42-.64.01-.97.28-1.28.79-2.71 4.45-5.45 8.88-8.17 13.31-.16.25-.29.52-.51.94z" fill="url(#linear-gradient-87)"/><path d="M169.95 65.78c.26-.02.42-.06.59-.05 5.99.17 11.98.34 17.98.49.45.01.75.14 1 .55 3.14 5.14 6.3 10.28 9.46 15.41.07.11.11.24.2.46-.36.02-.65.06-.94.05-5.79-.15-11.57-.31-17.36-.46-.54-.01-.95-.1-1.28-.63-3.15-5.18-6.34-10.34-9.51-15.5-.04-.06-.05-.12-.14-.32zm27.93 16.09c-.18-.34-.3-.61-.46-.86-2.71-4.41-5.43-8.8-8.11-13.23-.38-.63-.82-.88-1.55-.9-5.14-.12-10.27-.27-15.41-.41h-1.07c.09.24.11.37.18.48 2.87 4.67 5.74 9.34 8.6 14.01.25.41.57.52 1.01.53 5.38.14 10.75.29 16.13.44.19 0 .39-.04.68-.07z" fill="url(#linear-gradient-88)"/><path d="M73.01 177.44c2.48.05 4.77.09 7.06.16 3.77.1 7.53.24 11.3.32.65.01 1.05.19 1.4.77 3.01 4.95 6.04 9.87 9.07 14.8.15.25.27.52.48.91h-1.13c-5.72-.15-11.44-.31-17.16-.46-.57-.01-1.01-.09-1.36-.67-3.11-5.12-6.26-10.22-9.4-15.33-.07-.11-.12-.23-.26-.5zm1.33.75c.16.32.24.51.34.68 2.8 4.55 5.61 9.1 8.38 13.66.31.51.67.67 1.24.68 5.27.13 10.55.28 15.82.42.26 0 .51-.04.89-.07-.19-.33-.31-.57-.45-.79-2.73-4.43-5.47-8.86-8.17-13.31-.39-.65-.85-.85-1.57-.87-5.07-.11-10.14-.26-15.21-.4h-1.29z" fill="url(#linear-gradient-89)"/><path d="M121.49 82.66c.23-.43.38-.72.56-1.01 2.99-4.87 6-9.74 8.97-14.62.37-.61.78-.81 1.47-.82 5.79-.13 11.57-.31 17.36-.47h.94c-.17.31-.26.51-.38.71-3.07 4.99-6.14 9.97-9.19 14.97-.31.51-.63.81-1.28.82-5.92.14-11.85.3-17.77.46-.17 0-.34-.02-.68-.04zm28-16.15c-.32-.02-.49-.04-.66-.04-5.38.15-10.75.3-16.13.43-.6.01-.92.27-1.21.75-2.77 4.53-5.56 9.05-8.33 13.57-.12.19-.18.41-.31.7h1.12c5.1-.14 10.2-.3 15.31-.4.78-.02 1.22-.27 1.63-.94 2.64-4.37 5.33-8.7 8-13.05.18-.29.33-.59.58-1.03z" fill="url(#linear-gradient-90)"/><path d="M102.38 149.6c-3.41 5.55-6.74 10.96-10.08 16.41-6.39.18-12.75.35-19.24.54.17-.35.26-.58.39-.8 3.04-4.96 6.1-9.91 9.13-14.88.33-.55.69-.83 1.37-.85 5.82-.13 11.64-.3 17.46-.45.26 0 .52.02.97.04zm-1.35.77c-.31-.03-.45-.06-.58-.06-5.45.15-10.89.31-16.34.43-.6.01-.83.36-1.08.77-2.74 4.47-5.49 8.93-8.23 13.4-.15.25-.26.51-.43.83.27.02.4.04.54.04 5.41-.15 10.82-.3 16.24-.43.62-.01.91-.3 1.2-.77 2.75-4.5 5.52-8.99 8.28-13.49.12-.2.23-.4.41-.72z" fill="url(#linear-gradient-91)"/><path d="M160.34 105.12c-.22-.38-.38-.63-.52-.9-2.74-5.06-5.46-10.12-8.23-15.17-.34-.62-.34-1.07 0-1.69 2.78-5.08 5.52-10.17 8.28-15.26.13-.24.28-.46.47-.79.19.28.35.48.47.71 2.79 5.15 5.57 10.3 8.36 15.45.24.44.38.81.1 1.32-2.89 5.29-5.75 10.59-8.62 15.89-.06.12-.15.22-.31.44zm.01-1.52c.15-.22.25-.36.33-.5 2.58-4.76 5.15-9.53 7.75-14.28.27-.5.2-.86-.05-1.32-2.54-4.66-5.06-9.34-7.59-14.01-.12-.22-.28-.41-.47-.67-.2.33-.34.56-.47.8-2.48 4.58-4.95 9.17-7.45 13.74-.33.61-.34 1.07 0 1.69 2.51 4.57 4.97 9.16 7.45 13.74.14.26.31.5.5.82z" fill="url(#linear-gradient-92)"/><path d="M257.23 105.12c-.22-.37-.38-.63-.52-.9-2.74-5.06-5.47-10.12-8.23-15.17-.34-.61-.34-1.07 0-1.69 2.78-5.08 5.52-10.17 8.28-15.26.13-.24.28-.46.47-.79.19.28.35.48.47.71 2.79 5.15 5.57 10.3 8.36 15.45.24.44.38.81.1 1.32-2.89 5.29-5.75 10.59-8.62 15.89-.06.12-.15.22-.31.44zm.03-32.34c-.16.24-.26.38-.34.52-2.58 4.76-5.15 9.53-7.75 14.28-.27.5-.2.87.05 1.32 2.56 4.7 5.1 9.4 7.65 14.1.1.19.25.35.42.57.18-.3.31-.5.42-.7 2.5-4.61 4.98-9.23 7.5-13.83.34-.62.33-1.08 0-1.69-2.5-4.57-4.97-9.16-7.45-13.74-.13-.24-.28-.47-.49-.83z" fill="url(#linear-gradient-93)"/><path d="M199.2 194.36c-1.02 0-1.9.02-2.79 0-5.1-.14-10.2-.3-15.31-.41-.8-.02-1.29-.26-1.72-.97-2.94-4.86-5.94-9.7-8.91-14.54-.17-.28-.34-.57-.56-.94.28-.03.44-.07.6-.07 5.99.16 11.98.34 17.98.49.5.01.8.19 1.06.62 3.12 5.11 6.27 10.22 9.4 15.32.07.11.11.24.24.5zm-27.96-16.17c.16.31.23.5.33.67 2.8 4.55 5.6 9.1 8.38 13.66.31.51.67.67 1.24.69 5.27.13 10.55.28 15.82.42.26 0 .51-.03.89-.06-.21-.36-.35-.63-.5-.88-2.69-4.38-5.4-8.74-8.06-13.14-.43-.72-.93-.95-1.73-.96-4.9-.11-9.79-.26-14.69-.39-.51-.01-1.02 0-1.7 0z" fill="url(#linear-gradient-94)"/><path d="M111.94 133.04c-.26-.42-.43-.67-.57-.93-2.74-5.06-5.47-10.13-8.23-15.18-.29-.52-.37-.93-.06-1.5 2.81-5.14 5.59-10.3 8.38-15.45.11-.2.24-.39.47-.76 3.09 5.71 6.12 11.29 9.16 16.91-3.02 5.59-6.04 11.16-9.15 16.91zm-8.37-16.98c.9 2.12 7.86 14.77 8.45 15.33 2.76-5.1 5.51-10.18 8.26-15.27-2.78-5.13-5.52-10.2-8.37-15.46-2.86 5.28-5.6 10.35-8.34 15.4z" fill="url(#linear-gradient-95)"/><path d="M199.62 116.13c3.03-5.59 6.04-11.16 9.11-16.84.2.24.36.39.46.58 2.83 5.21 5.64 10.43 8.47 15.63.21.38.3.7.06 1.13-2.9 5.32-5.78 10.66-8.67 15.99-.04.08-.13.14-.31.34-3.06-5.65-6.08-11.23-9.12-16.84zm9.18 15.46c2.86-5.29 5.62-10.39 8.35-15.43-1.77-3.71-7.8-14.65-8.46-15.31-2.76 5.1-5.51 10.18-8.26 15.27 2.77 5.12 5.52 10.19 8.37 15.46z" fill="url(#linear-gradient-96)"/><path d="M15.02 99.16c3.12 5.76 6.13 11.32 9.18 16.97-3.01 5.57-6.04 11.16-9.08 16.77-.61-.61-8.18-14.39-9.26-16.83 3-5.54 6.02-11.13 9.15-16.91zm8.37 16.97c-2.77-5.12-5.52-10.2-8.37-15.46-2.85 5.27-5.6 10.35-8.33 15.4.85 2.01 7.85 14.76 8.44 15.34 2.75-5.07 5.48-10.13 8.26-15.27z" fill="url(#linear-gradient-97)"/><path d="M208.84 210.93c3.11 5.75 6.12 11.32 9.14 16.9-3.03 5.6-6.05 11.17-9.13 16.86-.22-.31-.38-.5-.5-.72-2.79-5.15-5.58-10.3-8.38-15.45-.25-.46-.31-.82-.04-1.32 2.84-5.2 5.65-10.42 8.47-15.63.09-.17.21-.33.43-.64zm-.04 32.37c2.86-5.29 5.61-10.37 8.34-15.42-1.38-3.06-7.88-14.81-8.47-15.29-2.75 5.09-5.5 10.17-8.24 15.24 2.78 5.13 5.51 10.19 8.37 15.46z" fill="url(#linear-gradient-98)"/><path d="M111.97 210.98c3.07 5.68 6.09 11.25 9.12 16.85-3.02 5.59-6.04 11.16-9.11 16.83-.2-.24-.36-.39-.46-.58-2.83-5.21-5.64-10.42-8.47-15.63-.21-.38-.3-.7-.06-1.13 2.9-5.32 5.78-10.66 8.67-15.99.04-.08.13-.15.31-.35zm-8.4 16.79c1.07 2.44 7.86 14.77 8.46 15.32l8.26-15.26c-2.78-5.13-5.53-10.2-8.37-15.46-2.86 5.28-5.61 10.36-8.34 15.41z" fill="url(#linear-gradient-99)"/><path d="M14.97 244.71c-3.09-5.71-6.11-11.28-9.13-16.88 3.03-5.59 6.04-11.16 9.1-16.82.18.2.34.32.42.48 2.84 5.24 5.67 10.49 8.52 15.73.21.38.3.7.06 1.13-2.89 5.29-5.75 10.6-8.62 15.9-.06.11-.15.21-.34.46zm.05-1.41c2.88-5.32 5.63-10.4 8.37-15.47-2.78-5.14-5.53-10.21-8.37-15.46-2.86 5.29-5.61 10.37-8.37 15.47 2.76 5.11 5.51 10.19 8.37 15.47z" fill="url(#linear-gradient-100)"/><path d="M15.04 266.82c.23.39.39.65.53.92 2.72 5.03 5.43 10.07 8.18 15.09.33.61.38 1.09 0 1.69-.61.99-1.13 2.04-1.68 3.06-.2.38-.44.6-.96.29.58-1.09 1.12-2.19 1.76-3.24.4-.66.41-1.18.03-1.88-2.48-4.5-4.91-9.03-7.35-13.55-.14-.26-.31-.51-.53-.87-.2.3-.36.5-.48.72-2.5 4.61-4.98 9.22-7.5 13.82-.32.59-.33 1.04.01 1.6.52.85.96 1.74 1.43 2.61.14.26.25.53.38.81-.46.22-.71.09-.9-.27-.63-1.18-1.25-2.36-1.92-3.52-.29-.5 0-.85.2-1.23 1.84-3.41 3.68-6.81 5.52-10.21.91-1.69 1.83-3.38 2.74-5.06.14-.25.31-.48.52-.8z" fill="url(#linear-gradient-101)"/><path d="M111.93 268.29c-.25.42-.42.66-.57.93-2.45 4.52-4.87 9.05-7.35 13.55-.38.7-.38 1.21.03 1.88.64 1.05 1.18 2.15 1.76 3.24-.44.26-.71.17-.91-.2-.65-1.21-1.3-2.41-1.96-3.61-.23-.41-.02-.72.16-1.05.83-1.54 1.66-3.07 2.49-4.61 1.91-3.53 3.82-7.05 5.72-10.57.16-.3.34-.59.56-.98.18.23.34.39.44.58 2.81 5.18 5.61 10.37 8.43 15.54.28.51.29.92 0 1.42-.61 1.03-1.16 2.1-1.72 3.16-.2.37-.42.63-.98.35.46-.87.93-1.73 1.38-2.6 1.06-2.04 1.08-1.22.01-3.21-2.26-4.23-4.56-8.44-6.84-12.66-.18-.33-.37-.65-.64-1.15z" fill="url(#linear-gradient-102)"/><path d="M208.81 266.78c.23.41.37.64.5.88 2.74 5.06 5.47 10.13 8.23 15.18.34.62.36 1.09 0 1.69-.59.96-1.09 1.98-1.62 2.98-.19.35-.37.67-.94.43.07-.2.12-.42.22-.61.55-1.03 1.1-2.06 1.66-3.07.2-.35.28-.65.07-1.05-2.64-4.84-5.26-9.7-7.89-14.54-.05-.09-.09-.18-.2-.38-.23.36-.39.57-.51.8-2.5 4.61-4.98 9.22-7.5 13.82-.33.59-.3 1.04.03 1.6.64 1.09 1.21 2.21 1.84 3.37-.41.24-.69.22-.89-.16-.67-1.23-1.35-2.46-1.99-3.71-.1-.2-.04-.53.05-.76.18-.44.44-.85.67-1.27l7.68-14.19c.16-.29.34-.57.6-1.01z" fill="url(#linear-gradient-103)"/></g></g></svg>