<svg width="462" height="174" fill="none" xmlns="http://www.w3.org/2000/svg"><path d="M59.638 64H48v11.636h11.637V64zm-16 0H32v11.636h11.637V64zm31.998-15.998H63.999v11.636h11.637V48.002zm-15.998 0H48v11.636h11.637V48.002zm-16 0H32v11.636h11.637V48.002zm-16.001 0H16v11.636h11.637V48.002z" fill="#E50141"/><path d="M75.636 32.001H63.999v11.637h11.637V32zm-15.998 0H48v11.637h11.637V32z" fill="#585857"/><path d="M43.638 32.001H32v11.637h11.637V32zm-16.001 0H16v11.637h11.637V32zm-16 0H0v11.637h11.637V32z" fill="#67C1BF"/><path d="M75.636 16H63.999v11.637h11.637V16zm-15.998 0H48v11.637h11.637V16z" fill="#585857"/><path d="M43.638 16H32v11.637h11.637V16zm-16.001 0H16v11.637h11.637V16zm-16 0H0v11.637h11.637V16z" fill="#67C1BF"/><path d="M59.638 0H48v11.637h11.637V0z" fill="#585857"/><path d="M43.638 0H32v11.637h11.637V0zM27.637 0H16v11.637h11.637V0z" fill="#67C1BF"/><path d="M400.001 43.638v72.727c0 7.273-4.364 14.546-13.092 14.546h-38.545v-17.455h23.999c3.638 0 4.364-1.455 4.364-4.364v-5.09h-19.636c-8.727 0-13.091-7.273-13.091-14.546V43.652l23.274-.011v41.454c0 3.635 1.454 4.364 4.363 4.364h5.09V43.641h23.274v-.003zm-109.092 0c-8.728 0-13.092 7.273-13.092 14.546v72.721h23.271l.011-36.356h9.443v36.362h23.273V43.638h-42.906zM310.544 80h-9.453V62.545c0-3.635 1.455-4.345 4.364-4.345l5.089-.019V80zm-42.909 21.819v29.092h-23.273V94.549h-5.09c-2.909 0-4.364.728-4.364 4.363V130.9h-23.273l.011-29.078c0-7.273 3.627-13.818 9.445-14.563-5.818-.71-9.453-7.256-9.445-14.53l-.011-29.091h23.273V80h5.09c2.909 0 4.364-.726 4.364-4.364v-32h23.273v29.091c.009 7.273-3.635 13.817-9.453 14.53 5.818.742 9.464 7.289 9.453 14.562zM184.729 80h14.532v14.546h-14.532v18.866l16.726.044v17.452h-40V43.654l40-.016V61.09h-16.726V80zm-46.547-36.362l-40 .003V130.9h23.265v-23.265h16.735c8.727 0 13.091-7.273 13.091-14.546V58.18c0-7.273-4.364-14.549-13.091-14.543zm-7.273 45.09c0 3.638-1.455 4.363-4.364 4.363h-5.093c-.008-.005-.008-34.907-.008-34.907h5.098c2.909 0 4.364.729 4.364 4.364l.003 26.18z" fill="#1D1E1B"/><path stroke="#202020" d="M461.5 0v174"/></svg>