<svg xmlns="http://www.w3.org/2000/svg" xmlns:xlink="http://www.w3.org/1999/xlink" viewBox="0 0 209.9 55.6" enable-background="new 0 0 209.9 55.6"><style>.st17{clip-path:url(#SVGID_2_)}.st47{fill:#87374c}</style><g id="Layer_17"><defs><path id="SVGID_57_" d="M0-.2h209.9v55.8H0z"/></defs><clipPath id="SVGID_2_"><use xlink:href="#SVGID_57_" overflow="visible"/></clipPath><g id="bg_3_" class="st17"><path d="M40 27.2s-.9 6.6-3.4 9.8c-2.5 3.2-6 5.4-6 5.4l1.4 1.4 1.1 3.1.1 2.6-2 3.4-1.4 1.1 1 .7 3.3.7 7.1-2.1 4.4-3 1.4-3.2-.4-8.8-3.7-7-2.9-4.1z" class="st47"/><path d="M25.8 2.8s2.4-3 6.6-2.7 6.5.5 11 3.4 6.6 5.9 7.5 7.3 4.8 7.3 5.1 12.6.5 7.3-.5 10.9c-.9 3.6-1.8 6.8-3.9 9.5-2.1 2.7-2 2.8-3 3.8s-2.7 2.5-2.7 2.5l1-1.5.8-2.7.1-5.1-1.6-5.1-2.2-4.1-2.1-3-1.9-1.9-.9-1.6-6.7-6-4.3-4.5-2-1.7-2-3.6L24 8V6.1l1.1-2.5.7-.8z" class="st47"/><linearGradient id="SVGID_3_" x1=".502" x2="32.492" y1="30.329" y2="30.329" gradientUnits="userSpaceOnUse"><stop offset="0" stop-color="#b9ca5e"/><stop offset=".38" stop-color="#87b54c"/><stop offset=".79" stop-color="#58a23b"/><stop offset="1" stop-color="#469b35"/><stop offset="1" stop-color="#469b35"/></linearGradient><path d="M10.6 5.5L7 8.9l-2.6 3.7L1.8 18 .5 23.7l.1 8.6 1.6 6 4.1 7 11.1 9 9 .9 3-1.3 1.9-2 1.2-4.9-2.2-4.3-7.5-6.3-4.6-5.5-1.9-2-3.6-4.5-1.7-2.3-.4-1.8-1.5-3.1-.4-3.7-.4-3.3.8-2.6z" fill="url(#SVGID_3_)"/><radialGradient id="SVGID_4_" cx="18.198" cy="14.2" r="11.726" gradientUnits="userSpaceOnUse"><stop offset="0" stop-color="#487a12"/><stop offset=".27" stop-color="#6b9835"/><stop offset=".58" stop-color="#8bb455"/><stop offset=".83" stop-color="#9fc568"/><stop offset="1" stop-color="#a7cc70"/></radialGradient><path d="M26.9 1.4l-2.4 2.3-1.1 2.4v3.4l1.9 4-2.5 2-3.1 3.4-3.1 6.2-.1 3.3-1.6-2.4-3.5-5.2-1.9-5V9.1l1.3-3.7s4.6-3.2 5-3.4c.4-.2 5.4-1.8 5.4-1.8l4.5.7 1.2.5z" fill="url(#SVGID_4_)"/></g><g class="st17"><defs><filter id="Adobe_OpacityMaskFilter" width="46.3" height="46.4" x="-2" y="-8.7"><feColorMatrix values="1 0 0 0 0 0 1 0 0 0 0 0 1 0 0 0 0 0 1 0"/></filter></defs><mask id="mask0_36_2739_2_" width="46.3" height="46.4" x="-2" y="-8.7" maskUnits="userSpaceOnUse"><path d="M26.4 12.8c-.1-.1-.1-.2-.2-.3 0 .1.1.2.2.3zM25.9.7c-5.1.5-9.2 2.9-11.5 6.6-3 4.7-3.1 11.6 1 19.5.4.5.8 1 1.2 1.4.6-3.5 2-6.8 3.8-9.4.7-1 1.5-2 2.3-2.8 1-1.1 2.2-2 3.3-3-.8-1-1.4-1.9-1.8-2.9-.4-.9-.6-2.3-.5-3.2.2-1.6 1.1-3.9 3.4-5.5-.3-.3-.7-.5-1.2-.7" fill="#fff" filter="url(#Adobe_OpacityMaskFilter)"/></mask><g mask="url(#mask0_36_2739_2_)"><linearGradient id="SVGID_5_" x1="32.827" x2="11.914" y1="414.933" y2="392.115" gradientTransform="matrix(1 0 0 -1 0 416.607)" gradientUnits="userSpaceOnUse"><stop offset="0" stop-color="#a7d662"/><stop offset=".45" stop-color="#5c7e2a"/><stop offset=".65" stop-color="#3f5c15"/><stop offset=".68" stop-color="#3c5814"/><stop offset=".88" stop-color="#2c3f11"/><stop offset="1" stop-color="#273611"/></linearGradient><path d="M20.3-8.7L-2 15.7l24 22 22.4-24.4-24.1-22z" fill="url(#SVGID_5_)"/></g><linearGradient id="SVGID_6_" x1="22.767" x2="12.128" y1="412.202" y2="399.234" gradientTransform="matrix(1 0 0 -1 0 416.607)" gradientUnits="userSpaceOnUse"><stop offset="0" stop-color="#5f8528"/><stop offset=".33" stop-color="#425c24"/><stop offset=".65" stop-color="#2a3a22"/><stop offset=".83" stop-color="#212e21"/></linearGradient><path d="M12.8 3.8c-.6.4-1.1.8-1.7 1.3C7.8 9.3 8.8 17.7 13.2 24c.8 1.1 1.5 2.1 2.2 3-4.2-7.9-4-14.8-1-19.5 2.3-3.8 6.4-6.2 11.5-6.6h.1c-1-.4-2.1-.6-3.3-.6-2.8-.2-6.2.8-9.9 3.5" fill="url(#SVGID_6_)"/><defs><filter id="Adobe_OpacityMaskFilter_1_" width="38.7" height="46.2" x="28.2" y="2.9"><feColorMatrix values="1 0 0 0 0 0 1 0 0 0 0 0 1 0 0 0 0 0 1 0"/></filter></defs><mask id="mask1_36_2739_2_" width="38.7" height="46.2" x="28.2" y="2.9" maskUnits="userSpaceOnUse"><path d="M38.7 8.1c9.8 6 14.5 16.7 14.5 26.6 0 3.2-.5 6.3-1.4 9.1 1.4-2.1 2.5-4.4 3.3-6.9 1.4-6 .5-15.5-4.6-23.4-3.1-2.2-7-4.3-11.8-5.4z" fill="#fff" filter="url(#Adobe_OpacityMaskFilter_1_)"/></mask><g mask="url(#mask1_36_2739_2_)"><linearGradient id="SVGID_7_" x1="41.528" x2="51.839" y1="409.184" y2="377.458" gradientTransform="matrix(1 0 0 -1 0 416.607)" gradientUnits="userSpaceOnUse"><stop offset="0" stop-color="#a65f71"/><stop offset=".2" stop-color="#87374c"/><stop offset=".33" stop-color="#7d3346"/><stop offset=".75" stop-color="#622837"/><stop offset="1" stop-color="#592432"/></linearGradient><path d="M54.7 2.9l-26.5 8.6L40.4 49l26.5-8.6L54.7 2.9z" fill="url(#SVGID_7_)"/></g><defs><filter id="Adobe_OpacityMaskFilter_2_" width="16.5" height="19.2" x="24.6" y="7.4"><feColorMatrix values="1 0 0 0 0 0 1 0 0 0 0 0 1 0 0 0 0 0 1 0"/></filter></defs><mask id="mask2_36_2739_2_" width="16.5" height="19.2" x="24.6" y="7.4" maskUnits="userSpaceOnUse"><path d="M32.4 7.4c-2.2 0-4.4.2-6.8.7 1.4-.3 2.7-.5 4-.6-.2 1.1-.7 2.2-1.2 3.1-.5.8-1.2 1.5-1.9 2.2-.9-.9-1.5-1.8-1.9-2.8.4.9 1 1.9 1.7 2.8 2 2.5 4.9 4.8 7.4 7.2 2.6 2.5 4.3 4.2 6 6.2.1.1.1.2.2.2.9-6.1-.8-12.9-7.3-19.2.1.2-.1.2-.2.2z" fill="#fff" filter="url(#Adobe_OpacityMaskFilter_2_)"/></mask><g mask="url(#mask2_36_2739_2_)"><linearGradient id="SVGID_8_" x1="25.438" x2="54.138" y1="399.561" y2="399.561" gradientTransform="matrix(1 0 0 -1 0 416.607)" gradientUnits="userSpaceOnUse"><stop offset="0" stop-color="#692b3a"/><stop offset=".18" stop-color="#6f2e3e"/><stop offset=".42" stop-color="#80384b"/><stop offset=".7" stop-color="#9d4960"/><stop offset="1" stop-color="#c4607c"/></linearGradient><path d="M41.1 7.4H24.6v19.2h16.5V7.4z" fill="url(#SVGID_8_)"/></g><defs><filter id="Adobe_OpacityMaskFilter_3_" width="21" height="43.5" x="32.5" y="6.9"><feColorMatrix values="1 0 0 0 0 0 1 0 0 0 0 0 1 0 0 0 0 0 1 0"/></filter></defs><mask id="mask3_36_2739_2_" width="21" height="43.5" x="32.5" y="6.9" maskUnits="userSpaceOnUse"><path d="M40.2 26.7c.1.1.2.2.3.4.3.3.5.7.8 1 .7.9 1.5 1.9 2.3 3.1 4.1 5.7 5.4 13 3.3 17.5-.2.4-.5.8-.7 1.2 1.3-1 2.5-2.2 3.6-3.5l2.1-2.7c1-2.8 1.4-5.9 1.4-9.1 0-9.9-4.7-20.6-14.5-26.6-1.8-.4-3.7-.6-5.8-.7 6.4 6.4 8.1 13.3 7.2 19.4" fill="#fff" filter="url(#Adobe_OpacityMaskFilter_3_)"/></mask><g mask="url(#mask3_36_2739_2_)"><defs><filter id="Adobe_OpacityMaskFilter_4_" width="21" height="43.5" x="32.5" y="6.9"><feColorMatrix values="1 0 0 0 0 0 1 0 0 0 0 0 1 0 0 0 0 0 1 0"/></filter></defs><mask id="mask4_36_2739_2_" width="21" height="43.5" x="32.5" y="6.9" maskUnits="userSpaceOnUse"><path d="M53.6 7.1h-21v43.4h21V7.1z" fill="#fff" filter="url(#Adobe_OpacityMaskFilter_4_)"/></mask><g mask="url(#mask4_36_2739_2_)"><radialGradient id="SVGID_9_" cx="212.881" cy="487.927" r=".33" gradientTransform="matrix(51.6183 0 0 -51.6287 -10948.566 25216.547)" gradientUnits="userSpaceOnUse"><stop offset="0" stop-color="#5c2533"/><stop offset="1" stop-color="#ad4f68"/></radialGradient><path d="M53.5 7.1h-21v43.4h21V7.1z" fill="url(#SVGID_9_)"/><linearGradient id="SVGID_10_" x1="35.329" x2="56.149" y1="387.039" y2="389.66" gradientTransform="matrix(1 0 0 -1 0 416.607)" gradientUnits="userSpaceOnUse"><stop offset="0" stop-color="#bf5873" stop-opacity="0"/><stop offset=".45" stop-color="#944257" stop-opacity=".43"/><stop offset="1" stop-color="#5c2533"/></linearGradient><path d="M53.5 6.9h-21v43.4h21V6.9z" fill="url(#SVGID_10_)"/></g></g><defs><filter id="Adobe_OpacityMaskFilter_5_" width="13.3" height="25.3" x="46.7" y="12.6"><feColorMatrix values="1 0 0 0 0 0 1 0 0 0 0 0 1 0 0 0 0 0 1 0"/></filter></defs><mask id="mask5_36_2739_2_" width="13.3" height="25.3" x="46.7" y="12.6" maskUnits="userSpaceOnUse"><path d="M50.4 13.6c5.1 7.9 6 17.4 4.6 23.4.9-2.9 1.4-6 1.4-9.3 0-3.7-.7-7.2-2-10.5-1-1.1-2.4-2.4-4-3.6z" fill="#fff" filter="url(#Adobe_OpacityMaskFilter_5_)"/></mask><g mask="url(#mask5_36_2739_2_)"><linearGradient id="SVGID_11_" x1="51.453" x2="54.354" y1="402.605" y2="385.757" gradientTransform="matrix(1 0 0 -1 0 416.607)" gradientUnits="userSpaceOnUse"><stop offset="0" stop-color="#783144"/><stop offset=".06" stop-color="#7c374a"/><stop offset=".48" stop-color="#9a6170"/><stop offset=".8" stop-color="#ac7a88"/><stop offset="1" stop-color="#b38491"/></linearGradient><path d="M56.3 12.6l-9.5 1.5 3.8 23.8 9.5-1.5-3.8-23.8z" fill="url(#SVGID_11_)"/></g><defs><filter id="Adobe_OpacityMaskFilter_6_" width="45.5" height="45.6" x="13.7" y="18.2"><feColorMatrix values="1 0 0 0 0 0 1 0 0 0 0 0 1 0 0 0 0 0 1 0"/></filter></defs><mask id="mask6_36_2739_2_" width="45.5" height="45.6" x="13.7" y="18.2" maskUnits="userSpaceOnUse"><path d="M29.5 54.1V54c.8-.6 1.5-1.3 1.9-2-1.4-.2-2.7-.4-4-.7.4 1.1 1.2 2 2.1 2.8m3.3-5.9zm-.4-1.1zm0-1.1c.1.3.2.6.3 1v.2l-.3-1.2m-2-3.3c.3.4.6.7.8 1.1-.3-.4-.5-.7-.8-1.1m13.1-11.1c-.5-.7-.9-1.3-1.4-1.9.5.6 1 1.2 1.4 1.9zm-1.3-1.9zm-5.9 6.9c-.7 1-1.5 2-2.3 2.8-1 1.1-2.2 2-3.3 3 .3.4.6.8.8 1.1.3.5.9 1.4 1.2 2.3.2.7.4 1.4.4 2.1 0 1.5-.8 4.3-3.5 6.1.4.3.8.5 1.2.7h.1c5-.5 9.1-2.9 11.5-6.6 3-4.7 3.1-11.6-1-19.5-.4-.5-.8-1-1.2-1.4-.6 3.5-2.1 6.7-3.9 9.4" fill="#fff" filter="url(#Adobe_OpacityMaskFilter_6_)"/></mask><g mask="url(#mask6_36_2739_2_)"><linearGradient id="SVGID_12_" x1="27.81" x2="46.159" y1="366.173" y2="386.194" gradientTransform="matrix(1 0 0 -1 0 416.607)" gradientUnits="userSpaceOnUse"><stop offset="0" stop-color="#ad4f68"/><stop offset=".18" stop-color="#a84c65"/><stop offset=".36" stop-color="#9c465d"/><stop offset=".55" stop-color="#873c50"/><stop offset=".74" stop-color="#6a2e3e"/><stop offset=".93" stop-color="#441d27"/><stop offset="1" stop-color="#36161e"/></linearGradient><path d="M35.7 18.2l-22 24 23.5 21.6 22-24-23.5-21.6z" fill="url(#SVGID_12_)"/></g><defs><filter id="Adobe_OpacityMaskFilter_7_" width="18.7" height="27.4" x="30.5" y="28.4"><feColorMatrix values="1 0 0 0 0 0 1 0 0 0 0 0 1 0 0 0 0 0 1 0"/></filter></defs><mask id="mask7_36_2739_2_" width="18.7" height="27.4" x="30.5" y="28.4" maskUnits="userSpaceOnUse"><path d="M42.3 48.1c-2.3 3.8-6.4 6.2-11.5 6.6h-.1c1 .4 2.1.6 3.3.6 2.7 0 6.1-1.1 9.8-3.7.6-.4 1.2-.9 1.8-1.4l-.1.1c3.3-4.2 2.4-12.6-2.1-18.9-.5-.7-.9-1.3-1.4-1.9-.3-.4-.6-.7-.8-1.1 4.3 8.1 4.1 15 1.1 19.7" fill="#fff" filter="url(#Adobe_OpacityMaskFilter_7_)"/></mask><g mask="url(#mask7_36_2739_2_)"><defs><filter id="Adobe_OpacityMaskFilter_8_" width="18.7" height="27.4" x="30.5" y="28.4"><feColorMatrix values="1 0 0 0 0 0 1 0 0 0 0 0 1 0 0 0 0 0 1 0"/></filter></defs><mask id="mask8_36_2739_2_" width="18.7" height="27.4" x="30.5" y="28.4" maskUnits="userSpaceOnUse"><path d="M49.2 28.4H30.5v27.4h18.7V28.4z" fill="#fff" filter="url(#Adobe_OpacityMaskFilter_8_)"/></mask><g mask="url(#mask8_36_2739_2_)"><linearGradient id="SVGID_13_" x1="35.595" x2="46.831" y1="368.837" y2="383.801" gradientTransform="matrix(1 0 0 -1 0 416.607)" gradientUnits="userSpaceOnUse"><stop offset="0" stop-color="#701e33"/><stop offset="1" stop-color="#381720"/></linearGradient><path d="M49.2 28.4H30.5v27.4h18.7V28.4z" fill="url(#SVGID_13_)"/></g></g><defs><filter id="Adobe_OpacityMaskFilter_9_" width="3.9" height="15.3" x="45.8" y="34.7"><feColorMatrix values="1 0 0 0 0 0 1 0 0 0 0 0 1 0 0 0 0 0 1 0"/></filter></defs><mask id="mask9_36_2739_2_" width="3.9" height="15.3" x="45.8" y="34.7" maskUnits="userSpaceOnUse"><path d="M59.6-3.5H-2.9V59h62.6V-3.5z" fill="#fff" filter="url(#Adobe_OpacityMaskFilter_9_)"/></mask><path d="M46.1 50.1c1.3-1 2.5-2.2 3.6-3.5.2-2-.2-6.5-3.8-11.9 2.6 5.7 2.9 11.9.2 15.4z" class="st47" mask="url(#mask9_36_2739_2_)"/><defs><filter id="Adobe_OpacityMaskFilter_10_" width="35" height="32" x="20.3" y="-9.1"><feColorMatrix values="1 0 0 0 0 0 1 0 0 0 0 0 1 0 0 0 0 0 1 0"/></filter></defs><mask id="mask10_36_2739_2_" width="35" height="32" x="20.3" y="-9.1" maskUnits="userSpaceOnUse"><path d="M25.3 3.6c5.2.6 9.7 2.2 13.4 4.5 4.8 1.1 8.7 3.2 11.7 5.5C46.4 7.5 40 2.3 30.2.3c-2.3.4-4 1.8-4.9 3.3" fill="#fff" filter="url(#Adobe_OpacityMaskFilter_10_)"/></mask><g mask="url(#mask10_36_2739_2_)"><linearGradient id="SVGID_14_" x1="42.877" x2="24.71" y1="407.435" y2="415.521" gradientTransform="matrix(1 0 0 -1 0 416.607)" gradientUnits="userSpaceOnUse"><stop offset="0" stop-color="#783144"/><stop offset=".43" stop-color="#9f3e59"/><stop offset=".79" stop-color="#b84666"/><stop offset="1" stop-color="#c24a6c"/></linearGradient><path d="M29.4-9.1l-9.1 20.4 25.9 11.5 9.1-20.4L29.4-9.1z" fill="url(#SVGID_14_)"/></g><defs><filter id="Adobe_OpacityMaskFilter_11_" width="15.8" height="8.2" x="23.2" y="2.2"><feColorMatrix values="1 0 0 0 0 0 1 0 0 0 0 0 1 0 0 0 0 0 1 0"/></filter></defs><mask id="mask11_36_2739_2_" width="15.8" height="8.2" x="23.2" y="2.2" maskUnits="userSpaceOnUse"><path d="M24.4 5.3c-.2.6-.4 1.1-.4 1.6 0 .4.1 1.4.1 1.6.5-.1.9-.2 1.4-.3 2.4-.5 4.7-.7 6.8-.7h.5c2.1 0 4 .3 5.8.7-2.7-1.7-5.9-3-9.4-3.8-1.3-.3-2.6-.5-4-.7-.3.5-.6 1.1-.8 1.6" fill="#fff" filter="url(#Adobe_OpacityMaskFilter_11_)"/></mask><g mask="url(#mask11_36_2739_2_)"><linearGradient id="SVGID_15_" x1="24.848" x2="39.547" y1="411.102" y2="409.298" gradientTransform="matrix(1 0 0 -1 0 416.607)" gradientUnits="userSpaceOnUse"><stop offset="0" stop-color="#a65569"/><stop offset=".41" stop-color="#9c4b60"/><stop offset="1" stop-color="#87374c"/></linearGradient><path d="M24 2.2l-.8 6.3 15 1.8L39 4 24 2.2z" fill="url(#SVGID_15_)"/></g><defs><filter id="Adobe_OpacityMaskFilter_12_" width="41" height="40.8" x="21.9" y="-11.7"><feColorMatrix values="1 0 0 0 0 0 1 0 0 0 0 0 1 0 0 0 0 0 1 0"/></filter></defs><mask id="mask12_36_2739_2_" width="41" height="40.8" x="21.9" y="-11.7" maskUnits="userSpaceOnUse"><path d="M31.5.1c-.5 0-.9.1-1.3.2 9.8 2 16.2 7.2 20.2 13.3 1.7 1.3 3 2.5 4.1 3.7-2.4-6.3-7-11.7-13-15-1.7-.8-4-2.1-8.6-2.1-.5-.1-.9-.1-1.4-.1" fill="#fff" filter="url(#Adobe_OpacityMaskFilter_12_)"/></mask><g mask="url(#mask12_36_2739_2_)"><linearGradient id="SVGID_16_" x1="28.334" x2="51.603" y1="418.731" y2="400.791" gradientTransform="matrix(1 0 0 -1 0 416.607)" gradientUnits="userSpaceOnUse"><stop offset="0" stop-color="#783144"/><stop offset=".21" stop-color="#7f3b4e"/><stop offset=".57" stop-color="#945869"/><stop offset="1" stop-color="#b38491"/></linearGradient><path d="M39.6-11.7L21.9 10.6l23.2 18.5L62.8 6.7 39.6-11.7z" fill="url(#SVGID_16_)"/></g><defs><filter id="Adobe_OpacityMaskFilter_13_" width="5.9" height="5.8" x="24" y="7.3"><feColorMatrix values="1 0 0 0 0 0 1 0 0 0 0 0 1 0 0 0 0 0 1 0"/></filter></defs><mask id="mask13_36_2739_2_" width="5.9" height="5.8" x="24" y="7.3" maskUnits="userSpaceOnUse"><path d="M25.6 8.2c-.4.1-1.1.2-1.4.3.1.5.1.7.5 1.6.4.9 1 1.9 1.7 2.8.7-.7 1.4-1.4 1.9-2.2.6-.9 1-1.9 1.2-3.1-1.3.1-2.6.3-3.9.6" fill="#fff" filter="url(#Adobe_OpacityMaskFilter_13_)"/></mask><g mask="url(#mask13_36_2739_2_)"><defs><filter id="Adobe_OpacityMaskFilter_14_" width="5.9" height="5.8" x="24" y="7.3"><feColorMatrix values="1 0 0 0 0 0 1 0 0 0 0 0 1 0 0 0 0 0 1 0"/></filter></defs><mask id="mask14_36_2739_2_" width="5.9" height="5.8" x="24" y="7.3" maskUnits="userSpaceOnUse"><path d="M29.9 7.3H24v5.8h5.9V7.3z" fill="#fff" filter="url(#Adobe_OpacityMaskFilter_14_)"/></mask><g mask="url(#mask14_36_2739_2_)"><linearGradient id="SVGID_17_" x1="28.947" x2="23.826" y1="404.075" y2="409.986" gradientTransform="matrix(1 0 0 -1 0 416.607)" gradientUnits="userSpaceOnUse"><stop offset="0" stop-color="#632938"/><stop offset=".17" stop-color="#692c3c"/><stop offset=".4" stop-color="#7a3648"/><stop offset=".68" stop-color="#97465c"/><stop offset=".97" stop-color="#bf5d78"/><stop offset="1" stop-color="#c4607c"/></linearGradient><path d="M29.9 7.3H24v5.8h5.9V7.3z" fill="url(#SVGID_17_)"/></g></g><defs><filter id="Adobe_OpacityMaskFilter_15_" width="34.5" height="44.1" x="-8.1" y="7.5"><feColorMatrix values="1 0 0 0 0 0 1 0 0 0 0 0 1 0 0 0 0 0 1 0"/></filter></defs><mask id="mask15_36_2739_2_" width="34.5" height="44.1" x="-8.1" y="7.5" maskUnits="userSpaceOnUse"><path d="M1.7 18.5c-1.4 6-.5 15.5 4.6 23.4 3 2.2 6.9 4.4 11.7 5.5-9.8-6-14.5-16.7-14.5-26.6 0-3.2.5-6.3 1.4-9.1-1.3 2-2.4 4.3-3.2 6.8z" fill="#fff" filter="url(#Adobe_OpacityMaskFilter_15_)"/></mask><g mask="url(#mask15_36_2739_2_)"><linearGradient id="SVGID_18_" x1="5.767" x2="10.84" y1="400.782" y2="380.439" gradientTransform="matrix(1 0 0 -1 0 416.607)" gradientUnits="userSpaceOnUse"><stop offset="0" stop-color="#a7cc70"/><stop offset=".4" stop-color="#b0c295"/><stop offset=".48" stop-color="#a6bc85"/><stop offset=".83" stop-color="#7da245"/><stop offset="1" stop-color="#6d992c"/></linearGradient><path d="M17 7.5l-25.1 6.3 9.4 37.8 25.1-6.3L17 7.5z" fill="url(#SVGID_18_)"/></g><defs><filter id="Adobe_OpacityMaskFilter_16_" width="58.4" height="59" x="-8.5" y=".5"><feColorMatrix values="1 0 0 0 0 0 1 0 0 0 0 0 1 0 0 0 0 0 1 0"/></filter></defs><mask id="mask16_36_2739_2_" width="58.4" height="59" x="-8.5" y=".5" maskUnits="userSpaceOnUse"><path d="M32 47.1c.1 0 .1 0 0 0 .1 0 .1 0 0 0zm.1 0c.1 0 .1 0 0 0 .1 0 .1 0 0 0zm.1 0zm.1 0zm0 0s.1 0 0 0c.1 0 .1 0 0 0 .1 0 .1 0 0 0m.1-.1h.1-.1zm.1 0s.1 0 0 0zm.1 0zm0 0zm-.3-1c.1.3.2.6.3 1 0-.3-.1-.7-.3-1zM10.9 20.8c.6 1.2 1.3 2.5 2.1 3.6 1.3 1.8 2.4 3.2 3.5 4.5-.9 6.1.8 12.9 7.3 19.2h.5c2.4 0 4.9-.3 7.6-.9-1.7.4-3.3.7-4.8.8.2-1.1.7-2.2 1.2-3.1.5-.8 1.2-1.5 1.9-2.2.3.4.6.7.8 1.1-.2-.4-.5-.7-.8-1.1-2-2.6-5.1-5-7.6-7.5-2.7-2.6-4.5-4.3-6.2-6.4-1.1-1.3-2.1-2.7-3.5-4.5-.7-1.1-1.4-2.3-2-3.5-1.4-2.9-2.1-6.1-2.1-8.9 0 2.8.7 5.9 2.1 8.9z" fill="#fff" filter="url(#Adobe_OpacityMaskFilter_16_)"/></mask><g mask="url(#mask16_36_2739_2_)"><linearGradient id="SVGID_19_" x1="13.146" x2="29.998" y1="396.865" y2="374.011" gradientTransform="matrix(1 0 0 -1 0 416.607)" gradientUnits="userSpaceOnUse"><stop offset="0" stop-color="#80ba29"/><stop offset=".15" stop-color="#7fb72d"/><stop offset="1" stop-color="#7fa847"/></linearGradient><path d="M24.2.5L-8.5 24.6l25.7 34.8 32.7-24.1L24.2.5z" fill="url(#SVGID_19_)"/></g><defs><filter id="Adobe_OpacityMaskFilter_17_" width="34" height="46.9" x="-9.6" y="5"><feColorMatrix values="1 0 0 0 0 0 1 0 0 0 0 0 1 0 0 0 0 0 1 0"/></filter></defs><mask id="mask17_36_2739_2_" width="34" height="46.9" x="-9.6" y="5" maskUnits="userSpaceOnUse"><path d="M7.1 8.9c-.8.9-1.5 1.8-2.1 2.8-1 2.8-1.4 5.9-1.4 9.1 0 9.9 4.7 20.6 14.5 26.6 1.8.4 3.7.6 5.8.7-6.5-6.3-8.2-13.2-7.3-19.2-1.1-1.3-2.1-2.7-3.5-4.5-.8-1.1-1.5-2.4-2.1-3.6-1.4-2.9-2.1-6.1-2.1-8.9 0-1.5.2-2.8.6-4.1.3-.9.7-1.7 1.2-2.3-1.3 1-2.5 2.1-3.6 3.4" fill="#fff" filter="url(#Adobe_OpacityMaskFilter_17_)"/></mask><g mask="url(#mask17_36_2739_2_)"><defs><filter id="Adobe_OpacityMaskFilter_18_" width="34" height="46.9" x="-9.6" y="5"><feColorMatrix values="1 0 0 0 0 0 1 0 0 0 0 0 1 0 0 0 0 0 1 0"/></filter></defs><mask id="mask18_36_2739_2_" width="34" height="46.9" x="-9.6" y="5" maskUnits="userSpaceOnUse"><path d="M24.2 5.1h-21v43.4h21V5.1z" fill="#fff" filter="url(#Adobe_OpacityMaskFilter_18_)"/></mask><g mask="url(#mask18_36_2739_2_)"><radialGradient id="SVGID_20_" cx="213.829" cy="488.014" r=".33" gradientTransform="matrix(51.8146 0 0 -51.8251 -11063.154 25319.074)" gradientUnits="userSpaceOnUse"><stop offset="0" stop-color="#487a12"/><stop offset=".27" stop-color="#6b9835"/><stop offset=".58" stop-color="#8bb455"/><stop offset=".83" stop-color="#9fc568"/><stop offset="1" stop-color="#a7cc70"/></radialGradient><path d="M24.4 5H3v43.4h21.4V5z" fill="url(#SVGID_20_)"/><linearGradient id="SVGID_21_" x1="6.579" x2="2.411" y1="358.928" y2="379.925" gradientTransform="matrix(1 0 0 -1 0 416.607)" gradientUnits="userSpaceOnUse"><stop offset="0" stop-color="#507815"/><stop offset=".34" stop-color="#6d9524" stop-opacity=".68"/><stop offset="1" stop-color="#aed446" stop-opacity="0"/></linearGradient><path d="M11.8 8.5H-9.6v43.4h21.4V8.5z" fill="url(#SVGID_21_)"/></g></g><defs><filter id="Adobe_OpacityMaskFilter_19_" width="19.8" height="27" x="-6.6" y="16.7"><feColorMatrix values="1 0 0 0 0 0 1 0 0 0 0 0 1 0 0 0 0 0 1 0"/></filter></defs><mask id="mask19_36_2739_2_" width="19.8" height="27" x="-6.6" y="16.7" maskUnits="userSpaceOnUse"><path d="M.3 27.8c0 3.7.7 7.2 2 10.5 1.1 1.1 2.4 2.4 4.1 3.7-5.2-8-6.1-17.5-4.7-23.5-.9 2.9-1.4 6-1.4 9.3" fill="#fff" filter="url(#Adobe_OpacityMaskFilter_19_)"/></mask><g mask="url(#mask19_36_2739_2_)"><linearGradient id="SVGID_22_" x1=".986" x2="4.609" y1="393.644" y2="382.495" gradientTransform="matrix(1 0 0 -1 0 416.607)" gradientUnits="userSpaceOnUse"><stop offset="0" stop-color="#a7cc70"/><stop offset=".47" stop-color="#91b261"/><stop offset="1" stop-color="#7d9953"/></linearGradient><path d="M5.8 16.7l-12.4 4 7.5 23 12.4-4-7.5-23z" fill="url(#SVGID_22_)"/></g><defs><filter id="Adobe_OpacityMaskFilter_20_" width="5.1" height="15.6" x="6.4" y="5.3"><feColorMatrix values="1 0 0 0 0 0 1 0 0 0 0 0 1 0 0 0 0 0 1 0"/></filter></defs><mask id="mask20_36_2739_2_" width="5.1" height="15.6" x="6.4" y="5.3" maskUnits="userSpaceOnUse"><path d="M7.1 8.9c-.2 2 .2 6.5 3.8 11.9C8.2 15.1 8 8.9 10.7 5.4 9.4 6.5 8.2 7.6 7.1 8.9z" fill="#fff" filter="url(#Adobe_OpacityMaskFilter_20_)"/></mask><g mask="url(#mask20_36_2739_2_)"><linearGradient id="SVGID_23_" x1="8.709" x2="9.159" y1="409.741" y2="396.845" gradientTransform="matrix(1 0 0 -1 0 416.607)" gradientUnits="userSpaceOnUse"><stop offset="0" stop-color="#b9ca5e"/><stop offset=".38" stop-color="#87b54c"/><stop offset=".79" stop-color="#58a23b"/><stop offset="1" stop-color="#469b35"/></linearGradient><path d="M10.9 5.3l-4.5.1.5 15.5 4.5-.2-.5-15.4z" fill="url(#SVGID_23_)"/></g><defs><filter id="Adobe_OpacityMaskFilter_21_" width="35" height="32" x="1.4" y="32.6"><feColorMatrix values="1 0 0 0 0 0 1 0 0 0 0 0 1 0 0 0 0 0 1 0"/></filter></defs><mask id="mask21_36_2739_2_" width="35" height="32" x="1.4" y="32.6" maskUnits="userSpaceOnUse"><path d="M26.5 55.2c2.4-.5 4-1.8 5-3.3-5.2-.6-9.7-2.3-13.4-4.5-4.8-1.1-8.7-3.2-11.7-5.4 3.9 6 10.3 11.2 20.1 13.2" fill="#fff" filter="url(#Adobe_OpacityMaskFilter_21_)"/></mask><g mask="url(#mask21_36_2739_2_)"><linearGradient id="SVGID_24_" x1="11.175" x2="27.652" y1="371.468" y2="364.134" gradientTransform="matrix(1 0 0 -1 0 416.607)" gradientUnits="userSpaceOnUse"><stop offset="0" stop-color="#a7cc70"/><stop offset="1" stop-color="#678c23"/></linearGradient><path d="M10.5 32.6L1.4 53l25.9 11.5 9.1-20.4-25.9-11.5z" fill="url(#SVGID_24_)"/></g><defs><filter id="Adobe_OpacityMaskFilter_22_" width="15.2" height="6.3" x="17.8" y="46.3"><feColorMatrix values="1 0 0 0 0 0 1 0 0 0 0 0 1 0 0 0 0 0 1 0"/></filter></defs><mask id="mask22_36_2739_2_" width="15.2" height="6.3" x="17.8" y="46.3" maskUnits="userSpaceOnUse"><path d="M32.5 47h-.2c-.1 0-.2 0-.2.1H32c-2.7.7-5.2.9-7.6.9h-.5c-2.1 0-4-.3-5.8-.7 2.7 1.7 5.9 3 9.4 3.8 1.3.3 2.6.5 4 .7.4-.6.7-1.2.9-1.8.3-.7.4-1.4.4-1.9V48c0-.3 0-.6-.1-.9 0 0-.1 0-.2-.1.1 0 .1 0 0 0" fill="#fff" filter="url(#Adobe_OpacityMaskFilter_22_)"/></mask><g mask="url(#mask22_36_2739_2_)"><linearGradient id="SVGID_25_" x1="27.139" x2="36.406" y1="367.071" y2="366.651" gradientTransform="matrix(1 0 0 -1 0 416.607)" gradientUnits="userSpaceOnUse"><stop offset="0" stop-color="#a7cc70"/><stop offset=".19" stop-color="#a0c569"/><stop offset="1" stop-color="#87ad50"/></linearGradient><path d="M18.1 46.3l-.3 5.6 14.9.7.3-5.6-14.9-.7z" fill="url(#SVGID_25_)"/></g><defs><filter id="Adobe_OpacityMaskFilter_23_" width="41.7" height="41.7" x="-6.4" y="26.2"><feColorMatrix values="1 0 0 0 0 0 1 0 0 0 0 0 1 0 0 0 0 0 1 0"/></filter></defs><mask id="mask23_36_2739_2_" width="41.7" height="41.7" x="-6.4" y="26.2" maskUnits="userSpaceOnUse"><path d="M2.3 38.3c2.4 6.3 7 11.7 13 15 1.9.9 4.5 2.4 10 2.1.5 0 .9-.1 1.3-.2-9.9-2-16.3-7.2-20.2-13.3-1.7-1.2-3.1-2.5-4.1-3.6z" fill="#fff" filter="url(#Adobe_OpacityMaskFilter_23_)"/></mask><g mask="url(#mask23_36_2739_2_)"><linearGradient id="SVGID_26_" x1="7.958" x2="16.812" y1="376.059" y2="367.208" gradientTransform="matrix(1 0 0 -1 0 416.607)" gradientUnits="userSpaceOnUse"><stop offset="0" stop-color="#a7cc70"/><stop offset="1" stop-color="#6b8745"/></linearGradient><path d="M14.4 26.2L-6.4 47l20.8 20.8L35.2 47 14.4 26.2z" fill="url(#SVGID_26_)"/></g><linearGradient id="SVGID_27_" x1="26.292" x2="31.815" y1="375.598" y2="366.407" gradientTransform="matrix(1 0 0 -1 0 416.607)" gradientUnits="userSpaceOnUse"><stop offset="0" stop-color="#487a12"/><stop offset=".27" stop-color="#6b9835"/><stop offset=".58" stop-color="#8bb455"/><stop offset=".83" stop-color="#9fc568"/><stop offset="1" stop-color="#a7cc70"/></linearGradient><path d="M28.5 44.9c-.6.9-1 1.9-1.2 3.1 1.7-.2 3.5-.5 5.4-1-.1-.3-.2-.6-.3-1-.2-.7-.7-1.5-1.2-2.2-.2-.4-.5-.7-.8-1.1-.7.7-1.4 1.4-1.9 2.2" fill="url(#SVGID_27_)"/><defs><filter id="Adobe_OpacityMaskFilter_24_" width="6" height="5.8" x="26.9" y="42.4"><feColorMatrix values="1 0 0 0 0 0 1 0 0 0 0 0 1 0 0 0 0 0 1 0"/></filter></defs><mask id="mask24_36_2739_2_" width="6" height="5.8" x="26.9" y="42.4" maskUnits="userSpaceOnUse"><path d="M28.5 44.9c-.6.9-1 1.9-1.2 3.1 1.7-.2 3.5-.5 5.4-1-.1-.3-.2-.6-.3-1-.2-.7-.7-1.5-1.2-2.2-.2-.4-.5-.7-.8-1.1-.7.7-1.4 1.4-1.9 2.2" fill="#fff" filter="url(#Adobe_OpacityMaskFilter_24_)"/></mask><g mask="url(#mask24_36_2739_2_)"><linearGradient id="SVGID_28_" x1="27.369" x2="32.696" y1="375.494" y2="366.628" gradientTransform="matrix(1 0 0 -1 0 416.607)" gradientUnits="userSpaceOnUse"><stop offset="0" stop-color="#487a12"/><stop offset=".27" stop-color="#6b9835"/><stop offset=".58" stop-color="#8bb455"/><stop offset=".83" stop-color="#9fc568"/><stop offset="1" stop-color="#a7cc70"/></linearGradient><path d="M32.9 42.4h-6v5.8h6v-5.8z" fill="url(#SVGID_28_)"/><defs><filter id="Adobe_OpacityMaskFilter_25_" width="6" height="5.8" x="26.9" y="42.4"><feColorMatrix values="1 0 0 0 0 0 1 0 0 0 0 0 1 0 0 0 0 0 1 0"/></filter></defs><mask id="mask25_36_2739_2_" width="6" height="5.8" x="26.9" y="42.4" maskUnits="userSpaceOnUse"><path d="M32.9 42.4h-6v5.8h6v-5.8z" fill="#fff" filter="url(#Adobe_OpacityMaskFilter_25_)"/></mask><g mask="url(#mask25_36_2739_2_)"><linearGradient id="SVGID_29_" x1="27.369" x2="32.696" y1="375.494" y2="366.628" gradientTransform="matrix(1 0 0 -1 0 416.607)" gradientUnits="userSpaceOnUse"><stop offset="0" stop-color="#487a12"/><stop offset=".27" stop-color="#6b9835"/><stop offset=".58" stop-color="#8bb455"/><stop offset=".83" stop-color="#9fc568"/><stop offset="1" stop-color="#a7cc70"/></linearGradient><path d="M32.9 42.4h-6v5.8h6v-5.8z" fill="url(#SVGID_29_)"/></g></g><path d="M78.7 29.4l-9.4-13.9v12.7c0 1-.8 1.9-1.9 1.9-1 0-1.9-.8-1.9-1.9v-17c0-1.3 1-2.3 2.3-2.3.8 0 1.5.4 1.9 1l10.5 15.2L90.7 10c.4-.6 1.1-1 1.9-1 1.3 0 2.3 1 2.3 2.3v17c0 1-.8 1.9-1.9 1.9-1 0-1.9-.8-1.9-1.9V15.5l-9.6 13.9c-.3.5-.8.7-1.4.7-.5 0-1-.3-1.4-.7zm45.5-18.8c0 .9-.7 1.6-1.6 1.6h-13c-.7 0-1.4.1-2 .4-.7.3-1.3.6-1.8 1.1-.6.5-1 1-1.4 1.7-.4.7-.6 1.4-.6 2.2h18.6c.9 0 1.6.7 1.6 1.6 0 .9-.7 1.6-1.6 1.6h-18.7c0 .9.2 1.8.5 2.6s.8 1.4 1.3 2c.5.6 1.1 1 1.8 1.3.7.3 1.4.5 2.1.5h13.2c.9 0 1.6.7 1.6 1.6 0 .9-.7 1.6-1.6 1.6h-13.8c-1.1 0-2.2-.2-3.2-.7-1.1-.4-2-1-2.9-1.9-.9-.8-1.6-1.8-2.1-2.9-.5-1.1-.8-2.3-.8-3.7v-3c0-1.3.3-2.6.8-3.7s1.3-2.1 2.1-2.9c.9-.8 1.9-1.4 3-1.9 1.1-.4 2.2-.7 3.3-.7h13.6c.9 0 1.6.7 1.6 1.6zm28.4 17.9c0 .9-.7 1.6-1.6 1.6h-13.8c-1.3 0-2.5-.2-3.5-.6-1.1-.4-2-1-2.8-1.8-.8-.8-1.4-1.7-1.8-2.9-.4-1.1-.7-2.4-.7-3.8V10.9c0-1.1.9-1.9 1.9-1.9s1.9.9 1.9 1.9v9.7c0 1 .1 1.8.4 2.6.3.8.7 1.4 1.2 2 .5.6 1.1 1 1.8 1.3.7.3 1.5.4 2.4.4h13c.9 0 1.6.7 1.6 1.6zm6.4-17.6v6.6h10.1c.9 0 1.6-.1 2.2-.3.6-.2 1.1-.7 1.6-1.5l3.2-5.8c.3-.6.9-.9 1.6-.9 1.4 0 2.3 1.5 1.6 2.7l-3 5.3c-.3.5-.6.9-.9 1.4-.3.4-.8.7-1.3.9.7.1 1.2.4 1.7.7.4.4.8.9 1.1 1.5l3.2 5.9c.7 1.2-.2 2.7-1.6 2.7-.7 0-1.3-.4-1.6-1-.5-.9-.9-1.8-1.4-2.6-.7-1.2-1.3-2.4-1.9-3.6-.2-.4-.4-.7-.7-1-.3-.3-.6-.5-.9-.7-.4-.2-.8-.3-1.3-.4-.5-.1-1.1-.1-1.8-.1H159v7.5c0 1-.8 1.9-1.9 1.9-1 0-1.9-.9-1.9-1.9V10.9c0-1 .8-1.9 1.9-1.9 1 0 1.9.9 1.9 1.9zm50.3-.3c0 .9-.7 1.6-1.6 1.6h-13c-.7 0-1.4.1-2 .4-.7.3-1.3.6-1.8 1.1-.6.5-1 1-1.4 1.7-.4.7-.6 1.4-.6 2.2h18.6c.9 0 1.6.7 1.6 1.6 0 .9-.7 1.6-1.6 1.6h-18.7c0 .9.2 1.8.5 2.6s.8 1.4 1.3 2c.5.6 1.1 1 1.8 1.3.7.3 1.4.5 2.1.5h13.2c.9 0 1.6.7 1.6 1.6 0 .9-.7 1.6-1.6 1.6h-13.8c-1.1 0-2.2-.2-3.2-.7-1.1-.4-2-1-2.9-1.9-.9-.8-1.6-1.8-2.1-2.9-.5-1.1-.8-2.3-.8-3.7v-3c0-1.3.3-2.6.8-3.7s1.3-2.1 2.1-2.9c.9-.8 1.9-1.4 3-1.9 1.1-.4 2.2-.7 3.3-.7h13.6c.9 0 1.6.7 1.6 1.6zM97 45.5h.6c.9 0 1.4.5 1.4 1.5v1.7c0 .5-.1.8-.4 1.1-.3.3-.6.4-1 .4H97c-.4 0-.8-.1-1-.4-.2-.2-.4-.6-.4-1.1V47c0-.5.1-.9.4-1.1.2-.3.6-.4 1-.4zm1.2 3.3v-1.9c0-.2-.1-.4-.2-.5-.1-.1-.3-.2-.5-.2h-.4c-.2 0-.4.1-.5.2-.1.1-.2.3-.2.5v1.9c0 .2.1.4.2.5.1.1.3.2.5.2h.4c.2 0 .4-.1.5-.2.1-.2.2-.3.2-.5zm4.9-2.9l-.3.9c-.2.5-.4.8-.6.9.2.1.3.2.4.3.1.1.2.4.3.6l.3 1.1v.3c-.1.1-.2.2-.3.2h-.3c-.1 0-.2-.2-.2-.3l-.3-1.1c-.1-.3-.2-.4-.3-.5-.1-.1-.3-.1-.5-.1h-.6v1.6c0 .2 0 .3-.1.4-.1.1-.2.1-.3.1s-.3 0-.3-.1c-.1-.1-.1-.2-.1-.4V46c0-.2 0-.3.1-.3.1-.1.2-.1.3-.1.2 0 .3 0 .3.1.1.1.1.2.1.4v1.5h.6c.2 0 .4 0 .5-.1.1-.1.2-.2.3-.5l.3-1c.1-.2.1-.3.2-.3h.3c.1 0 .2.1.3.2-.1-.2 0-.1-.1 0zm2.2-.4h.6c.9 0 1.4.5 1.4 1.5v1.7c0 .5-.1.8-.4 1.1-.3.3-.6.4-1 .4h-.7c-.4 0-.8-.1-1-.4-.2-.2-.4-.6-.4-1.1V47c0-.5.1-.9.4-1.1.3-.3.7-.4 1.1-.4zm1.2 3.3v-1.9c0-.2-.1-.4-.2-.5-.1-.1-.3-.2-.5-.2h-.4c-.2 0-.4.1-.5.2-.1.1-.2.3-.2.5v1.9c0 .2.1.4.2.5.1.1.3.2.5.2h.4c.2 0 .4-.1.5-.2.1-.2.2-.3.2-.5zm4.6 1.4c-.3 0-.4-.1-.4-.4v-1.7H109v1.7c0 .3-.1.4-.4.4s-.4-.1-.4-.4v-4c0-.3.1-.4.4-.4s.4.1.4.4v1.5h1.7v-1.5c0-.3.1-.4.4-.4.3 0 .4.1.4.4v4c0 .3-.1.4-.4.4zm4.3 0c-.3 0-.4-.1-.4-.4v-1.7h-1.7v1.7c0 .3-.1.4-.4.4-.3 0-.4-.1-.4-.4v-4c0-.3.1-.4.4-.4s.4.1.4.4v1.5h1.7v-1.5c0-.3.1-.4.4-.4.3 0 .4.1.4.4v4c0 .3-.2.4-.4.4zm2.1-2.9h1.2c1 0 1.5.5 1.5 1.4 0 .4-.1.8-.4 1-.3.3-.6.4-1.1.4h-1.6c-.3 0-.4-.1-.4-.4v-3.9c0-.3.1-.4.4-.4s.4.1.4.4v1.5zm0 2.1h1.2c.2 0 .3 0 .4-.1.1-.1.2-.3.2-.5s0-.3-.1-.5c-.1-.1-.2-.2-.4-.2h-1.2v1.3zm3.6.8c-.3 0-.4-.1-.4-.4v-4c0-.3.1-.4.4-.4.3 0 .4.1.4.4v4c0 .3-.1.4-.4.4zm4.1 0h-2.3c-.3 0-.4-.1-.4-.4v-3.9c0-.3.1-.4.4-.4h2.3c.3 0 .4.1.4.4 0 .3-.1.4-.4.4h-1.9v1h1.6c.2 0 .4.1.4.4 0 .3-.1.4-.4.4h-1.6v1.3h1.9c.3 0 .4.1.4.4s-.2.4-.4.4zm6.2 0h-1.5c-.4 0-.7-.1-1-.4-.3-.2-.4-.6-.4-1.1v-1.8c0-.5.1-.8.4-1.1.3-.3.6-.4 1-.4h1.5c.3 0 .4.1.4.4 0 .3-.1.4-.4.4H130c-.2 0-.3.1-.4.2-.1.1-.1.3-.1.5v1.8c0 .2 0 .3.1.4.1.1.2.2.4.2h1.4c.3 0 .4.1.4.4-.1.3-.2.5-.4.5zm1.9-1.5c.2-.3.5-.8.8-1.4.3-.6.6-1.1.8-1.4 0-.1.1-.1.1-.2l.1-.1c.1 0 .1-.1.2-.1h.2c.3 0 .4.1.4.4v4c0 .3-.1.4-.4.4-.3 0-.4-.1-.4-.4V47l-1.6 2.9c0 .1-.1.1-.1.1l-.1.1h-.4c-.3 0-.4-.1-.4-.4v-4c0-.3.1-.4.4-.4s.4.1.4.4v3zm6.3 1.5h-1.5c-.4 0-.7-.1-1-.4-.3-.2-.4-.6-.4-1.1v-1.8c0-.5.1-.8.4-1.1.3-.3.6-.4 1-.4h1.5c.3 0 .4.1.4.4 0 .3-.1.4-.4.4h-1.4c-.2 0-.3.1-.4.2-.1.1-.1.3-.1.5v1.8c0 .2 0 .3.1.4.1.1.2.2.4.2h1.4c.3 0 .4.1.4.4 0 .3-.1.5-.4.5zm3.9-3.9h-1v3.5c0 .3-.1.4-.4.4s-.4-.1-.4-.4v-3.5h-1c-.3 0-.4-.1-.4-.4 0-.3.1-.4.4-.4h2.8c.3 0 .4.1.4.4 0 .3-.1.4-.4.4zm3.7 3.9h-2.3c-.3 0-.4-.1-.4-.4v-3.9c0-.3.1-.4.4-.4h2.3c.3 0 .4.1.4.4 0 .3-.1.4-.4.4h-1.9v1h1.6c.2 0 .4.1.4.4 0 .3-.1.4-.4.4h-1.6v1.3h1.9c.3 0 .4.1.4.4s-.1.4-.4.4zm3-2.8l.9-1.8c.1-.1.2-.2.4-.2h.2c.3 0 .4.1.4.4v3.9c0 .3-.1.4-.4.4-.3 0-.4-.1-.4-.4V47l-.6 1.1c-.1.2-.2.3-.4.3h-.2c-.2 0-.3-.1-.4-.3l-.5-1.1v2.7c0 .3-.1.4-.4.4-.3 0-.4-.1-.4-.4v-3.9c0-.3.1-.4.4-.4h.2c.1 0 .2 0 .2.1.1 0 .1.1.1.1s.1.1.1.2l.8 1.6zm3.7-.1h1.2c1 0 1.5.5 1.5 1.4 0 .4-.1.8-.4 1-.3.3-.6.4-1.1.4h-1.6c-.3 0-.4-.1-.4-.4v-3.9c0-.3.1-.4.4-.4.3 0 .4.1.4.4v1.5zm0 2.1h1.2c.2 0 .3 0 .4-.1.1-.1.2-.3.2-.5s0-.3-.1-.5c-.1-.1-.2-.2-.4-.2H154v1.3zm3.6.8c-.3 0-.4-.1-.4-.4v-4c0-.3.1-.4.4-.4.3 0 .4.1.4.4v4c0 .3-.1.4-.4.4zm6.4 0h-1.5c-.4 0-.7-.1-1-.4s-.4-.6-.4-1.1v-1.8c0-.5.1-.8.4-1.1.3-.3.6-.4 1-.4h1.5c.3 0 .4.1.4.4 0 .3-.1.4-.4.4h-1.4c-.2 0-.3.1-.4.2-.1.1-.1.3-.1.5v1.8c0 .2 0 .3.1.4.1.1.2.2.4.2h1.4c.3 0 .4.1.4.4 0 .3-.1.5-.4.5zm2.4-4.7h.6c.9 0 1.4.5 1.4 1.5v1.7c0 .5-.1.8-.4 1.1-.3.3-.6.4-1 .4h-.7c-.4 0-.8-.1-1-.4-.2-.2-.4-.6-.4-1.1V47c0-.5.1-.9.4-1.1.4-.3.7-.4 1.1-.4zm1.2 3.3v-1.9c0-.2-.1-.4-.2-.5-.1-.1-.3-.2-.5-.2h-.4c-.2 0-.4.1-.5.2-.1.1-.2.3-.2.5v1.9c0 .2.1.4.2.5.1.1.3.2.5.2h.4c.2 0 .4-.1.5-.2.2-.2.2-.3.2-.5zm1.9-.9h1.5c.3 0 .4.1.4.4 0 .3-.1.4-.4.4h-1.5c-.3 0-.4-.1-.4-.4 0-.3.1-.4.4-.4zm5.3 2.3h-2.3c-.3 0-.4-.1-.4-.4v-3.9c0-.3.1-.4.4-.4h2.3c.3 0 .4.1.4.4 0 .3-.1.4-.4.4h-1.9v1h1.6c.2 0 .4.1.4.4 0 .3-.1.4-.4.4h-1.6v1.3h1.9c.3 0 .4.1.4.4s-.1.4-.4.4zm4.4-.1c-.1.1-.2.1-.2.1-.1 0-.3-.1-.4-.2l-1.1-1.6-1.1 1.6c-.1.1-.2.2-.4.2-.1 0-.2 0-.3-.1-.1-.1-.1-.2-.1-.3 0-.1 0-.2.1-.3l1.3-1.8-1.2-1.6c-.1-.1-.1-.2-.1-.3 0-.1 0-.2.1-.3.1-.1.2-.1.3-.1.1 0 .2.1.3.2l1 1.4 1-1.4c.1-.1.2-.2.3-.2.1 0 .2 0 .3.1.1.1.1.2.1.3 0 .1 0 .2-.1.2l-1.2 1.6 1.3 1.8c.1.1.1.2.1.3.1.2.1.3 0 .4z" fill="#111"/><path d="M64.9 37.9h144.9v1.6H64.9z" fill="#a7cc70"/></g></g></svg>