<svg id="Layer_4" data-name="Layer 4" xmlns="http://www.w3.org/2000/svg" viewBox="0 0 503 155"><defs><style>.cls-1{fill:#f15a31}.cls-2{fill:#231f20}</style></defs><path class="cls-2" d="M165.34 12.2l-3.37 19.23h-4l3.36-19.23h-7.49l.6-3.42h18.97l-.6 3.42h-7.49zm14.08 4.67c1.57-1.85 3.17-2.59 5.51-2.59 2.74 0 5.64 1.88 4.88 6.14l-1.93 11.01h-3.72l1.76-10.12c.51-2.98-.47-3.97-2.65-3.97-2.02 0-4.38 1.95-4.96 5.2l-1.55 8.89h-3.72l4.03-22.97h3.72l-1.49 8.41h.13zm28.79 9.71c-1.14 2.4-3.48 5.24-8.73 5.24-4.07 0-6.86-2.65-6.86-6.81 0-5.84 3.69-10.73 9.67-10.73 4.89 0 8 3.62 6.5 9.62h-12.37c-.46 2.9.71 5.08 3.25 5.08 2.79 0 4.17-1.68 4.81-2.93l3.74.54zm-11.18-5.32h8.45c.29-2.21-.72-4.16-3.37-4.16s-4.48 2.01-5.08 4.16zm37.04 1.26l4.14 8.91h-4.39l-3.91-8.66h-5.28l-1.52 8.66h-4l3.97-22.65h10.66c3.99 0 6.97 2.17 6.97 5.68 0 4.28-2.41 7.22-6.64 8.06zm-2.73-3.03c3.39 0 5.3-1.84 5.3-4.5 0-1.87-1.29-2.94-3.97-2.94h-6.12l-1.33 7.44h6.12zm17.02-4.83l-2.95 16.77h-3.72l2.92-16.77h3.75zm1.11-6.2l-.65 3.65h-3.72l.65-3.65h3.72zM262.4 19.7c-.29-1.92-1.73-2.75-3.47-2.75s-3.4.94-3.4 2.39c0 1.15 1.02 1.41 2.83 1.85l1.63.38c2.55.62 5 1.39 5 4.56 0 3.78-3.63 5.68-7.9 5.68s-7-2.19-7.22-5.36l3.44-.51c.28 2.3 1.73 3.22 4.07 3.22 1.88 0 3.82-.98 3.82-2.69 0-1.06-1.28-1.54-3.04-1.97l-1.69-.42c-2.29-.57-4.7-1.32-4.7-4.38 0-3.41 3.62-5.43 7.4-5.43s6.44 2.22 6.64 4.92l-3.41.5zm21.4 6.88c-1.14 2.4-3.48 5.24-8.73 5.24-4.07 0-6.86-2.65-6.86-6.81 0-5.84 3.69-10.73 9.67-10.73 4.89 0 8 3.62 6.5 9.62h-12.37c-.46 2.9.71 5.08 3.25 5.08 2.79 0 4.17-1.68 4.81-2.93l3.74.54zm-11.18-5.32h8.45c.29-2.21-.72-4.16-3.37-4.16s-4.48 2.01-5.08 4.16zm29.24 10.55c-4.22 0-7.1-2.62-7.1-6.81 0-5.78 3.7-10.72 9.93-10.72 4.22 0 7.1 2.62 7.1 6.81 0 5.78-3.7 10.72-9.93 10.72zm2.66-14.62c-4.32 0-5.97 4.99-5.97 7.86 0 2.43 1.26 3.86 3.48 3.86 4.32 0 5.97-4.99 5.97-7.86 0-2.43-1.26-3.86-3.48-3.86zm16.68-4.2l-.29 1.67h3.6l-.48 2.66h-3.59l-2.48 14.1h-3.72l2.47-14.1h-2.73l.45-2.66h2.73l.39-2.21c.6-3.36 3.05-4.38 5.7-4.38 1.46 0 2.17.19 2.69.34l-.48 2.81c-.42-.12-1.17-.17-1.84-.17-1.17 0-2.16.33-2.44 1.94zm20.6 15.44l-.52 3.03c-.4.17-1.4.35-2.6.35-2.78 0-4.49-1.02-3.94-4.16l1.82-10.33h-2.73l.45-2.66h2.73l.82-4.71h3.75l-.83 4.71h3.6l-.48 2.66h-3.59l-1.73 9.97c-.22 1.26.19 1.42 1.25 1.42.82 0 1.56-.15 1.99-.29zm9.66-11.56c1.57-1.85 3.17-2.59 5.51-2.59 2.74 0 5.64 1.88 4.88 6.14l-1.93 11.01h-3.72l1.76-10.12c.51-2.98-.47-3.97-2.65-3.97-2.02 0-4.38 1.95-4.96 5.2l-1.55 8.89h-3.72l4.03-22.97h3.72l-1.49 8.41h.13zm28.8 9.71c-1.14 2.4-3.48 5.24-8.73 5.24-4.07 0-6.86-2.65-6.86-6.81 0-5.84 3.69-10.73 9.67-10.73 4.89 0 8 3.62 6.5 9.62h-12.37c-.46 2.9.71 5.08 3.25 5.08 2.79 0 4.17-1.68 4.81-2.93l3.74.54zm-11.18-5.32h8.45c.29-2.21-.72-4.16-3.37-4.16s-4.48 2.01-5.08 4.16zm28.34-2.7h11.54l-.55 3.19h-11.54l-1.71 9.68h-4l3.97-22.65h16.06l-.56 3.27h-12.06l-1.14 6.5zm25.19 10.66c-1.51 1.85-3.14 2.59-5.58 2.59-2.81 0-5.71-1.88-4.98-6.14l1.93-11.01h3.72l-1.76 10.12c-.51 2.98.48 3.97 2.69 3.97 2.04 0 4.33-1.68 4.9-4.92l1.61-9.16h3.72l-2.95 16.77h-3.55l.38-2.21h-.13zm16.54-.79l-.52 3.03c-.4.17-1.4.35-2.6.35-2.78 0-4.49-1.02-3.94-4.16l1.82-10.33h-2.73l.45-2.66h2.73l.82-4.71h3.75l-.83 4.71h3.6l-.48 2.66h-3.59l-1.73 9.97c-.22 1.26.19 1.42 1.25 1.42.82 0 1.56-.15 1.99-.29zm14.86.79c-1.51 1.85-3.14 2.59-5.58 2.59-2.81 0-5.71-1.88-4.98-6.14l1.93-11.01h3.72l-1.76 10.12c-.51 2.98.48 3.97 2.69 3.97 2.04 0 4.33-1.68 4.9-4.92l1.61-9.16h3.72l-2.95 16.77h-3.55l.38-2.21h-.13zm13.76-12.03h.13c1.11-1.71 2.76-2.92 5.36-2.92.54 0 1.2.06 1.55.16l-.63 3.53c-.43-.06-1.04-.13-1.62-.13-2.72 0-4.95 1.3-5.6 4.91l-1.53 8.68h-3.72l2.95-16.77h3.55l-.45 2.53zm22.65 9.39c-1.14 2.4-3.48 5.24-8.73 5.24-4.07 0-6.86-2.65-6.86-6.81 0-5.84 3.69-10.73 9.67-10.73 4.89 0 8 3.62 6.5 9.62h-12.37c-.46 2.9.71 5.08 3.25 5.08 2.79 0 4.17-1.68 4.81-2.93l3.74.54zm-11.18-5.32h8.45c.29-2.21-.72-4.16-3.37-4.16s-4.48 2.01-5.08 4.16z"/><path class="cls-1" d="M146.42 7.75H37.76c-9.05 46.28-18.11 92.56-27.16 138.84 35.32-.14 70.64-.27 105.96-.41 9.96-46.15 19.91-92.29 29.87-138.44z"/><path class="cls-2" d="M57.38 37.93h21.13c6.04 19.62 12.07 39.24 18.11 58.86 4.02-19.62 8.05-39.24 12.07-58.86h18.11c-7.04 32.7-14.09 65.4-21.13 98.1h-16.6l-19.62-66.4c-4.53 22.13-9.06 44.27-13.58 66.4H36.25c7.04-32.7 14.09-65.4 21.13-98.1z"/><path class="cls-1" d="M140.24 75.22C147.57 65.08 157.36 60 169.62 60c8.84 0 15.64 2.41 20.41 7.23s7.16 11.75 7.16 20.79c0 13.96-3.69 26.04-11.07 36.23-7.38 10.2-17.25 15.29-29.61 15.29-8.74 0-15.49-2.41-20.26-7.23-4.77-4.82-7.16-11.75-7.16-20.79 0-13.96 3.71-26.06 11.15-36.31zm10.85 35.41c0 7.23 2.46 10.85 7.38 10.85 3.41 0 6.45-1.98 9.11-5.95 2.66-3.97 4.6-8.36 5.8-13.19 1.21-4.82 1.81-9.29 1.81-13.41 0-7.23-2.46-10.85-7.38-10.85-3.31 0-6.33 1.98-9.04 5.95-2.71 3.97-4.67 8.39-5.88 13.26-1.21 4.87-1.81 9.32-1.81 13.33zm45.2-48.51h22.6l1.51 48.81 22.3-48.81h23.5l-39.62 75.33h-22.3l-7.98-75.33zm66.29 13.1C269.91 65.08 279.7 60 291.96 60c8.84 0 15.64 2.41 20.41 7.23s7.16 11.75 7.16 20.79c0 13.96-3.69 26.04-11.07 36.23-7.38 10.2-17.25 15.29-29.61 15.29-8.74 0-15.49-2.41-20.26-7.23-4.77-4.82-7.16-11.75-7.16-20.79 0-13.96 3.71-26.06 11.15-36.31zm10.85 35.41c0 7.23 2.46 10.85 7.38 10.85 3.41 0 6.45-1.98 9.11-5.95 2.66-3.97 4.6-8.36 5.8-13.19 1.21-4.82 1.81-9.29 1.81-13.41 0-7.23-2.46-10.85-7.38-10.85-3.31 0-6.33 1.98-9.04 5.95-2.71 3.97-4.67 8.39-5.88 13.26-1.21 4.87-1.81 9.32-1.81 13.33z"/><path class="cls-1" d="M318.78 121.17c0-2.31.2-4.52.6-6.63l7.23-34.2h-7.68l3.92-18.23h7.68l5.42-25.31h22.15l-5.42 25.31h17.02l-3.92 18.23h-16.87l-7.08 33c-.2 1.2-.3 2.06-.3 2.56 0 3.62 1.96 5.42 5.88 5.42 2.81 0 6.08-.85 9.79-2.56l-3.47 17.78c-4.72 2.01-9.59 3.01-14.61 3.01-6.43 0-11.43-1.61-14.99-4.82-3.57-3.21-5.35-7.73-5.35-13.56z"/><path class="cls-1" d="M357.5 111.08c0-8.44 1.58-16.52 4.75-24.26 3.16-7.73 7.81-14.14 13.94-19.21S389.25 60 396.98 60c8.44 0 14.77 2.44 18.98 7.31 4.22 4.87 6.33 11.42 6.33 19.66 0 4.12-.45 8.34-1.36 12.65l-1.21 6.18h-40.53c-.2 1.71-.3 3.26-.3 4.67 0 3.31.68 6.03 2.03 8.14 1.52 2.36 4.66 2.94 8.81 3.16 4.61.25 13.12.02 24.74-4.23-2.68 5.92-5.35 11.84-8.03 17.76-3.64 1.76-10.86 4.64-20.17 4.25-5.32-.22-14.54-.68-21.39-7.53-4.92-4.92-7.38-11.9-7.38-20.94zm24.26-17.78h20.19c.4-3.21.6-5.37.6-6.48 0-6.53-2.26-9.79-6.78-9.79-6.13 0-10.8 5.42-14.01 16.27z"/><path class="cls-1" d="M434.17 97.97l-9.49-35.86h21.39l4.22 23.2 14.77-23.2h22.45l-25.46 35.86 10.4 39.47h-22.6l-4.82-23.35-14.92 23.35h-23.65l27.72-39.47z"/></svg>