<svg xmlns="http://www.w3.org/2000/svg" version="1.1" xmlns:xlink="http://www.w3.org/1999/xlink" width="1000" height="1000"><g clip-path="url(#SvgjsClipPath1198)"><rect width="1000" height="1000" fill="#ffffff"></rect><g transform="matrix(8.447729672650475,0,0,8.447729672650475,100,179.7888067581838)"><svg xmlns="http://www.w3.org/2000/svg" version="1.1" xmlns:xlink="http://www.w3.org/1999/xlink" width="94.7" height="75.81"><svg data-name="Layer 2" xmlns="http://www.w3.org/2000/svg" viewBox="0 0 94.7 75.81"><path d="M94.7 64.51v-29.5c-.8-6.8-3.8-12.9-8.4-17.3-5.2-5.1-12.3-8.3-20.1-8.2h-.1c-7.7.1-14.8 3.5-19.8 8.7-4.3 4.6-7.3 10.8-7.9 17.6v18.7l17.8-11v-5c0-2.7 1.9-5.1 3.6-6.9 1.7-1.8 4-2.9 6.7-2.9s5 1 6.8 2.8 2.8 4.1 2.9 6.9v36.4l18.5-10.3z" fill="#1b75bb"></path><path d="M47.7 8.01C42.5 2.91 35.4-.19 27.6 0h-.1C19.7.2 12.7 3.6 7.7 8.9 3.4 13.61.5 19.81 0 26.61v49.2l18.6-10.6v-36.1c-.1-2.7.9-5.1 2.6-7 1.7-1.8 4-2.9 6.7-3s5 1 6.8 2.7c1.8 1.8 3.5 4.1 3.6 6.8v25.8l19.3-10.6v-18.5c-.9-6.8-5.4-12.8-9.9-17.3z" fill="#00adee"></path></svg></svg></g></g><defs><clipPath id="SvgjsClipPath1198"><rect width="1000" height="1000" x="0" y="0" rx="500" ry="500"></rect></clipPath></defs></svg>