<svg xmlns="http://www.w3.org/2000/svg" version="1.1" id="Layer_1" viewBox="0 0 100 100" xml:space="preserve"><style>.st1{fill:#fff}.st4{fill:#69cdf4}</style><g id="Rectangle-290_4_"><g id="path-1_9_"><path d="M48.8 2.3h2.3c25.7 0 46.5 20.8 46.5 46.5v2.3c0 25.7-20.8 46.5-46.5 46.5h-2.3C23.1 97.6 2.3 76.7 2.3 51v-2.3c0-25.6 20.8-46.4 46.5-46.4z" fill="#eee"/><path class="st1" d="M51.2 100h-2.3C21.9 100 0 78 0 51.1v-2.3C0 21.9 21.9 0 48.8 0h2.3c27 0 48.9 21.9 48.9 48.8v2.3c0 27-21.9 48.9-48.8 48.9zM48.8 4.6C24.5 4.6 4.6 24.4 4.6 48.8v2.3c0 24.3 19.8 44.2 44.2 44.2h2.3c24.4 0 44.2-19.8 44.2-44.2v-2.3c0-24.4-19.8-44.2-44.2-44.2h-2.3z"/></g><path d="M51.2 98.3h-2.3c-26 0-47.1-21.2-47.1-47.1v-2.3c0-25.9 21.1-47 47.1-47h2.3c26 0 47.1 21.1 47.1 47.1v2.3c0 25.8-21.2 47-47.1 47zM48.8 2.9C23.5 2.9 2.9 23.5 2.9 48.8v2.3c0 25.3 20.6 45.9 45.9 46h2.3C76.4 97.1 97 76.5 97 51.2v-2.3C97 23.6 76.4 3 51.1 3h-2.3z" fill="#f2eded" id="path-1_8_"/></g><path class="st1" d="M67.2 31.8l9.2 14.8H61.2v-.1l-3.1-14.6v-.1h9.1z"/><path d="M76.4 46.6L50 74.7l11.3-28h15.1z" fill="#a4d7f7"/><path class="st4" d="M49.9 31.8h8.3v.1l3.1 14.6v.1H38.8l3-14.8h8.1z"/><path d="M61.3 46.6L50 74.6l-11.2-28h22.5z" fill="#0a84f2"/><path class="st4" d="M36.9 60.8L23.6 46.6h15.2l11.2 28-13.1-13.8z"/><path d="M41.7 31.8l-3 14.8H23.6l9.2-14.8h8.9z" fill="#4dbff7"/><path d="M31.1 64.2l-3.6 1.4c-.4.1-.5.4-.7.7L25.4 70 24 66.3c-.1-.4-.4-.5-.7-.7l-3.7-1.4 3.6-1.4c.4-.1.5-.4.7-.7l1.4-3.7 1.4 3.6c.1.4.4.5.7.7l3.7 1.5z" fill="#fbb040"/><path d="M75.1 24.6l-2.7 1c-.3 0-.4.3-.5.5l-1.1 2.7-1-2.7c0-.3-.3-.4-.5-.5l-2.7-1.1 2.7-1c.3 0 .4-.3.5-.5l1.1-2.7 1 2.7c0 .3.3.4.5.5l2.7 1.1zM37.7 73.7l-2.7 1c-.3 0-.4.3-.5.5l-1.1 2.7-1-2.7c0-.3-.3-.4-.5-.5l-2.7-1.1 2.7-1c.3 0 .4-.3.5-.5l1.1-2.7 1 2.7c0 .3.3.4.5.5l2.7 1.1z" fill="#ed8b00"/></svg>