<svg xmlns="http://www.w3.org/2000/svg" viewBox="0 0 224.65 33.82"><defs><style>.svg-logo-1{fill:#00adee;stroke-width:0}</style></defs><path class="svg-logo-1" d="M62.21 8.34c.82 0 1.65.11 2.36.2.82.2 1.54.51 2.16 1.03.61.51 1.13 1.23 1.54 2.16s.61 2.16.61 3.7v2.97c0 1.54-.2 2.78-.51 3.7-.42.92-.82 1.65-1.54 2.16-.61.51-1.34.92-2.16 1.03-.82.2-1.65.31-2.57.31s-1.75-.11-2.57-.31-1.54-.51-2.16-1.03-1.13-1.23-1.44-2.26c-.42-.92-.51-2.16-.51-3.7v-2.97c0-1.54.2-2.78.61-3.7.42-.92.92-1.65 1.54-2.16s1.34-.82 2.16-1.03c.92-.11 1.75-.11 2.47-.11h.02zm0 1.96c-.61 0-1.13.11-1.65.31s-.92.51-1.23.92-.61 1.03-.82 1.75-.31 1.65-.31 2.78v2.05c0 1.13.11 1.95.31 2.67s.42 1.23.82 1.65c.31.42.72.72 1.23.82.51.2 1.03.2 1.65.2s1.13-.11 1.65-.2c.51-.2.92-.42 1.23-.82s.61-.92.82-1.65.31-1.54.31-2.67v-2.05c0-1.13-.11-2.05-.31-2.78s-.42-1.34-.82-1.75c-.31-.42-.72-.72-1.23-.92-.42-.2-1.03-.31-1.65-.31zm21.78 2.05v2.05h-1.23l-3.9 4.42 3.81 3.5c.61.61 1.13 1.03 1.65 1.23.42.2.72.42.92.42l-.72 1.54c-.11.11-.31.11-.61.11s-.72-.11-1.34-.31c-.61-.2-1.23-.72-2.05-1.44l-5.35-4.93v2.97c0 .72-.11 1.34-.2 1.75-.11.51-.2.92-.42 1.23-.2.31-.31.51-.51.72s-.31.31-.42.31l-1.65-.51c.11-.2.2-.51.31-1.03s.2-1.13.2-1.95v-8.01h-1.65v-2.05h4.31v3.08l1.85 1.65L81 12.37h3zm13.36 0h4.31v2.05h-1.65v8.93h1.65v2.05h-4.31v-5.55h-6.06v5.55h-4.31v-2.05h1.65V14.4h-1.65v-2.05h4.31v5.35h6.06v-5.35zm16.75 10.28c0 .42.11.61.11.72.11.11.2.11.31.11h.42c.11 0 .2-.11.42-.2l.2 1.65c-.31.11-.61.2-.72.31-.2.11-.42.11-.72.11s-.61 0-.82-.11c-.2 0-.42-.11-.51-.2l-.31-.31a.762.762 0 01-.2-.51h-.11c-.31.2-.51.31-.82.51-.2.11-.51.31-.72.42-.31.11-.61.2-.92.2-.42.11-.82.11-1.44.11h-.42c-1.34 0-2.36-.42-3.08-1.03s-1.13-1.75-1.13-3.08v-.31c0-.72.11-1.23.42-1.75s.61-.92 1.13-1.23 1.03-.51 1.75-.72c.72-.11 1.44-.2 2.26-.2h2.36c0-.51 0-.92-.11-1.34s-.2-.61-.31-.92c-.2-.2-.42-.42-.72-.51s-.72-.2-1.23-.2h-1.44c-.11 0-.31.11-.61.11v.82l-2.05.11-.31-2.47c.31-.11.61-.2 1.03-.31l1.23-.31c.42-.11.92-.11 1.44-.2.51-.11 1.03-.11 1.54-.11 1.03 0 1.85.2 2.47.51.61.42 1.03.82 1.34 1.34s.42 1.13.51 1.75c.11.61.11 1.13.11 1.65v3.59c-.42 1.03-.42 1.65-.31 2.05h-.04v-.02zm-2.67-3.7h-1.65c-1.23 0-2.16.11-2.78.42-.61.31-.92.82-.92 1.65v.31c0 .82.2 1.34.72 1.65.51.31 1.13.42 2.05.42.31 0 .61 0 .82-.11.31 0 .51-.11.82-.31.2-.11.42-.31.61-.61.2-.31.31-.61.31-1.03v-2.36l.02-.02zm6.17 6.37v-2.05h1.13l.2-12.63h-1.65V8.57h5.14l4.52 10.48 4.83-10.48h5.04v2.05h-1.65c0 1.13 0 2.16.11 3.19 0 1.03 0 2.05.11 3.08 0 1.03 0 2.05.11 3.08v3.19h1.13v2.05h-3.7l-.2-13.05-4.52 10.07h-2.16l-4.42-10.07c0 .92-.11 1.95-.11 2.88v10.27h-3.9zm20.85-7.61c0-1.23.2-2.16.51-2.88s.72-1.34 1.34-1.75c.51-.42 1.13-.72 1.85-.82s1.34-.2 2.05-.2c.61 0 1.34.11 1.95.2.72.11 1.23.42 1.75.82.51.42.92.92 1.34 1.75.31.72.51 1.75.51 2.88v2.36c0 1.13-.2 2.16-.51 2.88-.31.72-.72 1.23-1.23 1.65s-1.13.61-1.75.72c-.72.11-1.34.2-2.05.2s-1.44-.11-2.05-.2c-.72-.11-1.23-.42-1.75-.72-.51-.42-.92-.92-1.23-1.65s-.51-1.65-.51-2.88v-2.36h-.21zm2.57 2.17c0 .82.11 1.44.31 1.95s.42.82.72 1.13c.31.31.61.42.92.51s.72.11 1.03.11.72 0 1.03-.11c.42-.11.72-.2 1.03-.51.31-.2.51-.61.72-1.13s.31-1.13.31-1.95v-1.95c0-.82-.11-1.44-.31-1.95s-.42-.92-.72-1.13c-.31-.31-.61-.42-.92-.51-.31-.11-.72-.11-1.03-.11s-.72 0-1.03.11c-.42.11-.72.31-1.03.51-.31.31-.51.61-.72 1.13s-.31 1.13-.31 1.95v1.95zm17.88-9.26c-.72 0-1.44.11-1.95.2-.61.11-1.03.31-1.44.72-.42.31-.72.82-.92 1.44-.2.61-.31 1.44-.31 2.36.42-.2.92-.42 1.54-.61.61-.2 1.34-.31 2.05-.31s1.54.11 2.26.2 1.44.42 2.05.82c.61.42 1.13.92 1.44 1.65.42.72.61 1.65.61 2.78s-.2 1.95-.51 2.78c-.31.72-.82 1.34-1.44 1.85-.61.42-1.23.82-2.05 1.03s-1.65.31-2.47.31c-1.03 0-1.85-.11-2.67-.31-.72-.2-1.44-.51-1.95-1.03s-.92-1.13-1.13-2.05c-.31-.82-.42-1.95-.42-3.39v-4.31c0-1.13.11-2.16.42-2.97s.72-1.44 1.23-1.85c.51-.51 1.23-.82 1.95-1.03s1.54-.31 2.47-.31h3.5l.11-.92 1.44-.11.61 2.57c-.61.31-1.23.42-2.05.51-.82-.11-1.54 0-2.36 0v-.03zm-4.73 7.61c0 1.23.11 2.16.2 2.88.11.72.31 1.23.61 1.54.31.42.61.61 1.03.72s.92.11 1.54.11c.42 0 .82 0 1.23-.11s.82-.31 1.23-.51c.42-.31.72-.61.92-1.13s.42-1.13.42-1.85-.11-1.34-.31-1.75c-.2-.51-.51-.82-.92-1.13s-.72-.42-1.23-.51c-.42-.11-.82-.11-1.23-.11-.61 0-1.34.11-1.95.2-.61.2-1.13.31-1.54.42v1.23-.02zm24.87-3.91v8.93h1.13v2.05h-3.81V14.8l-6.89 10.48h-3.81v-2.05h1.13v-8.84h-1.13v-2.05h3.81v9.14l6.17-9.14h4.42v2.05h-1.03v-.11zm10.9-6.46v4.21c.61 0 1.34.11 1.95.31s1.13.42 1.65.92c.51.42.82 1.03 1.13 1.75s.42 1.65.42 2.78v2.26c0 1.13-.11 2.05-.42 2.78s-.72 1.34-1.13 1.65c-.51.42-1.03.72-1.65.82-.61.2-1.23.2-1.85.31v4.83h-2.57v-4.83c-.61 0-1.23-.11-1.85-.31s-1.13-.42-1.65-.82-.82-.92-1.13-1.65c-.31-.72-.42-1.65-.42-2.78v-2.26c0-1.13.11-2.05.42-2.78s.61-1.34 1.13-1.75 1.03-.72 1.65-.92 1.23-.31 1.95-.31V7.84h2.36zm-5.36 11.91c0 .82.11 1.44.2 1.85.2.51.42.82.61 1.13.31.31.61.42.92.51s.61.2.92.2v-9.45c-.31 0-.72.11-1.03.2s-.61.31-.92.61-.51.72-.61 1.23c-.2.51-.2 1.13-.2 1.95v1.75h.11zm8.13-1.85c0-.82-.11-1.44-.2-1.95a7.8 7.8 0 00-.61-1.23c-.31-.31-.51-.51-.92-.61-.31-.11-.61-.2-1.03-.2v9.45c.31 0 .61-.11.92-.2s.61-.31.92-.51c.31-.31.51-.61.72-1.13s.31-1.13.31-1.85v-1.75h-.11zm4.31-.21c0-1.23.2-2.16.51-2.88s.72-1.34 1.34-1.75c.51-.42 1.13-.72 1.85-.82.61-.11 1.34-.2 2.05-.2.61 0 1.34.11 1.95.2s1.23.42 1.75.82c.51.42.92.92 1.34 1.75.31.72.51 1.75.51 2.88v2.36c0 1.13-.2 2.16-.51 2.88-.31.72-.72 1.23-1.23 1.65s-1.13.61-1.75.72c-.72.11-1.34.2-2.05.2s-1.44-.11-2.05-.2c-.72-.11-1.23-.42-1.75-.72a4.14 4.14 0 01-1.23-1.65c-.31-.72-.51-1.65-.51-2.88v-2.36h-.21zm2.67 2.17c0 .82.11 1.44.31 1.95s.42.82.72 1.13c.31.31.61.42.92.51s.72.11 1.03.11.72 0 1.03-.11c.42-.11.72-.2.92-.51.31-.2.51-.61.72-1.13s.31-1.13.31-1.95v-1.95c0-.82-.11-1.44-.31-1.95s-.42-.92-.72-1.13c-.31-.31-.61-.42-.92-.51s-.72-.11-1.03-.11-.72 0-1.03.11c-.42.11-.72.31-1.03.51-.31.31-.51.61-.72 1.13s-.31 1.13-.31 1.95v1.95h.11zm20.65-7.51h4.31v2.05H223v8.93h1.65v2.05h-4.31v-5.55h-6.06v5.55h-4.31v-2.05h1.65V14.4h-1.65v-2.05h4.31v5.35h6.06v-5.35z"/><path d="M42.25 28.78V15.62c-.36-3.03-1.7-5.75-3.75-7.72-2.32-2.28-5.49-3.7-8.97-3.66h-.04c-3.43.04-6.6 1.56-8.83 3.88-1.92 2.05-3.26 4.82-3.52 7.85v8.34l7.94-4.91v-2.23c0-1.2.85-2.28 1.61-3.08s1.78-1.29 2.99-1.29 2.23.45 3.03 1.25c.8.8 1.25 1.83 1.29 3.08v16.24l8.25-4.59z" fill="#1b75bb" stroke-width="0"/><path class="svg-logo-1" d="M21.28 3.57C18.96 1.3 15.79-.09 12.31 0h-.04c-3.48.09-6.6 1.61-8.83 3.97C1.52 6.07.22 8.84 0 11.87v21.95l8.3-4.73v-16.1c-.04-1.2.4-2.28 1.16-3.12.76-.8 1.78-1.29 2.99-1.34s2.23.45 3.03 1.2c.8.8 1.56 1.83 1.61 3.03v11.51l8.61-4.73v-8.25c-.4-3.03-2.41-5.71-4.42-7.72z"/></svg>