<svg id="Layer_2" data-name="Layer 2" xmlns="http://www.w3.org/2000/svg" viewBox="0 0 187.7 22.3"><defs><style>.cls-1{fill:#00adee;stroke-width:0}</style></defs><g id="Layer_1-2" data-name="Layer 1"><path class="cls-1" d="M8 9.8c.1-.2.1-.4.2-.6h1.7c.4 0 .7 0 1 .1s.5.1.7.2c.2.1.3.1.4.2.1.1.2.1.2.2l-.2.7h-.3c-.1 0-.2 0-.3-.1-.1 0-.3 0-.4-.1h-.6v1.3c0 .3.1.6.1.8s.1.4.1.5c.1.1.1.2.2.3l-.9.5c-.1 0-.2-.1-.3-.3-.1-.1-.2-.3-.3-.6-.3.2-.7.3-1.2.4s-.9.1-1.4.1-.9 0-1.3-.1-.8-.2-1.2-.5c-.3-.2-.6-.5-.8-.8-.2-.3-.3-.7-.3-1.2 0-.3 0-.6.1-.8l.3-.6c.1-.2.3-.3.5-.4l.6-.3c-.2-.1-.3-.1-.4-.2-.1-.1-.3-.2-.4-.3s-.2-.3-.3-.5c-.1-.2-.1-.4-.1-.7 0-.5.1-.9.3-1.2.2-.3.5-.5.8-.7s.6-.3 1-.3c.3-.1.7-.1 1-.1.5 0 1 0 1.4.1s.9.2 1.4.4L9 7.1l-.9-.2v-.8C8 6 7.9 6 7.8 5.9c-.1-.1-.3-.1-.4-.1s-.3-.1-.4-.1H5.9c-.2 0-.4.1-.6.2-.2.1-.3.2-.4.4s-.1.4-.1.6c0 .3.1.5.2.6.1.2.2.3.4.4s.3.2.5.2.4.1.6.1h.8l-.3 1h-.6c-.3 0-.5 0-.7.1-.2 0-.4.1-.6.2-.2.1-.3.3-.4.5-.1.2-.2.4-.2.7s.1.6.2.8c.1.2.3.4.5.5s.4.2.7.2.5.1.8.1h.8c.3 0 .5-.1.7-.1s.4-.1.6-.2.3-.1.4-.2v-1.6H8c-.1 0-.1-.2 0-.4z"/><path class="cls-1" d="M0 9.2c0-3.9 3.1-7 7-7s7 3.1 7 7-3.1 7-7 7c-3.8 0-7-3.1-7-7zm.5 0c0 3.6 2.9 6.5 6.5 6.5s6.5-2.9 6.5-6.5S10.6 2.7 7 2.7.5 5.6.5 9.2zM29.6.8c.8 0 1.6.1 2.3.2.8.2 1.5.5 2.1 1s1.1 1.2 1.5 2.1c.4.9.6 2.1.6 3.6v2.9c0 1.5-.2 2.7-.5 3.6-.4.9-.8 1.6-1.5 2.1-.6.5-1.3.9-2.1 1-.8.2-1.6.3-2.5.3s-1.7-.1-2.5-.3c-.8-.2-1.5-.5-2.1-1s-1.1-1.2-1.4-2.2c-.4-.9-.5-2.1-.5-3.6V7.6c0-1.5.2-2.7.6-3.6.4-.9.9-1.6 1.5-2.1s1.3-.8 2.1-1c.9-.1 1.7-.1 2.4-.1zm0 1.9c-.6 0-1.1.1-1.6.3s-.9.5-1.2.9-.6 1-.8 1.7-.3 1.6-.3 2.7v2c0 1.1.1 1.9.3 2.6s.4 1.2.8 1.6c.3.4.7.7 1.2.8.5.2 1 .2 1.6.2s1.1-.1 1.6-.2c.5-.2.9-.4 1.2-.8s.6-.9.8-1.6.3-1.5.3-2.6v-2c0-1.1-.1-2-.3-2.7s-.4-1.3-.8-1.7c-.3-.4-.7-.7-1.2-.9-.4-.2-1-.3-1.6-.3zm21.2 2v2h-1.2L45.8 11l3.7 3.4c.6.6 1.1 1 1.6 1.2.4.2.7.4.9.4l-.7 1.5c-.1.1-.3.1-.6.1s-.7-.1-1.3-.3c-.6-.2-1.2-.7-2-1.4l-5.2-4.8V14c0 .7-.1 1.3-.2 1.7-.1.5-.2.9-.4 1.2-.2.3-.3.5-.5.7s-.3.3-.4.3l-1.6-.5c.1-.2.2-.5.3-1s.2-1.1.2-1.9V6.7H38v-2h4.2v3L44 9.3l3.9-4.6h2.9zm13 0H68v2h-1.6v8.7H68v2h-4.2V12h-5.9v5.4h-4.2v-2h1.6V6.7h-1.6v-2h4.2v5.2h5.9V4.7zm16.3 10c0 .4.1.6.1.7.1.1.2.1.3.1h.4c.1 0 .2-.1.4-.2l.2 1.6c-.3.1-.6.2-.7.3-.2.1-.4.1-.7.1s-.6 0-.8-.1c-.2 0-.4-.1-.5-.2l-.3-.3c-.1-.1-.2-.3-.2-.5h-.1c-.3.2-.5.3-.8.5-.2.1-.5.3-.7.4-.3.1-.6.2-.9.2-.4.1-.8.1-1.4.1H74c-1.3 0-2.3-.4-3-1s-1.1-1.7-1.1-3v-.3c0-.7.1-1.2.4-1.7.3-.5.6-.9 1.1-1.2s1-.5 1.7-.7c.7-.1 1.4-.2 2.2-.2h2.3c0-.5 0-.9-.1-1.3s-.2-.6-.3-.9c-.2-.2-.4-.4-.7-.5s-.7-.2-1.2-.2h-1.4c-.1 0-.3.1-.6.1v.8l-2 .1L71 5c.3-.1.6-.2 1-.3l1.2-.3c.4-.1.9-.1 1.4-.2.5-.1 1-.1 1.5-.1 1 0 1.8.2 2.4.5.6.4 1 .8 1.3 1.3s.4 1.1.5 1.7c.1.6.1 1.1.1 1.6v3.5c-.4 1-.4 1.6-.3 2zm-2.6-3.6h-1.6c-1.2 0-2.1.1-2.7.4-.6.3-.9.8-.9 1.6v.3c0 .8.2 1.3.7 1.6.5.3 1.1.4 2 .4.3 0 .6 0 .8-.1.3 0 .5-.1.8-.3.2-.1.4-.3.6-.6.2-.3.3-.6.3-1v-2.3zm6 6.2v-2h1.1L84.8 3h-1.6V1h5l4.4 10.2L97.3 1h4.9v2h-1.6c0 1.1 0 2.1.1 3.1 0 1 0 2 .1 3 0 1 0 2 .1 3v3.1h1.1v2h-3.6l-.2-12.7-4.4 9.8h-2.1l-4.3-9.8c0 .9-.1 1.9-.1 2.8v10h-3.8zm20.3-7.4c0-1.2.2-2.1.5-2.8s.7-1.3 1.3-1.7c.5-.4 1.1-.7 1.8-.8s1.3-.2 2-.2c.6 0 1.3.1 1.9.2.7.1 1.2.4 1.7.8s.9.9 1.3 1.7c.3.7.5 1.7.5 2.8v2.3c0 1.1-.2 2.1-.5 2.8-.3.7-.7 1.2-1.2 1.6s-1.1.6-1.7.7c-.7.1-1.3.2-2 .2s-1.4-.1-2-.2c-.7-.1-1.2-.4-1.7-.7-.5-.4-.9-.9-1.2-1.6s-.5-1.6-.5-2.8V9.9h-.2zm2.5 2.1c0 .8.1 1.4.3 1.9s.4.8.7 1.1c.3.3.6.4.9.5.3.1.7.1 1 .1s.7 0 1-.1c.4-.1.7-.2 1-.5.3-.2.5-.6.7-1.1s.3-1.1.3-1.9v-1.9c0-.8-.1-1.4-.3-1.9s-.4-.9-.7-1.1c-.3-.3-.6-.4-.9-.5-.3-.1-.7-.1-1-.1s-.7 0-1 .1c-.4.1-.7.3-1 .5-.3.3-.5.6-.7 1.1s-.3 1.1-.3 1.9V12zm17.4-9c-.7 0-1.4.1-1.9.2-.6.1-1 .3-1.4.7-.4.3-.7.8-.9 1.4-.2.6-.3 1.4-.3 2.3.4-.2.9-.4 1.5-.6.6-.2 1.3-.3 2-.3s1.5.1 2.2.2c.7.1 1.4.4 2 .8.6.4 1.1.9 1.4 1.6.4.7.6 1.6.6 2.7s-.2 1.9-.5 2.7c-.3.7-.8 1.3-1.4 1.8-.6.4-1.2.8-2 1s-1.6.3-2.4.3c-1 0-1.8-.1-2.6-.3-.7-.2-1.4-.5-1.9-1s-.9-1.1-1.1-2c-.3-.8-.4-1.9-.4-3.3V7c0-1.1.1-2.1.4-2.9.3-.8.7-1.4 1.2-1.8.5-.5 1.2-.8 1.9-1s1.5-.3 2.4-.3h3.4l.1-.9 1.4-.1.6 2.5c-.6.3-1.2.4-2 .5-.8-.1-1.5 0-2.3 0zm-4.6 7.4c0 1.2.1 2.1.2 2.8.1.7.3 1.2.6 1.5.3.4.6.6 1 .7s.9.1 1.5.1c.4 0 .8 0 1.2-.1s.8-.3 1.2-.5c.4-.3.7-.6.9-1.1s.4-1.1.4-1.8-.1-1.3-.3-1.7c-.2-.5-.5-.8-.9-1.1s-.7-.4-1.2-.5c-.4-.1-.8-.1-1.2-.1-.6 0-1.3.1-1.9.2-.6.2-1.1.3-1.5.4v1.2zm24.2-3.8v8.7h1.1v2h-3.7V7.1L134 17.3h-3.7v-2h1.1V6.7h-1.1v-2h3.7v8.9l6-8.9h4.3v2h-1v-.1zM153.9.3v4.1c.6 0 1.3.1 1.9.3s1.1.4 1.6.9c.5.4.8 1 1.1 1.7.3.7.4 1.6.4 2.7v2.2c0 1.1-.1 2-.4 2.7s-.7 1.3-1.1 1.6c-.5.4-1 .7-1.6.8-.6.2-1.2.2-1.8.3v4.7h-2.5v-4.7c-.6 0-1.2-.1-1.8-.3-.6-.2-1.1-.4-1.6-.8s-.8-.9-1.1-1.6c-.3-.7-.4-1.6-.4-2.7V10c0-1.1.1-2 .4-2.7s.6-1.3 1.1-1.7 1-.7 1.6-.9 1.2-.3 1.9-.3V.3h2.3zm-5.2 11.6c0 .8.1 1.4.2 1.8.2.5.4.8.6 1.1.3.3.6.4.9.5s.6.2.9.2V6.3c-.3 0-.7.1-1 .2-.3.1-.6.3-.9.6s-.5.7-.6 1.2c-.2.5-.2 1.1-.2 1.9v1.7h.1zm7.9-1.8c0-.8-.1-1.4-.2-1.9-.2-.5-.4-.9-.6-1.2-.3-.3-.5-.5-.9-.6-.3-.1-.6-.2-1-.2v9.2c.3 0 .6-.1.9-.2s.6-.3.9-.5c.3-.3.5-.6.7-1.1s.3-1.1.3-1.8v-1.7h-.1zm4.2-.2c0-1.2.2-2.1.5-2.8s.7-1.3 1.3-1.7c.5-.4 1.1-.7 1.8-.8.6-.1 1.3-.2 2-.2.6 0 1.3.1 1.9.2.6.1 1.2.4 1.7.8s.9.9 1.3 1.7c.3.7.5 1.7.5 2.8v2.3c0 1.1-.2 2.1-.5 2.8-.3.7-.7 1.2-1.2 1.6s-1.1.6-1.7.7c-.7.1-1.3.2-2 .2s-1.4-.1-2-.2c-.7-.1-1.2-.4-1.7-.7-.5-.4-.9-.9-1.2-1.6-.3-.7-.5-1.6-.5-2.8V9.9h-.2zm2.6 2.1c0 .8.1 1.4.3 1.9.2.5.4.8.7 1.1.3.3.6.4.9.5s.7.1 1 .1.7 0 1-.1c.4-.1.7-.2.9-.5.3-.2.5-.6.7-1.1s.3-1.1.3-1.9v-1.9c0-.8-.1-1.4-.3-1.9-.2-.5-.4-.9-.7-1.1-.3-.3-.6-.4-.9-.5s-.7-.1-1-.1-.7 0-1 .1c-.4.1-.7.3-1 .5-.3.3-.5.6-.7 1.1s-.3 1.1-.3 1.9V12h.1zm20.1-7.3h4.2v2h-1.6v8.7h1.6v2h-4.2V12h-5.9v5.4h-4.2v-2h1.6V6.7h-1.6v-2h4.2v5.2h5.9V4.7z"/></g></svg>