<svg id="Layer_2" data-name="Layer 2" xmlns="http://www.w3.org/2000/svg" xmlns:xlink="http://www.w3.org/1999/xlink" viewBox="0 0 2090.8 2065.26"><defs><linearGradient id="linear-gradient" x1="-28.68" y1="737.76" x2="-750.83" y2="3518.03" gradientTransform="matrix(-1 0 0 1 668.92 0)" gradientUnits="userSpaceOnUse"><stop offset="0" stop-color="#1B75BB"/><stop offset="1" stop-color="#1B75BB"/></linearGradient><linearGradient id="linear-gradient-2" x1="12299.43" y1="590.61" x2="12908.97" y2="590.61" gradientTransform="rotate(.54 787.817 -1162165.007)" gradientUnits="userSpaceOnUse"><stop offset="0" stop-color="#febbba"/><stop offset="1" stop-color="#ff928e"/></linearGradient><linearGradient id="linear-gradient-3" x1="-3259.5" y1="493.33" x2="-2850.49" y2="1423.92" gradientTransform="scale(-1 1) rotate(-.54 4143.563 -152694.025)" xlink:href="#linear-gradient-2"/><linearGradient id="linear-gradient-4" x1="12906.05" y1="184.34" x2="13076.71" y2="-78.06" xlink:href="#linear-gradient-2"/><linearGradient id="linear-gradient-5" x1="521.14" y1="881.25" x2="-185.11" y2="3600.32" xlink:href="#linear-gradient"/><linearGradient id="linear-gradient-6" x1="10965.62" y1="1459.74" x2="11736.98" y2="1459.74" xlink:href="#linear-gradient-2"/><linearGradient id="linear-gradient-7" x1="11557.95" y1="635.12" x2="11862.93" y2="635.12" xlink:href="#linear-gradient-2"/><linearGradient id="linear-gradient-8" x1="3340.88" y1="5472.05" x2="3226.91" y2="5096.16" gradientTransform="rotate(-41.21 -4458.69 6125.463)" xlink:href="#linear-gradient-2"/><linearGradient id="linear-gradient-9" x1="3238.06" y1="4817.11" x2="3333.4" y2="5360.86" gradientTransform="rotate(-41.21 -4458.69 6125.463)" gradientUnits="userSpaceOnUse"><stop offset="0" stop-color="#09005d"/><stop offset="1" stop-color="#1a0f91"/></linearGradient><linearGradient id="linear-gradient-10" x1="3224.38" y1="5470.3" x2="3121.84" y2="5132.1" gradientTransform="rotate(-41.21 -4458.69 6125.463)" xlink:href="#linear-gradient-2"/><linearGradient id="linear-gradient-11" x1="11650.36" y1="1014.74" x2="12075.99" y2="2788.23" gradientTransform="translate(-10673.36)" xlink:href="#linear-gradient-9"/><linearGradient id="linear-gradient-12" x1="11358.7" y1="1483.92" x2="11599.86" y2="1483.92" gradientTransform="translate(-10673.36)" xlink:href="#linear-gradient-2"/></defs><g stroke-width="0" id="Illustration"><path d="M1018.18 781.26c-315.11-8.21-663.68 76.43-663.68 76.43-82.99 457.93-46.48 975.9-32.35 1132.78 2.65 29.38 24.62 53.23 53.63 58.57 162.83 29.93 334.55 11.77 420.94-1.38 33.61-5.12 60.48-30.49 67.62-63.72 57.08-265.7 220.16-851.89 220.16-851.89 154.17-17.64 281.44-60.86 386.46-118.6-78.8-93.12-115.24-211.01-130.89-280.64-111.76 33.57-224.69 50.99-321.88 48.45z" fill="url(#linear-gradient)"/><path d="M1953.53 325.94c-30.6-37.69-59.34-36.06-59.34-36.06-48.25 195.46-303.55 367.67-554.12 442.93 15.65 69.63 52.09 187.51 130.89 280.64 416.84-229.17 482.57-687.51 482.57-687.51z" fill="url(#linear-gradient-2)"/><path d="M1945.92 335.37c3.14 10.33-34.52 25.65-56.21-16.68-.58-20.19-12.03-106.79.19-123.12C1954.98 108.6 2080.58 0 2080.58 0c20.85 20.97 3.32 41.21 3.32 41.21l-61.02 62.37c12.42 22.96 27.65 42.38 34.61 70.08 5.27 20.97 1.71 43.3-9.04 62.23-10.79 19.01-25.5 43.71-39.36 63.01-26.24 36.54-63.17 36.47-63.17 36.47z" fill="url(#linear-gradient-3)"/><path d="M1996.06 144.17l-55.51 46.15-17.73 46.31 48.57 54.93s17.39-92.05 29.84-111.89c12.46-19.84 6.19-29.55-5.18-35.49z" fill="url(#linear-gradient-4)"/><path d="M472.47 1164.01L354.5 857.69S58.22 1054.89 7.39 1308.03c55.58 4.63 156.66 20.06 255.25 71.03 22.91-119.54 209.83-215.05 209.83-215.05z" fill="url(#linear-gradient-5)"/><path d="M726.98 1453.61s-332.29 183.63-442.29 23.07c-22.84-33.34-28.06-66.3-22.05-97.63-98.59-50.97-199.67-66.4-255.25-71.03-15.32 76.31-8.38 157.7 35.75 240.3 191.93 359.2 726.8-12.82 726.8-12.82l-42.96-81.91z" fill="url(#linear-gradient-6)"/><path d="M701.4 522.36L598.35 811.4c-1.71 4.79.22 10.13 4.64 12.63 27.19 15.37 125.25 60 244.65-14.12 12.44-7.72 20.98-20.42 22.99-34.92l34.87-250.68-204.11-1.95z" fill="url(#linear-gradient-7)"/><path d="M922.15 255.9s108.14 208.33 93.23 291.93c-14.91 83.59-151.33 76.28-269.85 7.14l-81.14-224.61 257.76-74.46z" fill="url(#linear-gradient-8)"/><path d="M751.84 445.1c4.86-2.1 6.71-8.01 3.85-12.47-8.7-13.56-24.97-41.21-30.02-65.34 0 0-19.67-12.87 50.66-28.99 70.34-16.13 175.24-41.2 197.81-100.73 22-58.04-32.95-205.04-123.97-89.2-3.46 4.41-10.16 4.44-13.54-.04-14.55-19.32-52.92-59.51-106.95-35.88-50.56 22.11-56.58 58.94-56.07 77.54.15 5.47-4.78 9.68-10.15 8.6-25.41-5.1-86.44-9.85-115.55 52.54-23.97 51.38-8.99 80.75 4.77 95.16 4.46 4.67 2.41 12.28-3.78 14.11-16.78 4.96-38.51 18.94-36.72 58.15 2.47 54.21 63.09 50.01 80.36 47.71 2.83-.38 5.67.62 7.56 2.76 14.63 16.51 80.59 86.63 152.63 95.69 6.24.79 11.14-5.33 9.15-11.3l-30.34-91.01a8.589 8.589 0 014.74-10.6l15.54-6.71z" fill="url(#linear-gradient-9)"/><path d="M764.26 458.1s-77.89-54.54-84.05-9.29c-6.16 45.24 69.98 66.29 107.95 49.76l-23.89-40.47z" fill="url(#linear-gradient-10)"/><path d="M659.07 1743.82l181.01-632.13c2.06-7.18 8.18-12.41 15.59-13.27 32.8-3.83 127.83-14.57 237.55-23.85 132.16-11.18 285.65-20.24 377.36-12.53 13.04 1.09 20.92 14.89 15.12 26.62-52.15 105.52-266.69 534.73-374.12 675.34-3.56 4.66-9.06 7.38-14.93 7.33l-419.98-3.91c-12.22-.11-20.97-11.84-17.61-23.59z" fill="url(#linear-gradient-11)"/><path d="M702.8 1591.1s-25.22-103.68-15.04-140.47c10.17-36.79 29.88-84.08 95.56-73.57 65.69 10.51 143.17 38.18 143.17 38.18s-3.91 47.91-53.84 32.46l30.96 23.95s-4.43 38.36-46.59 17.87l28.79 31.77s-18.11 31.51-49.14 11.3c-31.02-20.21-45.9 71-133.88 58.51z" fill="url(#linear-gradient-12)"/><path d="M1081.15 1263.27c0 29.35 23.79 53.13 53.14 53.13s53.13-23.79 53.13-53.13-23.79-53.14-53.13-53.14-53.14 23.79-53.14 53.14z" fill="#91b3fa"/><path d="M860.56 1298.3l36.85-125.02c4.52-15.35 16.87-26.88 32.21-30.09 115.51-24.1 431.67-29.21 434.85-29.26l-.21-14.12c-13.04.2-320.7 5.19-437.52 29.56-20.44 4.26-36.87 19.56-42.88 39.91l-36.85 125.02 13.55 4z" fill="#bdd0fb"/></g></svg>